<?xml version="1.0" encoding="UTF-8"?>
<svg width="24px" height="24px" viewBox="0 0 24 24" version="1.1" xmlns="http://www.w3.org/2000/svg" xmlns:xlink="http://www.w3.org/1999/xlink">
    <!-- Generator: Sketch 43.2 (39069) - http://www.bohemiancoding.com/sketch -->
    <title>icon-category-counseling</title>
    <desc>Created with Sketch.</desc>
    <defs></defs>
    <g id="Symbols" stroke="none" stroke-width="1" fill="none" fill-rule="evenodd">
        <g id="icon-category-counseling" fill="#ffffff">
            <g id="Page-1" transform="translate(1.000000, 1.000000)">
                <path d="M11,0 C4.925,0 0,4.925 0,11 C0,17.075 4.925,22 11,22 C17.075,22 22,17.075 22,11 C22,4.925 17.075,0 11,0 M11,1 C16.514,1 21,5.486 21,11 C21,16.514 16.514,21 11,21 C5.486,21 1,16.514 1,11 C1,5.486 5.486,1 11,1" id="Fill-1"></path>
                <polygon id="Fill-3" points="11.5 16 11.5 10 9 10 9 11 10.5 11 10.5 16 9 16 9 17 13 17 13 16"></polygon>
                <path d="M11,5 C9.895,5 9,5.895 9,7 C9,8.105 9.895,9 11,9 C12.105,9 13,8.105 13,7 C13,5.895 12.105,5 11,5 M11,6 C11.551,6 12,6.449 12,7 C12,7.551 11.551,8 11,8 C10.449,8 10,7.551 10,7 C10,6.449 10.449,6 11,6" id="Fill-5"></path>
            </g>
        </g>
    </g>
</svg>