<?xml version="1.0" encoding="UTF-8"?>
<svg width="24px" height="24px" viewBox="0 0 24 24" version="1.1" xmlns="http://www.w3.org/2000/svg" xmlns:xlink="http://www.w3.org/1999/xlink">
    <!-- Generator: Sketch 43.2 (39069) - http://www.bohemiancoding.com/sketch -->
    <title>icon-category-culture</title>
    <desc>Created with Sketch.</desc>
    <defs></defs>
    <g id="Symbols" stroke="none" stroke-width="1" fill="none" fill-rule="evenodd">
        <g id="icon-category-culture" fill="#ffffff">
            <g id="Page-1" transform="translate(1.000000, 2.000000)">
                <g id="Group-12">
                    <path d="M17.5,6.0107 C16.598,6.0107 15.733,5.6237 15.128,4.9487 L15.872,4.2807 C16.704,5.2087 18.296,5.2087 19.128,4.2807 L19.872,4.9487 C19.267,5.6237 18.402,6.0107 17.5,6.0107" id="Fill-2"></path>
                    <path d="M7.5,15.9375 C5.768,15.9375 4.107,15.1935 2.944,13.8965 L3.688,13.2285 C4.662,14.3145 6.051,14.9375 7.5,14.9375 C8.949,14.9375 10.338,14.3145 11.312,13.2285 L12.056,13.8965 C10.893,15.1935 9.232,15.9375 7.5,15.9375" id="Fill-4"></path>
                    <path d="M6.1279,8.7197 C5.2949,7.7907 3.7049,7.7907 2.8719,8.7197 L2.1279,8.0517 C2.7329,7.3767 3.5979,6.9897 4.4999,6.9897 C5.4019,6.9897 6.2669,7.3767 6.8719,8.0517 L6.1279,8.7197 Z" id="Fill-6"></path>
                    <path d="M12.1279,8.8447 C11.2949,7.9157 9.7049,7.9157 8.8719,8.8447 L8.1279,8.1767 C8.7329,7.5017 9.5979,7.1147 10.4999,7.1147 C11.4019,7.1147 12.2669,7.5017 12.8719,8.1767 L12.1279,8.8447 Z" id="Fill-8"></path>
                    <path d="M21,9.5 C21,13.09 18.09,16 14.5,16 C14.31,16 14.198,16.028 14.1,16.057 C14.674,14.998 15,13.787 15,12.5 L15,11.089 C16.264,11.215 17.451,11.811 18.312,12.771 L19.057,12.104 C18.005,10.932 16.549,10.218 15,10.089 L15,4 L15,3 L14,3 L8,3 L8,1 L21,1 L21,9.5 Z M14,12.5 C14,16.09 11.09,19 7.5,19 C3.91,19 1,16.09 1,12.5 L1,4 L14,4 L14,12.5 Z M21,0 L8,0 L7,0 L7,1 L7,3 L1,3 L0,3 L0,4 L0,12.5 C0,16.635 3.365,20 7.5,20 C9.977,20 12.171,18.788 13.537,16.931 C13.853,16.972 14.173,17 14.5,17 C18.635,17 22,13.635 22,9.5 L22,1 L22,0 L21,0 Z" id="Fill-10"></path>
                </g>
            </g>
        </g>
    </g>
</svg>