<?xml version="1.0" encoding="UTF-8"?>
<svg width="24px" height="24px" viewBox="0 0 24 24" version="1.1" xmlns="http://www.w3.org/2000/svg" xmlns:xlink="http://www.w3.org/1999/xlink">
    <!-- Generator: Sketch 43.2 (39069) - http://www.bohemiancoding.com/sketch -->
    <title>icon-category-service</title>
    <desc>Created with Sketch.</desc>
    <defs></defs>
    <g id="Symbols" stroke="none" stroke-width="1" fill="none" fill-rule="evenodd">
        <g id="icon-category-service" fill="#000000">
            <g id="Page-1" transform="translate(2.000000, 3.000000)">
                <g id="Group-6">
                    <path d="M2.00913382,4.09376445 C1.97993946,4.96252667 2.30611093,5.81417538 2.94033325,6.44838186 C3.78898311,7.29701054 5.02924008,7.59498692 6.17486706,7.22352312 L6.46781737,7.12990217 L15.9892057,16.6500462 C16.4472552,17.1080842 17.1922147,17.1090909 17.6502642,16.6510529 C18.1083136,16.1930149 18.1083136,15.4470672 17.6502642,14.9890292 L8.12887582,5.46888518 L8.22350581,5.17594218 C8.59397218,4.02833045 8.29699507,2.78911111 7.4483452,1.9414891 L7.4473385,1.94048243 L7.4473385,1.93947575 C6.81311619,1.30627594 5.96144622,0.979105928 5.09366902,1.00930624 L6.85439097,2.76998424 L3.76985577,5.85444245 L2.00913382,4.09376445 Z M2.22859487,7.16010247 C1.11115555,6.04269105 0.718541739,4.41187437 1.20578555,2.9028656 L1.45846777,2.11967093 L3.76985577,4.43100123 L5.43091422,2.76998424 L3.11952622,0.459660616 L3.90274045,0.205978021 C5.40977347,-0.281253628 7.04063086,0.11034371 8.15807018,1.22775514 C8.15907688,1.22876181 8.16109028,1.22976849 8.16109028,1.22976849 C9.20302695,2.27167915 9.6137614,3.76256773 9.26745588,5.18298892 L18.3620026,14.2773086 C19.2126658,15.1289573 19.2126658,16.5121315 18.3620026,17.3627735 C17.512346,18.2124088 16.1281306,18.2124088 15.2774674,17.3627735 L6.18292068,8.26744713 C4.76246403,8.61374401 3.27153824,8.20301981 2.22859487,7.16010247 L2.22859487,7.16010247 Z" id="Fill-2"></path>
                    <path d="M2.783769,16.6081155 L1.3918845,15.216231 L5.56753801,11.0395931 L6.96040687,12.4314776 L2.783769,16.6081155 Z M16.6071311,1.19796566 L16.8020343,1.3918845 L15.7044734,3.58700645 L14.6462868,3.58700645 L14.4139779,3.58602209 L14.4129935,3.35371322 L14.4129935,2.29552663 L16.6071311,1.19796566 Z M14.0379525,4.57136607 L16.3128076,4.57136607 L18,1.19796566 L16.8020343,0 L13.4276496,1.68719239 L13.4286339,3.78781582 L6.56863174,10.647818 L5.56753801,9.64770863 L0,15.216231 L2.783769,18 L8.35229137,12.4314776 L7.26457399,11.3437603 L14.0379525,4.57136607 Z" id="Fill-4"></path>
                </g>
            </g>
        </g>
    </g>
</svg>