<svg xmlns="http://www.w3.org/2000/svg" width="48" height="48" viewBox="0 0 48 48">
  <g fill="none" fill-rule="evenodd" stroke="#FEFEFE" stroke-width="2" transform="translate(11 11)">
    <path d="M13,26 C20.1677273,26 26,20.1677273 26,13 C26,5.83227273 20.1677273,0 13,0 C5.83227273,0 0,5.83227273 0,13 C0,20.1677273 5.83227273,26 13,26 Z"/>
    <path d="M11.8180636,26 C15.6566091,26 17.7271545,19.3026364 17.7271545,13 C17.7271545,6.69736364 15.6566091,0 11.8180636,0"/>
    <path d="M14.1819364 0C10.3433909 0 8.27284545 6.69736364 8.27284545 13 8.27284545 19.3026364 10.3433909 26 14.1819364 26M.590909091 17.7272727L25.4090909 17.7272727M.590909091 8.27272727L25.4090909 8.27272727"/>
  </g>
</svg>
