<svg xmlns="http://www.w3.org/2000/svg" width="48" height="48" viewBox="0 0 48 48" xmlns:xlink="http://www.w3.org/1999/xlink">
  <defs>
    <path id="a" d="M2.6,13.8666667 L12.1333333,13.8666667 L12.1333333,0 L2.6,0 C2.6,0 2.16952965e-16,1.49739719 0,5.54666667"/>
  </defs>
  <g fill="none" fill-rule="evenodd">
    <circle cx="23" cy="24" r="13" stroke="#FFFFFF" stroke-width="2"/>
    <g transform="translate(15 16)">
      <circle cx="7.8" cy="15.167" r="1.3" fill="#FFFFFF"/>
      <g transform="translate(.433)">
        <mask id="b" fill="white">
          <use xlink:href="#a"/>
        </mask>
        <path stroke="#FFFFFF" stroke-width="2" d="M5.29531117,4.17795945 C5.44160273,3.39858711 5.78688227,2.76939026 6.3311498,2.29267931 C6.87620383,1.8144281 7.56283035,1.57568756 8.39181586,1.57568756 C9.23653164,1.57568756 9.92394467,1.83060085 10.4516954,2.33965729 C10.9802327,2.84948386 11.2445013,3.50948594 11.2445013,4.32120377 C11.2445013,4.79868485 11.1469736,5.22071652 10.9519182,5.58729877 C10.7568627,5.95311088 10.516976,6.29966973 10.2322581,6.62543505 C9.9483266,6.9519705 9.63529412,7.25848255 9.29394714,7.54420106 C8.95260017,7.83068971 8.63563512,8.12950045 8.343052,8.43986315 C8.05046888,8.75022586 7.80271705,9.08446261 7.59900998,9.44257342 C7.39608943,9.80068423 7.29462916,10.1942211 7.29462916,10.6247242 L7.29462916,12.6062706" mask="url(#b)"/>
      </g>
    </g>
  </g>
</svg>
