<?xml version="1.0" encoding="UTF-8" standalone="no"?>
<svg width="24px" height="24px" viewBox="0 0 24 24" version="1.1" xmlns="http://www.w3.org/2000/svg" xmlns:xlink="http://www.w3.org/1999/xlink">
    <!-- Generator: Sketch 41.1 (35376) - http://www.bohemiancoding.com/sketch -->
    <title>nav/Icons black/24/save</title>
    <desc>Created with Sketch.</desc>
    <defs></defs>
    <g id="Symbols" stroke="none" stroke-width="1" fill="none" fill-rule="evenodd">
        <g id="nav/Icons-black/24/save" fill="#000000">
            <g id="export-16" transform="translate(4.000000, 4.000000)">
                <g id="Layer_1">
                    <path d="M14,14.002 L2,14.002 L2,2.002 L7,2.002 L7,0.002 L1.391,0.001 C0.623,0.001 0,0.625 0,1.393 L0,14.611 C0,15.379 0.623,16.002 1.391,16.002 L14.609,16.002 C15.377,16.002 16,15.379 16,14.611 L16,9.002 L14,9.002 L14,14.002 Z M16,1 C16,0.771 15.905,0.57 15.77,0.402 C15.749,0.375 15.738,0.344 15.714,0.319 C15.711,0.317 15.71,0.313 15.708,0.31 C15.702,0.305 15.701,0.297 15.695,0.291 C15.631,0.227 15.552,0.189 15.477,0.146 C15.444,0.127 15.417,0.099 15.382,0.084 C15.246,0.025 15.102,3.90312782e-16 14.956,0.004 C14.954,0.004 14.952,0.003 14.95,0.003 L10.059,0.003 C9.481,0.002 9.012,0.449 9.012,1 C9.012,1.55 9.482,1.997 10.061,1.997 L12.58,1.997 L6.29,8.299 C5.902,8.686 5.902,9.311 6.29,9.697 C6.678,10.084 7.306,10.084 7.693,9.697 L14.005,3.392 L14.005,5.942 C14.005,6.521 14.452,6.99 15.003,6.99 C15.554,6.99 16,6.521 16,5.942 L16,1.051 C16,1.041 15.995,1.033 15.995,1.024 C15.995,1.016 16,1.008 16,1 Z" id="Shape"></path>
                </g>
            </g>
        </g>
    </g>
</svg>