<?xml version="1.0" encoding="UTF-8"?>
<svg width="144px" height="144px" viewBox="0 0 144 144" version="1.1" xmlns="http://www.w3.org/2000/svg" xmlns:xlink="http://www.w3.org/1999/xlink" style="background: #F2F2F2;">
    <!-- Generator: Sketch 41 (35326) - http://www.bohemiancoding.com/sketch -->
    <title>Artboard</title>
    <desc>Created with Sketch.</desc>
    <defs></defs>
    <g id="Symbols" stroke="none" stroke-width="1" fill="none" fill-rule="evenodd">
        <g id="Artboard">
            <path d="M23.75,35 C17.547,35 12.5,29.953 12.5,23.75 C12.5,17.547 17.547,12.5 23.75,12.5 C29.953,12.5 35,17.547 35,23.75 C35,29.953 29.953,35 23.75,35 L23.75,35 Z M39.5,24.5 L39.5,23 L36.462,23 C36.392,21.807 36.161,20.66 35.784,19.577 L38.588,18.416 L38.014,17.03 L35.207,18.193 C34.693,17.136 34.039,16.163 33.266,15.294 L35.417,13.143 L34.356,12.083 L32.206,14.234 C31.337,13.461 30.364,12.808 29.309,12.293 L30.471,9.486 L29.084,8.912 L27.923,11.716 C26.84,11.339 25.693,11.108 24.5,11.038 L24.5,8 L23,8 L23,11.038 C21.808,11.108 20.66,11.339 19.577,11.716 L18.416,8.911 L17.03,9.485 L18.193,12.293 C17.136,12.807 16.163,13.461 15.294,14.234 L13.143,12.083 L12.083,13.143 L14.234,15.294 C13.461,16.163 12.807,17.136 12.293,18.193 L9.486,17.03 L8.912,18.416 L11.716,19.577 C11.339,20.66 11.108,21.807 11.038,23 L8,23 L8,24.5 L11.038,24.5 C11.108,25.692 11.339,26.84 11.715,27.922 L8.912,29.084 L9.486,30.471 L12.293,29.308 C12.807,30.364 13.461,31.337 14.234,32.206 L12.083,34.358 L13.143,35.419 L15.295,33.267 C16.164,34.04 17.137,34.693 18.193,35.207 L17.03,38.015 L18.416,38.589 L19.578,35.785 C20.66,36.161 21.808,36.392 23,36.462 L23,39.5 L24.5,39.5 L24.5,36.462 C25.693,36.392 26.84,36.161 27.923,35.784 L29.084,38.588 L30.471,38.014 L29.309,35.207 C30.364,34.692 31.337,34.039 32.206,33.266 L34.356,35.417 L35.417,34.356 L33.266,32.206 C34.039,31.337 34.692,30.364 35.207,29.309 L38.014,30.471 L38.588,29.084 L35.784,27.923 C36.161,26.84 36.392,25.693 36.462,24.5 L39.5,24.5 Z" id="Fill-2" fill="#FFFFFF"></path>
            <rect id="Rectangle" x="0" y="0" width="48" height="48"></rect>
            <path d="M23.75,26 C22.509,26 21.5,24.991 21.5,23.75 C21.5,22.509 22.509,21.5 23.75,21.5 C24.991,21.5 26,22.509 26,23.75 C26,24.991 24.991,26 23.75,26 M23.75,20 C21.682,20 20,21.682 20,23.75 C20,25.817 21.682,27.5 23.75,27.5 C25.817,27.5 27.5,25.817 27.5,23.75 C27.5,21.682 25.817,20 23.75,20" id="Fill-4" fill="#FFFFFF"></path>
            <polygon id="Fill-2" fill="#FFFFFF" points="60 18.5 85.5 18.5 85.5 17 60 17"></polygon>
            <polygon id="Fill-3" fill="#FFFFFF" points="60 20 60 35 61.5 35 61.5 21.5 64.5 21.5 64.5 35 66 35 66 21.5 69 21.5 69 35 70.5 35 70.5 21.5 75 21.5 75 35 76.5 35 76.5 21.5 79.5 21.5 79.5 35 81 35 81 21.5 84 21.5 84 35 85.5 35 85.5 20"></polygon>
            <path d="M73,11.5 C73.827,11.5 74.5,12.173 74.5,13 C74.5,13.827 73.827,14.5 73,14.5 C72.173,14.5 71.5,13.827 71.5,13 C71.5,12.173 72.173,11.5 73,11.5 M73,16 C74.655,16 76,14.654 76,13 C76,11.346 74.655,10 73,10 C71.346,10 70,11.346 70,13 C70,14.654 71.346,16 73,16" id="Fill-4" fill="#FFFFFF"></path>
            <path d="M111.75,14.5 C110.509,14.5 109.5,15.509 109.5,16.75 L109.5,28.749 C109.5,29.989 110.509,30.999 111.75,30.999 L121.061,30.999 L126,35.938 L126,30.999 L129.75,30.999 C130.99,30.999 132,29.989 132,28.749 L132,16.75 C132,15.509 130.99,14.5 129.75,14.5 L111.75,14.5 Z M127.5,39.56 L120.439,32.499 L111.75,32.499 C109.682,32.499 108,30.816 108,28.749 L108,16.75 C108,14.682 109.682,13 111.75,13 L129.75,13 C131.817,13 133.5,14.682 133.5,16.75 L133.5,28.749 C133.5,30.816 131.817,32.499 129.75,32.499 L127.5,32.499 L127.5,39.56 Z" id="Fill-2" fill="#FFFFFF"></path>
            <g id="Group" transform="translate(55.000000, 54.000000)" fill="#FFFFFF">
                <polygon id="Fill-2" points="16 6 17.5 6 17.5 0 16 0"></polygon>
                <polygon id="Fill-3" points="16 35 17.5 35 17.5 29 16 29"></polygon>
                <polygon id="Fill-4" points="8.243 10.304 4 6.061 5.06 5 9.304 9.243"></polygon>
                <polygon id="Fill-5" points="28.242 30.303 24 26.061 25.06 25 29.303 29.242"></polygon>
                <polygon id="Fill-6" points="0 18.5 6 18.5 6 17 0 17"></polygon>
                <polygon id="Fill-7" points="28 18.5 34 18.5 34 17 28 17"></polygon>
                <polygon id="Fill-8" points="5.061 30.304 4 29.243 8.244 25 9.304 26.061"></polygon>
                <polygon id="Fill-9" points="25.061 10.304 24 9.243 28.243 5 29.303 6.061"></polygon>
            </g>
            <path d="M71.75,65 C68.028,65 65,68.028 65,71.75 C65,75.472 68.028,78.5 71.75,78.5 C75.472,78.5 78.5,75.472 78.5,71.75 C78.5,68.028 75.472,65 71.75,65 M71.75,80 C67.201,80 63.5,76.299 63.5,71.75 C63.5,67.201 67.201,63.5 71.75,63.5 C76.299,63.5 80,67.201 80,71.75 C80,76.299 76.299,80 71.75,80" id="Fill-10" fill="#FFFFFF"></path>
            <path d="M8,82.5 L8,60 L20,60 C21.587,60 22.975,60.826 23.775,62.066 C24.576,60.836 25.922,60 27.5,60 L39.5,60 L39.5,82.5 L27.5,82.5 C25.843,82.5 24.5,83.843 24.5,85.5 L23,85.5 C23,83.843 21.657,82.5 20,82.5 L8,82.5 Z M24.5,82.168 C25.297,81.45 26.342,81 27.5,81 L38,81 L38,61.5 L27.5,61.5 C25.843,61.5 24.5,62.843 24.5,64.5 L24.5,82.168 Z M9.5,81 L20,81 C21.158,81 22.203,81.45 23,82.168 L23,64.5 C23,62.843 21.657,61.5 20,61.5 L9.5,61.5 L9.5,81 Z" id="Fill-2" fill="#FFFFFF"></path>
            <path d="M120.447,130.325546 L120.446,130.327546 L110.546,120.429546 C110.233,120.115546 109.956,119.776546 109.711,119.418546 L114.756,119.418546 L117.445,116.728546 L123.445,122.728546 L126.756,119.418546 L131.178,119.418546 C130.934,119.776546 130.657,120.115546 130.343,120.429546 L120.447,130.325546 Z M110.546,110.529546 C111.895,109.180546 113.698,108.496546 115.505,108.496546 C117.09,108.496546 118.678,109.023546 119.962,110.093546 L120.442,110.492546 L120.922,110.093546 C123.67,107.806546 127.807,107.995546 130.341,110.530546 C131.662,111.849546 132.389,113.607546 132.389,115.479546 C132.389,116.326546 132.233,117.147546 131.948,117.918546 L126.134,117.918546 L123.445,120.607546 L117.445,114.607546 L114.135,117.918546 L108.941,117.918546 C108.656,117.147546 108.5,116.326546 108.5,115.478546 C108.5,113.606546 109.227,111.849546 110.546,110.529546 L110.546,110.529546 Z M131.401,109.469546 C128.47,106.538546 123.769,106.189546 120.442,108.569546 C117.117,106.188546 112.416,106.538546 109.486,109.469546 C107.883,111.072546 107,113.206546 107,115.478546 C107,117.751546 107.883,119.886546 109.486,121.489546 L120.445,132.442546 L131.404,121.489546 C133.008,119.886546 133.89,117.751546 133.889,115.479546 C133.889,113.206546 133.006,111.072546 131.401,109.469546 L131.401,109.469546 Z" id="Fill-2" fill="#FFFFFF"></path>
            <path d="M90.5,128.562 L90.5,110.562 L89.812,110.562 L83.402,110.562 C82.988,110.562 82.613,110.394 82.34,110.123 L80.223,108.004 C76.682,104.636 71.09,104.665 67.619,108.136 L64.968,110.787 C63.503,112.252 63.503,114.626 64.968,116.09 C66.432,117.555 68.807,117.555 70.271,116.09 L71.862,114.5 C72.448,113.914 73.399,113.914 73.985,114.499 L84.061,124.576 C84.647,125.162 84.647,126.111 84.061,126.697 C83.475,127.283 82.526,127.283 81.94,126.697 L77.699,122.455 L76.637,123.517 L79.822,126.699 C80.408,127.287 80.408,128.235 79.822,128.82 C79.236,129.406 78.287,129.406 77.702,128.82 L74.517,125.638 L73.455,126.699 L75.576,128.82 C76.162,129.406 76.162,130.356 75.576,130.942 C74.989,131.528 74.041,131.528 73.455,130.942 L70.273,127.757 L69.212,128.819 L71.334,130.941 C71.92,131.527 71.92,132.476 71.334,133.062 C70.748,133.648 69.798,133.648 69.212,133.062 L64.122,127.942 C63.538,127.355 62.77,127.062 62.002,127.062 L54.5,127.062 L54.5,112.062 L57.5,112.062 C58.268,112.062 59.036,111.769 59.621,111.183 L62.739,108.001 C63.032,107.708 63.416,107.562 63.8,107.562 L66.5,107.562 L66.5,106.062 L63.8,106.062 C63.032,106.062 62.265,106.355 61.679,106.941 L58.561,110.123 C58.268,110.416 57.884,110.562 57.5,110.562 L53,110.562 L53,128.562 L62,128.562 C62.384,128.562 62.768,128.708 63.061,129 L68.151,134.121 C69.322,135.293 71.223,135.293 72.393,134.121 C72.846,133.67 73.068,133.101 73.172,132.517 C74.298,133.089 75.693,132.942 76.637,131.999 C77.088,131.548 77.311,130.978 77.414,130.395 C78.541,130.966 79.935,130.82 80.879,129.876 C81.33,129.425 81.553,128.855 81.657,128.272 C82.783,128.845 84.178,128.698 85.121,127.753 C86.293,126.581 86.293,124.685 85.121,123.513 L75.045,113.439 C73.873,112.267 71.975,112.267 70.802,113.439 L69.211,115.03 C68.333,115.909 66.908,115.909 66.029,115.03 C65.151,114.151 65.151,112.727 66.029,111.848 L68.681,109.196 C71.609,106.267 76.359,106.267 79.288,109.196 L81.279,111.183 C81.823,111.726 82.573,112.062 83.402,112.062 L89,112.062 L89,128.562 L90.5,128.562 Z" id="Page-1" fill="#FFFFFF"></path>
            <g id="icon_information_b" transform="translate(19.000000, 104.000000)">
                <g id="Layer_1">
                    <circle id="Oval" stroke="#FFFFFF" stroke-width="1.5" cx="4.25" cy="4" r="3.75"></circle>
                    <path d="M6.5,28 C6.5,28.828 5.828,29.5 5,29.5 L3.5,29.5 C2.672,29.5 2,28.828 2,28 L2,14.5 C2,13.672 2.672,13 3.5,13 L5,13 C5.828,13 6.5,13.672 6.5,14.5 L6.5,28 L6.5,28 Z M8,28 L8,14.5 C8,12.843 6.657,11.5 5,11.5 L3.5,11.5 C1.843,11.5 0.5,12.843 0.5,14.5 L0.5,28 C0.5,29.657 1.843,31 3.5,31 L5,31 C6.657,31 8,29.657 8,28 L8,28 Z" id="Shape" fill="#FFFFFF"></path>
                </g>
            </g>
            <g id="Page-1" transform="translate(114.389001, 55.000000)" stroke="#FFFFFF" stroke-width="1.5">
                <path d="M1.538,15.78 L8.432,22.674" id="Stroke-1"></path>
                <path d="M8.962,14.72 L2.068,7.826" id="Stroke-7"></path>
                <path d="M2.068,22.675 C0.311,24.432 0.311,27.281 2.068,29.039 C3.825,30.796 6.675,30.796 8.432,29.039 C10.19,27.281 10.19,24.432 8.432,22.675" id="Stroke-2"></path>
                <path d="M1.538,9.417 C-0.219,11.174 -0.219,14.024 1.538,15.781" id="Stroke-4"></path>
                <path d="M8.432,7.825 C10.19,6.068 10.19,3.218 8.432,1.461 C6.675,-0.296 3.828,-0.296 2.068,1.461 C0.311,3.218 0.311,6.068 2.068,7.825" id="Stroke-8"></path>
                <path d="M8.962,21.084 C10.721,19.326 10.721,16.477 8.962,14.72" id="Stroke-10"></path>
                <path d="M1.538,9.417 L2.599,8.355" id="Stroke-13"></path>
                <path d="M7.9,22.145 L8.963,21.083" id="Stroke-14"></path>
            </g>
        </g>
    </g>
</svg>