<svg xmlns="http://www.w3.org/2000/svg" width="24" height="24" viewBox="0 0 24 24">
  <path fill="#000000" fill-rule="evenodd" d="M8.625,9.75 C8.004,9.75 7.5,10.252875 7.5,10.875 C7.5,11.497125 8.004,12 8.625,12 C9.246,12 9.75,11.497125 9.75,10.875 C9.75,10.252875 9.246,9.75 8.625,9.75 L8.625,9.75 Z M12,13.125 C11.379,13.125 10.875,13.627875 10.875,14.25 C10.875,14.872125 11.379,15.375 12,15.375 C12.621,15.375 13.125,14.872125 13.125,14.25 C13.125,13.627875 12.621,13.125 12,13.125 L12,13.125 Z M8.625,13.125 C8.004,13.125 7.5,13.627875 7.5,14.25 C7.5,14.872125 8.004,15.375 8.625,15.375 C9.246,15.375 9.75,14.872125 9.75,14.25 C9.75,13.627875 9.246,13.125 8.625,13.125 L8.625,13.125 Z M18.75,4.126125 L16.5,4.126125 C16.5,3.504 15.997125,3 15.375,3 C14.752875,3 14.25,3.504 14.25,4.126125 L9.75,4.126125 C9.75,3.504 9.246,3 8.625,3 C8.004,3 7.5,3.504 7.5,4.126125 L5.25,4.126125 C4.008,4.126125 3,5.133 3,6.375 L3,17.625 C3,18.868125 4.008,19.875 5.25,19.875 L18.75,19.875 C19.992,19.875 21,18.868125 21,17.625 L21,6.375 C21,5.133 19.992,4.126125 18.75,4.126125 L18.75,4.126125 Z M18.75,17.625 L5.25,17.625 L5.25,6.375 L7.5,6.375 C7.5,6.997125 8.004,7.5 8.625,7.5 C9.246,7.5 9.75,6.997125 9.75,6.375 L14.25,6.375 C14.25,6.997125 14.752875,7.5 15.375,7.5 C15.997125,7.5 16.5,6.997125 16.5,6.375 L18.75,6.375 L18.75,17.625 L18.75,17.625 Z M15.375,9.75 C14.752875,9.75 14.25,10.252875 14.25,10.875 C14.25,11.497125 14.752875,12 15.375,12 C15.997125,12 16.5,11.497125 16.5,10.875 C16.5,10.252875 15.997125,9.75 15.375,9.75 L15.375,9.75 Z M12,9.75 C11.379,9.75 10.875,10.252875 10.875,10.875 C10.875,11.497125 11.379,12 12,12 C12.621,12 13.125,11.497125 13.125,10.875 C13.125,10.252875 12.621,9.75 12,9.75 L12,9.75 Z M15.375,13.125 C14.752875,13.125 14.25,13.627875 14.25,14.25 C14.25,14.872125 14.752875,15.375 15.375,15.375 C15.997125,15.375 16.5,14.872125 16.5,14.25 C16.5,13.627875 15.997125,13.125 15.375,13.125 L15.375,13.125 Z"/>
</svg>
