<?xml version="1.0" encoding="UTF-8" standalone="no"?>
<svg width="32px" height="32px" viewBox="0 0 32 32" version="1.1" xmlns="http://www.w3.org/2000/svg" xmlns:xlink="http://www.w3.org/1999/xlink">
    <!-- Generator: Sketch 3.8.3 (29802) - http://www.bohemiancoding.com/sketch -->
    <title>icons/topic/type_info_32_col</title>
    <desc>Created with Sketch.</desc>
    <defs></defs>
    <g id="Symbols" stroke="none" stroke-width="1" fill="none" fill-rule="evenodd">
        <g id="icons/topic/type_info_32_col">
            <path d="M16,6 C10.477,6 6,10.483 6,16.014 C6,21.544 10.477,26.028 16,26.028 C21.523,26.028 26,21.544 26,16.014 C26,10.483 21.523,6 16,6 M16,7 C20.963,7 25,11.044 25,16.014 C25,20.984 20.963,25.028 16,25.028 C11.037,25.028 7,20.984 7,16.014 C7,11.044 11.037,7 16,7" id="Fill-2" fill="#7DB5E6"></path>
            <path d="M16,9.3333 C14.895,9.3333 14,10.2303 14,11.3363 C14,12.4423 14.895,13.3393 16,13.3393 C17.105,13.3393 18,12.4423 18,11.3363 C18,10.2303 17.105,9.3333 16,9.3333 M16,10.3763 C16.527,10.3763 16.957,10.8073 16.957,11.3363 C16.957,11.8653 16.527,12.2953 16,12.2953 C15.473,12.2953 15.043,11.8653 15.043,11.3363 C15.043,10.8073 15.473,10.3763 16,10.3763" id="Fill-4" fill="#7DB5E6"></path>
            <path d="M16,14.6667 L16,21.9997" id="Stroke-6" stroke="#7DB5E6"></path>
        </g>
    </g>
</svg>