<?xml version="1.0" encoding="UTF-8" standalone="no"?>
<svg width="24px" height="24px" viewBox="0 0 24 24" version="1.1" xmlns="http://www.w3.org/2000/svg" xmlns:xlink="http://www.w3.org/1999/xlink">
    <!-- Generator: Sketch 40.3 (33839) - http://www.bohemiancoding.com/sketch -->
    <title>sharing/Icons black/24/twitter Copy</title>
    <desc>Created with Sketch.</desc>
    <defs>
        <rect id="path-1" x="0" y="0" width="24" height="24"></rect>
        <mask id="mask-2" maskContentUnits="userSpaceOnUse" maskUnits="objectBoundingBox" x="0" y="0" width="24" height="24" fill="white">
            <use xlink:href="#path-1"></use>
        </mask>
    </defs>
    <g id="Symbols" stroke="none" stroke-width="1" fill="none" fill-rule="evenodd">
        <g id="sharing/Icons-black/24/twitter-Copy">
            <path d="M22.4601185,6.05682513 C21.7437428,6.37548457 20.9726356,6.58954587 20.1650407,6.68806272 C20.9908795,6.19426222 21.6233334,5.40855993 21.9225327,4.47933928 C21.148993,4.93665206 20.2951803,5.26747407 19.3878523,5.44869643 C18.6568816,4.67150795 17.6206302,4.1874375 16.4724833,4.1874375 C14.2686248,4.1874375 12.4807265,5.97655214 12.4807265,8.18041055 C12.4807265,8.49177245 12.5159979,8.79826932 12.5841083,9.09017109 C9.26615814,8.92111131 6.32403148,7.3338954 4.35491075,4.9184082 C4.0107099,5.50464427 3.8136762,6.1918297 3.8136762,6.92158414 C3.8136762,8.30811758 4.5191055,9.52924002 5.58941201,10.2456156 C4.93506553,10.2249392 4.31963928,10.0449332 3.78083725,9.74573383 L3.78083725,9.79681664 C3.78083725,11.7318822 5.15764063,13.3446395 6.983243,13.7119492 C6.64877221,13.8031685 6.29605756,13.8518188 5.9323966,13.8518188 C5.67576629,13.8518188 5.42521726,13.8274937 5.18074952,13.7800596 C5.68792886,15.3672756 7.16324909,16.5215038 8.90979472,16.5519103 C7.54393766,17.623433 5.82171718,18.2619682 3.95232955,18.2619682 C3.63002133,18.2619682 3.31257815,18.2425081 3,18.2048041 C4.76722201,19.338356 6.86526603,20 9.12020725,20 C16.4639695,20 20.4800514,13.9162805 20.4800514,8.6389396 C20.4800514,8.46501479 20.4764026,8.29352249 20.4691051,8.12081394 C21.2487261,7.56011928 21.9261815,6.8571225 22.4601185,6.05682513" id="Page-1" fill="#1E1E1E"></path>
            <use id="Rectangle-2" stroke="#979797" mask="url(#mask-2)" stroke-width="2" opacity="0" xlink:href="#path-1"></use>
        </g>
    </g>
</svg>