<?xml version="1.0" encoding="UTF-8" standalone="no"?>
<svg width="28px" height="28px" viewBox="0 0 28 28" version="1.1" xmlns="http://www.w3.org/2000/svg" xmlns:xlink="http://www.w3.org/1999/xlink">
    <!-- Generator: Sketch 40.1 (33804) - http://www.bohemiancoding.com/sketch -->
    <title>icons orange/32/share</title>
    <desc>Created with Sketch.</desc>
    <defs></defs>
    <g id="Symbols" stroke="none" stroke-width="1" fill="none" fill-rule="evenodd">
        <g id="bars/m/single_c" transform="translate(-680.000000, -10.000000)" fill="#E86500">
            <g id="menu/Icons-black/32/share" transform="translate(678.000000, 8.000000)">
                <path d="M16,2 C8.26760784,2 2,8.26760784 2,16 C2,23.7323922 8.26760784,30 16,30 C23.7323922,30 30,23.7323922 30,16 C30,8.26760784 23.7323922,2 16,2 L16,2 Z M16,3.64705882 C22.8111373,3.64705882 28.3529412,9.18886275 28.3529412,16 C28.3529412,22.8111373 22.8111373,28.3529412 16,28.3529412 C9.18886275,28.3529412 3.64705882,22.8111373 3.64705882,16 C3.64705882,9.18886275 9.18886275,3.64705882 16,3.64705882 L16,3.64705882 Z" id="Fill-3"></path>
                <path d="M20,20.1364462 C19.24,20.1364462 18.56,20.437651 18.04,20.9095386 L10.91,16.7428719 C10.96,16.5119482 11,16.2810245 11,16.0400606 C11,15.7990968 10.96,15.5681731 10.91,15.3372494 L17.96,11.2107434 C18.5,11.7127514 19.21,12.0239964 20,12.0239964 C21.66,12.0239964 23,10.6786149 23,9.01194819 C23,7.34528153 21.66,5.9999 20,5.9999 C18.34,5.9999 17,7.34528153 17,9.01194819 C17,9.25291205 17.04,9.48383574 17.09,9.71475944 L10.04,13.8412655 C9.5,13.3392574 8.79,13.0280124 8,13.0280124 C6.34,13.0280124 5,14.373394 5,16.0400606 C5,17.7067273 6.34,19.0521088 8,19.0521088 C8.79,19.0521088 9.5,18.7408639 10.04,18.2388558 L17.16,22.4155627 C17.11,22.626406 17.08,22.8472896 17.08,23.0681731 C17.08,24.684639 18.39,25.9999 20,25.9999 C21.61,25.9999 22.92,24.684639 22.92,23.0681731 C22.92,21.4517072 21.61,20.1364462 20,20.1364462 L20,20.1364462 Z" id="Shape"></path>
            </g>
        </g>
    </g>
</svg>