<?xml version="1.0" encoding="UTF-8" standalone="no"?>
<svg width="28px" height="28px" viewBox="0 0 28 28" version="1.1" xmlns="http://www.w3.org/2000/svg" xmlns:xlink="http://www.w3.org/1999/xlink">
    <!-- Generator: Sketch 40.1 (33804) - http://www.bohemiancoding.com/sketch -->
    <title>icons orange/32/print</title>
    <desc>Created with Sketch.</desc>
    <defs></defs>
    <g id="Symbols" stroke="none" stroke-width="1" fill="none" fill-rule="evenodd">
        <g id="bars/m/single_c" transform="translate(-724.000000, -10.000000)" fill="#E86500">
            <g id="menu/Icons-black/32/print" transform="translate(722.000000, 8.000000)">
                <path d="M23,19 L9,19 C7.3,19 6,17.7 6,16 L6,10 L10,10 L10,6 L22,6 L22,10 L26,10 L26,16 C26,17.7 24.7,19 23,19 L23,19 Z M20,8 L12,8 L12,13 L20,13 L20,8 L20,8 Z M23,15 C22.4,15 22,15.4 22,16 C22,16.6 22.4,17 23,17 C23.6,17 24,16.6 24,16 C24,15.4 23.6,15 23,15 L23,15 Z M22,24 L10,24 L10,20 L22,20 L22,24 L22,24 Z" id="Shape" transform="translate(16.000000, 15.000000) scale(1, -1) translate(-16.000000, -15.000000) "></path>
                <path d="M16,2 C8.26760784,2 2,8.26760784 2,16 C2,23.7323922 8.26760784,30 16,30 C23.7323922,30 30,23.7323922 30,16 C30,8.26760784 23.7323922,2 16,2 L16,2 Z M16,3.64705882 C22.8111373,3.64705882 28.3529412,9.18886275 28.3529412,16 C28.3529412,22.8111373 22.8111373,28.3529412 16,28.3529412 C9.18886275,28.3529412 3.64705882,22.8111373 3.64705882,16 C3.64705882,9.18886275 9.18886275,3.64705882 16,3.64705882 L16,3.64705882 Z" id="Fill-3"></path>
            </g>
        </g>
    </g>
</svg>