<?xml version="1.0" encoding="UTF-8" standalone="no"?>
<svg width="48px" height="48px" viewBox="0 0 48 48" version="1.1" xmlns="http://www.w3.org/2000/svg" xmlns:xlink="http://www.w3.org/1999/xlink">
    <!-- Generator: Sketch 40.1 (33804) - http://www.bohemiancoding.com/sketch -->
    <title>topic/white_48/education</title>
    <desc>Created with Sketch.</desc>
    <defs></defs>
    <g id="Symbols" stroke="none" stroke-width="1" fill="none" fill-rule="evenodd">
        <g id="topic/white_48/education" fill="#FFFFFF">
            <path d="M8.5,34.5 L8.5,12 L20.5,12 C22.087,12 23.475,12.826 24.275,14.066 C25.076,12.836 26.422,12 28,12 L40,12 L40,34.5 L28,34.5 C26.343,34.5 25,35.843 25,37.5 L23.5,37.5 C23.5,35.843 22.157,34.5 20.5,34.5 L8.5,34.5 Z M25,34.168 C25.797,33.45 26.842,33 28,33 L38.5,33 L38.5,13.5 L28,13.5 C26.343,13.5 25,14.843 25,16.5 L25,34.168 Z M10,33 L20.5,33 C21.658,33 22.703,33.45 23.5,34.168 L23.5,16.5 C23.5,14.843 22.157,13.5 20.5,13.5 L10,13.5 L10,33 Z" id="Fill-2"></path>
        </g>
    </g>
</svg>