<?xml version="1.0" encoding="UTF-8" standalone="no"?>
<svg width="32px" height="32px" viewBox="0 0 32 32" version="1.1" xmlns="http://www.w3.org/2000/svg" xmlns:xlink="http://www.w3.org/1999/xlink">
    <!-- Generator: Sketch 3.8.3 (29802) - http://www.bohemiancoding.com/sketch -->
    <title>icons/nav/nav_lang</title>
    <desc>Created with Sketch.</desc>
    <defs></defs>
    <g id="Symbols" stroke="none" stroke-width="1" fill="none" fill-rule="evenodd">
        <g id="icons/nav/nav_lang">
            <path d="M15.75,3 C8.708,3 3,8.708 3,15.75 C3,22.792 8.708,28.5 15.75,28.5 C22.792,28.5 28.5,22.792 28.5,15.75 C28.5,8.708 22.792,3 15.75,3 L15.75,3 Z M15.75,4.5 C21.953,4.5 27,9.547 27,15.75 C27,21.953 21.953,27 15.75,27 C9.547,27 4.5,21.953 4.5,15.75 C4.5,9.547 9.547,4.5 15.75,4.5 L15.75,4.5 Z" id="Fill-3" fill="#000000"></path>
            <polygon id="Fill-5" fill="#000000" points="4 16.5 27.5 16.5 27.5 15 4 15"></polygon>
            <polygon id="Fill-7" fill="#000000" points="15 27.5 16.5 27.5 16.5 4 15 4"></polygon>
            <path d="M7.5,6.5 C8.711,8.528 11.496,9.75 15.75,9.75 C20.004,9.75 22.789,8.528 24,6.5" id="Stroke-8" stroke="#000000" stroke-width="1.5"></path>
            <path d="M7.5,25 C8.711,22.972 11.496,21.75 15.75,21.75 C20.004,21.75 22.789,22.972 24,25" id="Stroke-9" stroke="#000000" stroke-width="1.5"></path>
            <path d="M15.75,3 C12.022,3 9,8.708 9,15.75 C9,22.792 12.022,28.5 15.75,28.5 C19.478,28.5 22.5,22.792 22.5,15.75 C22.5,8.708 19.478,3 15.75,3 M15.75,4.5 C18.233,4.5 21,9.12 21,15.75 C21,22.38 18.233,27 15.75,27 C13.267,27 10.5,22.38 10.5,15.75 C10.5,9.12 13.267,4.5 15.75,4.5" id="Fill-10" fill="#000000"></path>
        </g>
    </g>
</svg>