<?xml version="1.0" encoding="UTF-8" standalone="no"?>
<svg width="20px" height="20px" viewBox="0 0 20 20" version="1.1" xmlns="http://www.w3.org/2000/svg" xmlns:xlink="http://www.w3.org/1999/xlink">
    <!-- Generator: Sketch 39.1 (31720) - http://www.bohemiancoding.com/sketch -->
    <title>glyphs/Icons orange/24/edit</title>
    <desc>Created with Sketch.</desc>
    <defs></defs>
    <g id="Single" stroke="none" stroke-width="1" fill="none" fill-rule="evenodd">
        <g id="m/single" transform="translate(-404.000000, -1098.000000)" fill="#E86500">
            <g id="nav/Icons-black/24/edit" transform="translate(402.000000, 1096.000000)">
                <path d="M20.1888215,7.82257703 C19.6814724,6.98395882 19.0562393,6.16324703 18.2922312,5.40222338 C17.5177777,4.63523092 16.6836361,4.00402895 15.8300959,3.49966425 L17.3297601,2 C17.3297601,2 19.4994236,2 20.5857476,3.08483175 C21.6690871,4.17115571 21.6690871,6.34081922 21.6690871,6.34081922 L20.1888215,7.82257703 L20.1888215,7.82257703 Z M6.93358017,22 L2.40026673,22 L2.40026673,17.4666866 L2.94492091,16.9220324 C3.86710251,17.3547713 4.7818231,17.9695591 5.60701149,18.7947474 C6.43219988,19.6184436 7.04549541,20.5361486 7.47972655,21.456838 L6.93358017,22 L6.93358017,22 Z M18.7055715,9.3267179 L8.44667425,19.7796016 C7.9169421,18.9021861 7.26484929,18.0471536 6.46502835,17.2533015 C5.6562542,16.4504962 4.78480751,15.7909423 3.89246997,15.2641946 L14.3647523,4.98440648 C15.2466444,5.40073118 16.1240599,5.98567485 16.9134354,6.77654257 C17.7028109,7.56741028 18.2892468,8.44184138 18.7055715,9.3267179 L18.7055715,9.3267179 Z" id="Shape"></path>
            </g>
        </g>
    </g>
</svg>