<?xml version="1.0" encoding="UTF-8" standalone="no"?>
<svg width="24px" height="24px" viewBox="0 0 24 24" version="1.1" xmlns="http://www.w3.org/2000/svg" xmlns:xlink="http://www.w3.org/1999/xlink">
    <!-- Generator: Sketch 40.3 (33839) - http://www.bohemiancoding.com/sketch -->
    <title>Sharing/Icons black/24/facebook Copy</title>
    <desc>Created with Sketch.</desc>
    <defs>
        <rect id="path-1" x="0" y="0" width="24" height="24"></rect>
        <mask id="mask-2" maskContentUnits="userSpaceOnUse" maskUnits="objectBoundingBox" x="0" y="0" width="24" height="24" fill="white">
            <use xlink:href="#path-1"></use>
        </mask>
    </defs>
    <g id="Symbols" stroke="none" stroke-width="1" fill="none" fill-rule="evenodd">
        <g id="Sharing/Icons-black/24/facebook-Copy">
            <path d="M18.975,13.21875 L16.22875,13.21875 L16.22875,20.5725 L13.42875,20.5725 L13.42875,13.21875 L11.48375,13.21875 L11.48375,10.57125 L13.4275,10.57125 L13.4275,8.31 C13.4275,6.5325 14.5775,4.9 17.22375,4.9 C18.2925,4.9 19.08625,5.00375 19.08625,5.00375 L19.0225,7.475 C19.0225,7.475 18.215,7.4675 17.3325,7.4675 C16.3775,7.4675 16.22625,7.9075 16.22625,8.6375 L16.22625,8.7625 L16.22625,10.57125 L19.0975,10.57125 L18.975,13.21875 Z M20.8575,2 L3.1425,2 C2.515,2 2,2.515 2,3.1425 L2,20.8575 C2,21.485 2.515,22 3.1425,22 L20.8575,22 C21.485,22 22,21.485 22,20.8575 L22,3.1425 C22,2.515 21.485,2 20.8575,2 L20.8575,2 Z" id="Page-1" fill="#1E1E1E"></path>
            <use id="Rectangle-2" stroke="#979797" mask="url(#mask-2)" stroke-width="2" opacity="0" xlink:href="#path-1"></use>
        </g>
    </g>
</svg>