<?xml version="1.0" encoding="UTF-8" standalone="no"?>
<svg width="48px" height="48px" viewBox="0 0 48 48" version="1.1" xmlns="http://www.w3.org/2000/svg" xmlns:xlink="http://www.w3.org/1999/xlink">
    <!-- Generator: Sketch 40.1 (33804) - http://www.bohemiancoding.com/sketch -->
    <title>topic/black_48/law</title>
    <desc>Created with Sketch.</desc>
    <defs></defs>
    <g id="Symbols" stroke="none" stroke-width="1" fill="none" fill-rule="evenodd">
        <g id="topic/black_48/law" stroke="#1E1E1E" stroke-width="1.5">
            <g id="Page-1" transform="translate(18.000000, 9.000000)">
                <path d="M1.538,15.78 L8.432,22.674" id="Stroke-1"></path>
                <path d="M8.962,14.72 L2.068,7.826" id="Stroke-7"></path>
                <path d="M2.068,22.675 C0.311,24.432 0.311,27.281 2.068,29.039 C3.825,30.796 6.675,30.796 8.432,29.039 C10.19,27.281 10.19,24.432 8.432,22.675" id="Stroke-2"></path>
                <path d="M1.538,9.417 C-0.219,11.174 -0.219,14.024 1.538,15.781" id="Stroke-4"></path>
                <path d="M8.432,7.825 C10.19,6.068 10.19,3.218 8.432,1.461 C6.675,-0.296 3.828,-0.296 2.068,1.461 C0.311,3.218 0.311,6.068 2.068,7.825" id="Stroke-8"></path>
                <path d="M8.962,21.084 C10.721,19.326 10.721,16.477 8.962,14.72" id="Stroke-10"></path>
                <path d="M1.538,9.417 L2.599,8.355" id="Stroke-13"></path>
                <path d="M7.9,22.145 L8.963,21.083" id="Stroke-14"></path>
            </g>
        </g>
    </g>
</svg>