<?xml version="1.0" encoding="UTF-8" standalone="no"?>
<svg width="48px" height="48px" viewBox="0 0 48 48" version="1.1" xmlns="http://www.w3.org/2000/svg" xmlns:xlink="http://www.w3.org/1999/xlink">
    <!-- Generator: Sketch 3.8.3 (29802) - http://www.bohemiancoding.com/sketch -->
    <title>icons/topic/type_event_48_white</title>
    <desc>Created with Sketch.</desc>
    <defs></defs>
    <g id="Symbols" stroke="none" stroke-width="1" fill="none" fill-rule="evenodd">
        <g id="icons/topic/type_event_48_white" fill="#FFFFFF">
            <polygon id="Fill-2" points="11.5 13.5 37 13.5 37 12 11.5 12"></polygon>
            <polygon id="Fill-3" points="11.5 21.5 37 21.5 37 20 11.5 20"></polygon>
            <polygon id="Fill-4" points="11.5 29.5 37 29.5 37 28 11.5 28"></polygon>
            <polygon id="Fill-5" points="11.5 37.5 37 37.5 37 36 11.5 36"></polygon>
            <polygon id="Fill-6" points="11.5 37.5 13 37.5 13 12 11.5 12"></polygon>
            <polygon id="Fill-7" points="19.5 37.5 21 37.5 21 12 19.5 12"></polygon>
            <polygon id="Fill-8" points="27.5 37.5 29 37.5 29 12 27.5 12"></polygon>
            <polygon id="Fill-9" points="35.5 37.5 37 37.5 37 12 35.5 12"></polygon>
        </g>
    </g>
</svg>