<?xml version="1.0" encoding="UTF-8" standalone="no"?>
<svg width="48px" height="48px" viewBox="0 0 48 48" version="1.1" xmlns="http://www.w3.org/2000/svg" xmlns:xlink="http://www.w3.org/1999/xlink">
    <!-- Generator: Sketch 40.1 (33804) - http://www.bohemiancoding.com/sketch -->
    <title>topic/white_48/information</title>
    <desc>Created with Sketch.</desc>
    <defs>
        <rect id="path-1" x="0" y="0" width="46.5" height="46.5"></rect>
        <rect id="path-3" x="0" y="0" width="46.5" height="46.5"></rect>
    </defs>
    <g id="Symbols" stroke="none" stroke-width="1" fill="none" fill-rule="evenodd">
        <g id="topic/white_48/information">
            <g id="icon_information_b">
                <g id="Layer_1">
                    <g id="Group">
                        <g id="Clipped">
                            <mask id="mask-2" fill="white">
                                <use xlink:href="#path-1"></use>
                            </mask>
                            <g id="SVGID_1_"></g>
                            <circle id="Oval" stroke="#FFFFFF" stroke-width="1.5" mask="url(#mask-2)" cx="23.25" cy="12" r="3.75"></circle>
                        </g>
                        <g id="Clipped">
                            <mask id="mask-4" fill="white">
                                <use xlink:href="#path-3"></use>
                            </mask>
                            <g id="SVGID_3_"></g>
                            <path d="M25.5,36 C25.5,36.828 24.828,37.5 24,37.5 L22.5,37.5 C21.672,37.5 21,36.828 21,36 L21,22.5 C21,21.672 21.672,21 22.5,21 L24,21 C24.828,21 25.5,21.672 25.5,22.5 L25.5,36 L25.5,36 Z M27,36 L27,22.5 C27,20.843 25.657,19.5 24,19.5 L22.5,19.5 C20.843,19.5 19.5,20.843 19.5,22.5 L19.5,36 C19.5,37.657 20.843,39 22.5,39 L24,39 C25.657,39 27,37.657 27,36 L27,36 Z" id="Shape" fill="#FFFFFF" mask="url(#mask-4)"></path>
                        </g>
                    </g>
                </g>
            </g>
        </g>
    </g>
</svg>