<?xml version="1.0" encoding="UTF-8"?>
<svg width="24px" height="24px" viewBox="0 0 24 24" version="1.1" xmlns="http://www.w3.org/2000/svg" xmlns:xlink="http://www.w3.org/1999/xlink">
    <!-- Generator: Sketch 44.1 (41455) - http://www.bohemiancoding.com/sketch -->
    <title>icon-category-counseling</title>
    <desc>Created with Sketch.</desc>
    <defs></defs>
    <g id="Symbols" stroke="none" stroke-width="1" fill="none" fill-rule="evenodd">
        <g id="icon-category-counseling" fill="#000000">
            <path d="M12.5,3 C11.122,3 10,4.121 10,5.5 C10,6.878 11.122,8 12.5,8 C13.878,8 15,6.878 15,5.5 C15,4.121 13.878,3 12.5,3 Z M12.5,9 C10.567,9 9,7.433 9,5.5 C9,3.567 10.567,2 12.5,2 C14.433,2 16,3.567 16,5.5 C16,7.433 14.433,9 12.5,9 Z" id="Fill-2"></path>
            <path d="M11,21 L14,21 L14,12 L11,12 L11,21 Z M15,21 L15,11 L8,11 L8,12 L10,12 L10,21 L8,21 L8,22 L17,22 L17,21 L15,21 Z" id="Fill-4"></path>
        </g>
    </g>
</svg>