<?xml version="1.0" encoding="UTF-8"?>
<svg width="24px" height="24px" viewBox="0 0 24 24" version="1.1" xmlns="http://www.w3.org/2000/svg" xmlns:xlink="http://www.w3.org/1999/xlink">
    <!-- Generator: Sketch 44.1 (41455) - http://www.bohemiancoding.com/sketch -->
    <title>icon-category-mobility</title>
    <desc>Created with Sketch.</desc>
    <defs></defs>
    <g id="Symbols" stroke="none" stroke-width="1" fill="none" fill-rule="evenodd">
        <g id="icon-category-mobility" fill="#000000">
            <path d="M21.95,18 C21.718,16.859 20.71,16 19.5,16 C18.291,16 17.283,16.859 17.051,18 L16,18 L16,12 L23,12 L23,18 L21.95,18 Z M19.5,20 C18.673,20 18,19.327 18,18.5 C18,17.673 18.673,17 19.5,17 C20.328,17 21,17.673 21,18.5 C21,19.327 20.328,20 19.5,20 L19.5,20 Z M15,12 L15,18 L6.95,18 C6.718,16.859 5.71,16 4.5,16 C3.291,16 2.283,16.859 2.051,18 L1,18 L1,12 L15,12 Z M4.5,20 C3.673,20 3,19.327 3,18.5 C3,17.673 3.673,17 4.5,17 C5.328,17 6,17.673 6,18.5 C6,19.327 5.328,20 4.5,20 L4.5,20 Z M1,11 L5,11 L5,5.004 L1,5.004 L1,11 Z M6,11 L10,11 L10,5.004 L6,5.004 L6,11 Z M11,11 L15,11 L15,5.004 L11,5.004 L11,11 Z M16,5.004 L20.233,5.004 L22.902,11 L16,11 L16,5.004 Z M0,4 L0,19 L2.051,19 C2.283,20.141 3.291,21 4.5,21 C5.71,21 6.718,20.141 6.95,19 L17.051,19 C17.283,20.141 18.291,21 19.5,21 C20.71,21 21.718,20.141 21.95,19 L24,19 L24,11 L23.997,11 L20.881,4.002 L0,4 Z" id="Fill-2"></path>
        </g>
    </g>
</svg>