<?xml version="1.0" encoding="UTF-8"?>
<svg width="24px" height="24px" viewBox="0 0 24 24" version="1.1" xmlns="http://www.w3.org/2000/svg" xmlns:xlink="http://www.w3.org/1999/xlink">
    <!-- Generator: Sketch 44.1 (41455) - http://www.bohemiancoding.com/sketch -->
    <title>icon-category-care</title>
    <desc>Created with Sketch.</desc>
    <defs></defs>
    <g id="Symbols" stroke="none" stroke-width="1" fill="none" fill-rule="evenodd">
        <g id="icon-category-care" fill="#000000">
            <path d="M16.9498,16.0707 C17.3398,16.4607 17.3398,17.0947 16.9498,17.4847 C16.5598,17.8747 15.9258,17.8747 15.5358,17.4847 L11.9998,13.9497 L11.2928,14.6567 L14.8288,18.1917 C15.2188,18.5817 15.2188,19.2167 14.8288,19.6067 C14.4388,19.9957 13.8038,19.9957 13.4138,19.6067 L9.8788,16.0707 L9.1718,16.7777 L12.7068,20.3137 C13.0968,20.7037 13.0968,21.3377 12.7068,21.7277 C12.3168,22.1177 11.6828,22.1177 11.2928,21.7277 L2.8078,13.2427 C0.4678,10.9027 0.4678,7.0967 2.8078,4.7567 C5.1468,2.4177 8.9538,2.4177 11.2928,4.7567 L7.4038,8.6457 C6.8178,9.2317 6.8178,10.1817 7.4038,10.7677 C7.4768,10.8407 7.5558,10.9047 7.6388,10.9597 C9.0148,12.1147 11.0598,12.0607 12.3538,10.7677 L14.1218,8.9997 L19.0708,13.9497 C19.4608,14.3397 19.4608,14.9737 19.0708,15.3637 C18.6808,15.7537 18.0468,15.7537 17.6568,15.3637 L14.1218,11.8277 L13.4138,12.5347 L16.9498,16.0707 Z M21.1928,4.7567 C23.5318,7.0967 23.5318,10.9027 21.1928,13.2427 C21.1908,13.2437 21.1898,13.2447 21.1888,13.2457 L21.1888,13.2457 L20.2888,14.1457 C20.2018,13.8157 20.0368,13.5007 19.7778,13.2427 L15.4788,8.9427 C16.3928,8.9617 17.3118,8.6377 18.0108,7.9387 C18.1318,7.8177 18.2318,7.6857 18.3318,7.5527 L17.6178,6.8397 C17.5268,6.9777 17.4248,7.1107 17.3038,7.2317 C16.4498,8.0857 15.1278,8.1917 14.1568,7.5497 L14.1218,7.5857 L13.4498,8.2567 L13.4138,8.2927 L11.6468,10.0607 C10.7298,10.9767 9.2838,11.0347 8.2828,10.1937 L8.2378,10.1567 L8.1898,10.1247 C8.1618,10.1067 8.1358,10.0847 8.1108,10.0607 C7.9158,9.8657 7.9158,9.5477 8.1108,9.3527 L8.4648,8.9997 L8.8178,8.6457 L9.5248,7.9387 L12.7068,4.7567 C15.0468,2.4177 18.8528,2.4177 21.1928,4.7567 L21.1928,4.7567 Z M21.8998,4.0497 C19.1658,1.3167 14.7338,1.3157 11.9998,4.0497 C9.2668,1.3157 4.8338,1.3167 2.1008,4.0497 C-0.6332,6.7837 -0.6332,11.2157 2.1008,13.9497 L10.5858,22.4347 C11.3668,23.2157 12.6328,23.2157 13.4138,22.4347 C13.8388,22.0097 14.0248,21.4417 13.9868,20.8867 C14.5428,20.9237 15.1108,20.7377 15.5358,20.3137 C15.9608,19.8887 16.1458,19.3207 16.1088,18.7647 C16.6638,18.8027 17.2318,18.6167 17.6568,18.1917 C18.0818,17.7667 18.2668,17.1997 18.2298,16.6437 C18.7828,16.6807 19.3468,16.4967 19.7708,16.0767 L19.7718,16.0767 L21.8998,13.9497 C24.6328,11.2157 24.6328,6.7837 21.8998,4.0497 L21.8998,4.0497 Z" id="Fill-2"></path>
        </g>
    </g>
</svg>