<?xml version="1.0" encoding="UTF-8"?>
<svg width="24px" height="24px" viewBox="0 0 24 24" version="1.1" xmlns="http://www.w3.org/2000/svg" xmlns:xlink="http://www.w3.org/1999/xlink">
    <!-- Generator: Sketch 44.1 (41455) - http://www.bohemiancoding.com/sketch -->
    <title>icon-category-sport</title>
    <desc>Created with Sketch.</desc>
    <defs></defs>
    <g id="Symbols" stroke="none" stroke-width="1" fill="none" fill-rule="evenodd">
        <g id="icon-category-sport" fill="#000000">
            <path d="M5.7006,7.6002 L6.2996,8.4002 L10.0596,5.5812 L12.0506,6.5222 L8.3066,12.1392 L9.1386,12.6932 L9.1426,12.6892 L15.1026,16.5642 L12.7596,22.8252 L13.6966,23.1742 L16.3206,16.1632 L12.7196,13.8232 L15.9506,8.9742 L17.0406,12.0002 L21.9996,12.0002 L21.9996,11.0002 L17.7446,11.0002 L16.4866,7.5132 L9.9406,4.4182 L5.7006,7.6002 Z M9.6966,11.8572 L12.9646,6.9542 L15.3456,8.0792 L11.8806,13.2772 L9.6966,11.8572 Z" id="Fill-2"></path>
            <polygon id="Fill-3" points="7.2168 16 1.9998 16 1.9998 17 7.7828 17 9.4288 14.257 8.5708 13.743"></polygon>
            <path d="M16,3 C16.552,3 17,3.449 17,4 C17,4.551 16.552,5 16,5 C15.448,5 15,4.551 15,4 C15,3.449 15.448,3 16,3 M16,6 C17.103,6 18,5.103 18,4 C18,2.897 17.103,2 16,2 C14.897,2 14,2.897 14,4 C14,5.103 14.897,6 16,6" id="Fill-4"></path>
            <path d="M19,22 C18.448,22 18,21.552 18,21 C18,20.448 18.448,20 19,20 C19.552,20 20,20.448 20,21 C20,21.552 19.552,22 19,22 M19,19 C17.897,19 17,19.897 17,21 C17,22.103 17.897,23 19,23 C20.103,23 21,22.103 21,21 C21,19.897 20.103,19 19,19" id="Fill-6"></path>
        </g>
    </g>
</svg>