<?xml version="1.0" encoding="UTF-8"?>
<svg width="24px" height="24px" viewBox="0 0 24 24" version="1.1" xmlns="http://www.w3.org/2000/svg" xmlns:xlink="http://www.w3.org/1999/xlink">
    <!-- Generator: Sketch 44.1 (41455) - http://www.bohemiancoding.com/sketch -->
    <title>icon-category-culture</title>
    <desc>Created with Sketch.</desc>
    <defs></defs>
    <g id="Symbols" stroke="none" stroke-width="1" fill="none" fill-rule="evenodd">
        <g id="icon-category-culture" fill="#000000">
            <g id="Group-12" transform="translate(1.000000, 3.000000)">
                <path d="M4.5381,8 C5.1821,8.002 5.7481,8.232 6.1341,8.646 L6.8661,7.966 C6.2901,7.346 5.4651,7.003 4.5411,7 L4.5281,7 C3.5991,7 2.7051,7.359 2.1361,7.963 L2.8641,8.649 C3.2491,8.24 3.8611,7.969 4.5381,8" id="Fill-2"></path>
                <path d="M10.5381,8 C11.1821,8.002 11.7481,8.232 12.1341,8.646 L12.8661,7.966 C12.2911,7.346 11.4651,7.003 10.5411,7 L10.5281,7 C9.5991,7 8.7051,7.359 8.1361,7.963 L8.8641,8.649 C9.2491,8.24 9.9141,7.969 10.5381,8" id="Fill-4"></path>
                <path d="M3.1152,14.0127 C4.1732,15.2877 5.7022,15.9937 7.4222,15.9997 L7.4442,15.9997 C9.1772,15.9997 10.8352,15.2587 11.8822,14.0157 L11.1172,13.3707 C10.2582,14.3927 8.8862,14.9997 7.4442,14.9997 L7.4262,14.9997 C6.0082,14.9947 4.7502,14.4177 3.8852,13.3737 L3.1152,14.0127 Z" id="Fill-6"></path>
                <path d="M17.4717,6.0029 C18.4017,6.0029 19.2947,5.6439 19.8647,5.0399 L19.1357,4.3539 C18.7527,4.7609 18.1307,5.0029 17.4727,5.0029 L17.4627,5.0029 C16.8187,5.0009 16.2517,4.7709 15.8667,4.3569 L15.1337,5.0369 C15.7097,5.6569 16.5347,5.9999 17.4587,6.0029 L17.4717,6.0029 Z" id="Fill-8"></path>
                <path d="M21,9.5 C21,13.084 18.084,16 14.5,16 C14.378,16 14.26,15.988 14.14,15.982 L14.14,15.982 C14.687,14.941 15,13.758 15,12.5 L15,11.039 C16.24,11.149 17.339,11.684 18.115,12.619 L18.885,11.98 C17.915,10.811 16.546,10.128 15,10.017 L15,3 L8,3 L8,1 L21,1 L21,9.5 Z M14,12.5 C14,16.084 11.084,19 7.5,19 C3.916,19 1,16.084 1,12.5 L1,4 L14,4 L14,12.5 Z M7,0 L7,3 L0,3 L0,12.5 C0,16.642 3.358,20 7.5,20 C9.982,20 12.176,18.789 13.541,16.932 C13.855,16.972 14.174,17 14.5,17 C18.642,17 22,13.642 22,9.5 L22,0 L7,0 Z" id="Fill-10"></path>
            </g>
        </g>
    </g>
</svg>