<?xml version="1.0" encoding="UTF-8"?>
<svg width="24px" height="24px" viewBox="0 0 24 24" version="1.1" xmlns="http://www.w3.org/2000/svg" xmlns:xlink="http://www.w3.org/1999/xlink">
    <!-- Generator: Sketch 44.1 (41455) - http://www.bohemiancoding.com/sketch -->
    <title>icon-category-service</title>
    <desc>Created with Sketch.</desc>
    <defs></defs>
    <g id="Symbols" stroke="none" stroke-width="1" fill="none" fill-rule="evenodd">
        <g id="icon-category-service" fill="#000000">
            <path d="M19.7291,19.8272 C19.5071,20.0492 19.2611,20.0962 19.0931,20.0962 C18.8281,20.0962 18.5691,19.9832 18.3641,19.7782 L7.6151,9.0302 L7.0591,9.1762 C6.8021,9.2442 6.5371,9.2792 6.2711,9.2792 C5.4751,9.2792 4.7291,8.9722 4.1721,8.4142 C3.5571,7.7992 3.2591,6.9652 3.3071,6.1352 L4.9291,7.7572 L7.7571,4.9292 L6.1351,3.3072 C6.1941,3.3042 6.2531,3.3022 6.3121,3.3022 C7.1071,3.3022 7.8531,3.6112 8.4141,4.1722 C9.1701,4.9272 9.4551,6.0062 9.1771,7.0592 L9.0301,7.6152 L12.3541,10.9392 L12.3531,10.9392 L13.0601,11.6462 L13.0611,11.6462 L19.7781,18.3642 C20.1551,18.7402 20.1321,19.4242 19.7291,19.8272 L19.7291,19.8272 Z M5.6361,19.7782 C5.4471,19.9672 5.1961,20.0712 4.9291,20.0712 C4.6621,20.0712 4.4111,19.9672 4.2221,19.7782 C3.8321,19.3882 3.8321,18.7542 4.2211,18.3642 L7.7571,14.8282 L9.1711,16.2432 L5.6361,19.7782 Z M18.0001,4.7892 L19.6311,3.9742 L20.0261,4.3692 L19.2101,6.0002 L18.0001,6.0002 L18.0001,4.7892 Z M13.7681,10.9392 L17.7071,7.0002 L19.8281,7.0002 L21.2421,4.1712 L19.8281,2.7572 L17.0001,4.1712 L17.0001,6.2932 L13.0611,10.2322 L10.1431,7.3142 C10.4951,5.9832 10.1661,4.5092 9.1211,3.4652 C8.3441,2.6882 7.3291,2.3022 6.3121,2.3022 C5.6061,2.3022 4.9001,2.4882 4.2721,2.8572 L6.3431,4.9292 L4.9291,6.3432 L2.8571,4.2722 C1.9551,5.8052 2.1481,7.8052 3.4651,9.1212 C4.2411,9.8982 5.2551,10.2792 6.2711,10.2792 C6.6221,10.2792 6.9731,10.2342 7.3151,10.1432 L10.2321,13.0602 L8.8181,14.4752 L7.7571,13.4142 L3.5141,17.6572 L3.5141,17.6572 C2.7341,18.4382 2.7341,19.7042 3.5151,20.4852 C3.9051,20.8762 4.4171,21.0712 4.9291,21.0712 C5.4401,21.0712 5.9521,20.8762 6.3431,20.4852 L6.3431,20.4852 L10.5851,16.2432 L9.5251,15.1822 L10.9391,13.7672 L17.6571,20.4852 C18.0601,20.8882 18.5781,21.0962 19.0931,21.0962 C19.5771,21.0962 20.0581,20.9122 20.4361,20.5342 C21.2171,19.7532 21.2661,18.4382 20.4851,17.6572 L13.7681,10.9392 Z" id="Fill-2"></path>
        </g>
    </g>
</svg>