<?xml version="1.0" encoding="UTF-8"?><svg version="1.1" width="24px" height="24px" viewBox="0 0 24.0 24.0" xmlns="http://www.w3.org/2000/svg" xmlns:xlink="http://www.w3.org/1999/xlink"><defs><clipPath id="i0"><path d="M18.7749254,0 C19.4515154,1.67851043e-15 20,0.548484593 20,1.22507463 L20,15.4665672 C20,16.1431572 19.4515154,16.6916418 18.7749254,16.6916418 L1.22507463,16.6916418 C0.548484593,16.6916418 1.20630199e-15,16.1431572 0,15.4665672 L0,1.22507463 C-8.28583819e-17,0.548484593 0.548484593,1.24287573e-16 1.22507463,0 L18.7749254,0 Z"></path></clipPath><clipPath id="i1"><path d="M11.5498507,0 C12.9030308,-2.4857515e-16 14,1.09696921 14,2.4501493 L14,2.5498507 C14,3.90303079 12.9030308,5 11.5498507,5 L2.4501493,5 C1.09696921,5 1.65716767e-16,3.90303079 0,2.5498507 L0,2.4501493 C-1.65716767e-16,1.09696921 1.09696921,2.4857515e-16 2.4501493,0 L11.5498507,0 Z"></path></clipPath><clipPath id="i2"><path d="M0.5,0 C0.776142375,-5.07265313e-17 1,0.223857625 1,0.5 L1,4.5 C1,4.77614237 0.776142375,5 0.5,5 C0.223857625,5 3.38176876e-17,4.77614237 0,4.5 L0,0.5 C-3.38176876e-17,0.223857625 0.223857625,5.07265313e-17 0.5,0 Z"></path></clipPath><clipPath id="i3"><path d="M1.37820896,0 C2.13937274,0 2.75641791,0.617045167 2.75641791,1.37820896 C2.75641791,2.13937274 2.13937274,2.75641791 1.37820896,2.75641791 C0.617045167,2.75641791 0,2.13937274 0,1.37820896 C0,0.617045167 0.617045167,0 1.37820896,0 Z"></path></clipPath><clipPath id="i4"><path d="M1.37820896,0 C2.13937274,0 2.75641791,0.617045167 2.75641791,1.37820896 C2.75641791,2.13937274 2.13937274,2.75641791 1.37820896,2.75641791 C0.617045167,2.75641791 0,2.13937274 0,1.37820896 C0,0.617045167 0.617045167,0 1.37820896,0 Z"></path></clipPath><clipPath id="i5"><path d="M0.5,0 C0.776142375,-5.07265313e-17 1,0.223857625 1,0.5 L1,5.51599147 C1,5.79213385 0.776142375,6.01599147 0.5,6.01599147 C0.223857625,6.01599147 9.21996107e-16,5.79213385 0,5.51599147 L0,0.5 C-3.38176876e-17,0.223857625 0.223857625,5.07265313e-17 0.5,0 Z"></path></clipPath></defs><g transform="translate(2.0 0.8868230277187195)"><g transform="translate(0.0 5.1131769722812805)"><g clip-path="url(#i0)"><path d="M1.22507463,0 L18.7749254,0 C19.4515154,1.67851043e-15 20,0.548484593 20,1.22507463 L20,15.4665672 C20,16.1431572 19.4515154,16.6916418 18.7749254,16.6916418 L1.22507463,16.6916418 C0.548484593,16.6916418 1.20630199e-15,16.1431572 0,15.4665672 L0,1.22507463 C-8.28583819e-17,0.548484593 0.548484593,1.24287573e-16 1.22507463,0 Z" stroke="#000000" stroke-width="2" fill="none" stroke-miterlimit="5"></path></g></g><g transform="translate(3.0 14.11317697228128)"><g clip-path="url(#i1)"><path d="M2.4501493,0 L11.5498507,0 C12.9030308,-2.4857515e-16 14,1.09696921 14,2.4501493 L14,2.5498507 C14,3.90303079 12.9030308,5 11.5498507,5 L2.4501493,5 C1.09696921,5 1.65716767e-16,3.90303079 0,2.5498507 L0,2.4501493 C-1.65716767e-16,1.09696921 1.09696921,2.4857515e-16 2.4501493,0 Z" stroke="#000000" stroke-width="2" fill="none" stroke-miterlimit="5"></path></g><g transform="translate(4.39010151337925 0.0)"><g clip-path="url(#i2)"><polygon points="0,0 1,0 1,5 0,5 0,0" stroke="none" fill="#000000"></polygon></g><g transform="translate(4.2197969732415 0.0)"><g clip-path="url(#i2)"><polygon points="0,0 1,0 1,5 0,5 0,0" stroke="none" fill="#000000"></polygon></g></g></g></g><g transform="translate(3.5986567164181897 9.11317697228128)"><g clip-path="url(#i3)"><polygon points="0,0 2.75641791,0 2.75641791,2.75641791 0,2.75641791 0,0" stroke="none" fill="#000000"></polygon></g><g transform="translate(10.566268656716291 0.0)"><g clip-path="url(#i4)"><polygon points="0,0 2.75641791,0 2.75641791,2.75641791 0,2.75641791 0,0" stroke="none" fill="#000000"></polygon></g></g></g><g transform="translate(9.589818763325638 0.0)"><g clip-path="url(#i5)"><polygon points="0,0 1,0 1,6.01599147 0,6.01599147 0,0" stroke="none" fill="#000000"></polygon></g></g></g></svg>