<svg width="24px" height="24px" viewBox="0 0 24 24" version="1.1" xmlns="http://www.w3.org/2000/svg" xmlns:xlink="http://www.w3.org/1999/xlink">
  <g
     stroke-width="1"
     stroke="none"
     fill-rule="evenodd"
     fill="#000000">
    <path
       d="M 12 1 A 11 11 0 0 0 1 12 A 11 11 0 0 0 12 23 A 11 11 0 0 0 23 12 A 11 11 0 0 0 12 1 z M 11.998047 5.0273438 C 12.613284 5.0273438 13.166013 5.1035149 13.652344 5.2558594 C 14.138674 5.4082039 14.546873 5.6298814 14.880859 5.9199219 C 15.214845 6.2099624 15.471679 6.5693338 15.650391 7 C 15.829102 7.4306662 15.917969 7.9218723 15.917969 8.4726562 C 15.917969 8.8593769 15.861329 9.2089828 15.744141 9.5195312 C 15.626953 9.8300797 15.468751 10.121092 15.269531 10.396484 C 15.070311 10.671876 14.839845 10.938475 14.582031 11.193359 C 14.324217 11.448243 14.052736 11.70703 13.765625 11.970703 C 13.601562 12.123048 13.465821 12.27539 13.357422 12.427734 C 13.249023 12.580079 13.161133 12.739257 13.09375 12.90625 C 13.026367 13.073243 12.979492 13.252929 12.953125 13.443359 C 12.926758 13.63379 12.910156 13.843749 12.904297 14.072266 L 10.654297 14.072266 C 10.654297 13.673826 10.676758 13.317384 10.720703 13.003906 C 10.764649 12.690428 10.83789 12.400392 10.943359 12.136719 C 11.048829 11.873046 11.187499 11.629884 11.357422 11.404297 C 11.527345 11.17871 11.73828 10.951173 11.990234 10.722656 C 12.189454 10.546874 12.373046 10.375977 12.542969 10.208984 C 12.712891 10.041991 12.859374 9.8740243 12.982422 9.7070312 C 13.105469 9.5400382 13.202148 9.3642587 13.269531 9.1796875 C 13.336914 8.9951163 13.371094 8.7968761 13.371094 8.5859375 C 13.371094 8.0878881 13.254884 7.7167981 13.023438 7.4707031 C 12.791991 7.2246081 12.449221 7.1015625 11.998047 7.1015625 C 11.816405 7.1015625 11.639649 7.1298825 11.466797 7.1855469 C 11.293944 7.2412112 11.140626 7.3300775 11.005859 7.453125 C 10.871093 7.5761725 10.763672 7.7333975 10.681641 7.9238281 C 10.599609 8.1142588 10.554688 8.3417956 10.548828 8.6054688 L 8 8.6054688 C 8.0058594 7.9902313 8.1132802 7.4580101 8.3242188 7.0097656 C 8.5351573 6.5615212 8.8203107 6.1914077 9.1777344 5.8984375 C 9.535158 5.6054673 9.9560523 5.3857429 10.439453 5.2421875 C 10.922854 5.0986321 11.441403 5.0273438 11.998047 5.0273438 z M 11.824219 15.416016 C 12.041017 15.416016 12.236327 15.451171 12.412109 15.521484 C 12.587891 15.591797 12.738281 15.686523 12.861328 15.806641 C 12.984376 15.926758 13.079101 16.068359 13.146484 16.232422 C 13.213867 16.396485 13.246094 16.576171 13.246094 16.769531 C 13.246094 16.957032 13.213867 17.132812 13.146484 17.296875 C 13.079101 17.460938 12.984376 17.602538 12.861328 17.722656 C 12.738281 17.842774 12.587891 17.936523 12.412109 18.003906 C 12.236327 18.071289 12.041017 18.105469 11.824219 18.105469 C 11.607421 18.105469 11.410157 18.071289 11.234375 18.003906 C 11.058593 17.936523 10.908204 17.842774 10.785156 17.722656 C 10.662109 17.602538 10.567383 17.460938 10.5 17.296875 C 10.432617 17.132812 10.400391 16.957032 10.400391 16.769531 C 10.400391 16.576171 10.432617 16.396485 10.5 16.232422 C 10.567383 16.068359 10.662109 15.926758 10.785156 15.806641 C 10.908204 15.686523 11.058593 15.591797 11.234375 15.521484 C 11.410157 15.451171 11.607421 15.416016 11.824219 15.416016 z "
    />
  </g>
</svg>
