<?xml version="1.0" encoding="UTF-8"?>
<svg width="72px" height="32px" viewBox="0 0 72 32" version="1.1" xmlns="http://www.w3.org/2000/svg" xmlns:xlink="http://www.w3.org/1999/xlink">
    <g id="Alle-Seiten" stroke="none" stroke-width="1" fill="none" fill-rule="evenodd">
        <g id="-[48em]-Single-Copy-3" transform="translate(-222.000000, -660.000000)">
            <g id="translate_robot-copy-2" transform="translate(222.246000, 660.000000)">
                <g id="Robot" transform="translate(0.000000, 0.000000)">
                    <rect id="Rectangle" stroke="#000000" stroke-width="1.5" x="0.75" y="5.54187728" width="28.516" height="22.916" rx="1.792"></rect>
                    <rect id="Rectangle" fill="#000000" x="6.008" y="21" width="18" height="1.5" rx="0.75"></rect>
                    <g id="Group" transform="translate(5.264000, 10.615877)" fill="#000000">
                        <circle id="Oval" cx="2.5" cy="2.5" r="2.5"></circle>
                        <circle id="Oval-Copy" cx="17.956" cy="2.5" r="2.5"></circle>
                    </g>
                    <rect id="Rectangle" fill="#000000" x="14.408" y="0" width="1.5" height="6" rx="0.75"></rect>
                </g>
                <path d="M63.4862765,2.80341533 L66.754,2.80341533 C68.963139,2.80341533 70.754,4.59427633 70.754,6.80341533 L70.754,18.8034153 C70.754,21.0125543 68.963139,22.8034153 66.754,22.8034153 L59.2268074,22.8034153 L59.2268074,22.8034153 L53.754,22.8034153 C51.544861,22.8034153 49.754,21.0125543 49.754,18.8034153 L49.754,13.0109476 L49.754,13.0109476" id="Rectangle" stroke="#000000" stroke-width="1.5" transform="translate(60.254000, 12.803415) rotate(-90.000000) translate(-60.254000, -12.803415) "></path>
                <path d="M52.8225407,9.44658467 C53.7200034,9.44658467 54.5325034,9.81035331 55.1206377,10.3984876 C55.708772,10.986622 56.0725407,11.799122 56.0725407,12.6965847 L56.0725407,24.5023832 C56.0725407,25.3998459 55.708772,26.2123459 55.1206377,26.8004802 C54.5325034,27.3886145 53.7200034,27.7523832 52.8225407,27.7523832 L48.2520127,27.7523832 L43.6264123,31.9918418 L43.6264123,27.7523832 L39.8225407,27.7523832 C38.9250779,27.7523832 38.1125779,27.3886145 37.5244436,26.8004802 C36.9363093,26.2123459 36.5725407,25.3998459 36.5725407,24.5023832 L36.5725407,12.6965847 C36.5725407,11.799122 36.9363093,10.986622 37.5244436,10.3984876 C38.1125779,9.81035331 38.9250779,9.44658467 39.8225407,9.44658467 Z" id="Rectangle-Copy-3" stroke="#000000" stroke-width="1.5" transform="translate(46.322541, 21.196585) rotate(-270.000000) translate(-46.322541, -21.196585) "></path>
                <text id="A" font-family="Roboto-Medium, Roboto" font-size="14" font-weight="400" fill="#222222">
                    <tspan x="44.254" y="25.7434153">A</tspan>
                </text>
                <line x1="55.4373353" y1="8.94513528" x2="67.3683117" y2="8.94513528" id="Path-11" stroke="#000000" stroke-width="1.3" stroke-linecap="round"></line>
                <path d="M64.6067065,8.94513528 C64.3715688,11.3543745 63.8124471,13.1555223 62.9293412,14.3485787 C62.0507795,15.5354961 60.9199421,16.4301818 59.8008307,17.0605279 C59.2943174,17.3458244 58.5823911,17.5252487 58.2606981,17.7435432" id="Path-13" stroke="#000000" stroke-width="1.3"></path>
                <path d="M59.8008307,11.4378689 C61.9304295,16.5036794 64.4529231,18.9032513 67.3683117,18.6365847" id="Path-14" stroke="#000000" stroke-width="1.3" stroke-linecap="round"></path>
                <path d="M61.4043429,6.88208078 C61.4043429,5.88808597 61.4043429,6.69570675 61.4043429,9.30494313" id="Path-15" stroke="#000000" stroke-width="1.3" stroke-linecap="round" transform="translate(61.404343, 7.813951) rotate(-180.000000) translate(-61.404343, -7.813951) "></path>
            </g>
        </g>
    </g>
</svg>