<?xml version="1.0" encoding="UTF-8"?>
<svg width="24px" height="24px" viewBox="0 0 24 24" version="1.1" xmlns="http://www.w3.org/2000/svg" xmlns:xlink="http://www.w3.org/1999/xlink">
    <!-- Generator: Sketch 45.1 (43504) - http://www.bohemiancoding.com/sketch -->
    <title>icon-interface-item-revert</title>
    <desc>Created with Sketch.</desc>
    <defs></defs>
    <g id="Symbole" stroke="none" stroke-width="1" fill="none" fill-rule="evenodd">
        <g id="icon-interface-item-revert" fill="#000000">
            <path d="M14,9.02609641 L6.914,9.02609641 L9.243,6.70569047 L8.536,6 L5.707,8.81977166 L5,9.52446539 L5.707,10.2291591 L8.536,13.0489308 L9.243,12.3432403 L6.914,10.0228344 L11.38,10.0228344 L14,10.0228344 L14,10.0238311 C15.654,10.0238311 16.999,11.3644436 16.999,13.0130482 C16.999,14.6616528 15.654,16.0022653 14,16.0022653 L14,16.0032621 L11.38,16.0032621 L11,16.0032621 L11,17 L14,17 C16.209,17 18,15.2148423 18,13.0130482 C18,10.8112541 16.209,9.02609641 14,9.02609641" id="Fill-2"></path>
        </g>
    </g>
</svg>