<?xml version="1.0" encoding="UTF-8"?>
<svg width="75px" height="36px" viewBox="0 0 75 36" version="1.1" xmlns="http://www.w3.org/2000/svg" xmlns:xlink="http://www.w3.org/1999/xlink" >
    <g id="translate_robot_horizontal" stroke="none" fill="none" fill-rule="evenodd">
        <g id="Robot" transform="translate(2.246000, 2.000000)">
            <rect id="Rectangle" stroke="#000000" stroke-width="1.5" x="0.75" y="5.54187728" width="28.516" height="22.916" rx="1.792"></rect>
            <rect id="Rectangle" fill="#000000" x="6.008" y="21" width="18" height="1.5" rx="0.75"></rect>
            <g id="Group" transform="translate(5.264000, 10.615877)" fill="#000000">
                <circle id="Oval" cx="2.5" cy="2.5" r="2.5"></circle>
                <circle id="Oval-Copy" cx="17.956" cy="2.5" r="2.5"></circle>
            </g>
            <rect id="Rectangle" fill="#000000" x="14.408" y="0" width="1.5" height="6" rx="0.75"></rect>
        </g>
        <path d="M65.7322765,4.80341533 L69,4.80341533 C71.209139,4.80341533 73,6.59427633 73,8.80341533 L73,20.8034153 C73,23.0125543 71.209139,24.8034153 69,24.8034153 L61.4728074,24.8034153 L61.4728074,24.8034153 L56,24.8034153 C53.790861,24.8034153 52,23.0125543 52,20.8034153 L52,15.0109476 L52,15.0109476" id="Rectangle" stroke="#000000" stroke-width="1.5" transform="translate(62.500000, 14.803415) rotate(-90.000000) translate(-62.500000, -14.803415) "></path>
        <path d="M55.0685407,11.4465847 C55.9660034,11.4465847 56.7785034,11.8103533 57.3666377,12.3984876 C57.954772,12.986622 58.3185407,13.799122 58.3185407,14.6965847 L58.3185407,26.5023832 C58.3185407,27.3998459 57.954772,28.2123459 57.3666377,28.8004802 C56.7785034,29.3886145 55.9660034,29.7523832 55.0685407,29.7523832 L50.4980127,29.7523832 L45.8724123,33.9918418 L45.8724123,29.7523832 L42.0685407,29.7523832 C41.1710779,29.7523832 40.3585779,29.3886145 39.7704436,28.8004802 C39.1823093,28.2123459 38.8185407,27.3998459 38.8185407,26.5023832 L38.8185407,14.6965847 C38.8185407,13.799122 39.1823093,12.986622 39.7704436,12.3984876 C40.3585779,11.8103533 41.1710779,11.4465847 42.0685407,11.4465847 Z" id="Rectangle-Copy-3" stroke="#000000" stroke-width="1.5" transform="translate(48.568541, 23.196585) rotate(-270.000000) translate(-48.568541, -23.196585) "></path>
        <g id="A" transform="translate(46.623047, 17.790290)" fill="#222222" fill-rule="nonzero">
            <path d="M6.45996094,7.63574219 L2.60449219,7.63574219 L1.79785156,9.953125 L0,9.953125 L3.75976562,0 L5.31152344,0 L9.078125,9.953125 L7.2734375,9.953125 L6.45996094,7.63574219 Z M3.08984375,6.24121094 L5.97460938,6.24121094 L4.53222656,2.11230469 L3.08984375,6.24121094 Z" id="Shape"></path>
        </g>
        <line x1="57.6833353" y1="10.9451353" x2="69.6143117" y2="10.9451353" id="Path-11" stroke="#000000" stroke-width="1.3" stroke-linecap="round"></line>
        <path d="M66.8527065,10.9451353 C66.6175688,13.3543745 66.0584471,15.1555223 65.1753412,16.3485787 C64.2967795,17.5354961 63.1659421,18.4301818 62.0468307,19.0605279 C61.5403174,19.3458244 60.8283911,19.5252487 60.5066981,19.7435432" id="Path-13" stroke="#000000" stroke-width="1.3"></path>
        <path d="M62.0468307,13.4378689 C64.1764295,18.5036794 66.6989231,20.9032513 69.6143117,20.6365847" id="Path-14" stroke="#000000" stroke-width="1.3" stroke-linecap="round"></path>
        <path d="M63.6503429,8.88208078 C63.6503429,7.88808597 63.6503429,8.69570675 63.6503429,11.3049431" id="Path-15" stroke="#000000" stroke-width="1.3" stroke-linecap="round" transform="translate(63.650343, 9.813951) rotate(-180.000000) translate(-63.650343, -9.813951) "></path>
    </g>
</svg>