<?xml version="1.0" encoding="UTF-8"?>
<svg width="24px" height="24px" viewBox="0 0 24 24" version="1.1" xmlns="http://www.w3.org/2000/svg" xmlns:xlink="http://www.w3.org/1999/xlink">
    <!-- Generator: Sketch 44.1 (41455) - http://www.bohemiancoding.com/sketch -->
    <title>icon-interface-help</title>
    <desc>Created with Sketch.</desc>
    <defs></defs>
    <g id="Symbols" stroke="none" stroke-width="1" fill="none" fill-rule="evenodd">
        <g id="icon-interface-help" fill="#000000">
            <g id="Group-8" transform="translate(4.000000, 4.000000)">
                <path d="M8,15 C4.14,15 1,11.859 1,8 C1,4.14 4.14,1 8,1 C11.859,1 15,4.14 15,8 C15,11.859 11.859,15 8,15 M8,0 C3.589,0 0,3.589 0,8 C0,12.411 3.589,16 8,16 C12.411,16 16,12.411 16,8 C16,3.589 12.411,0 8,0" id="Fill-2"></path>
                <path d="M8.11800015,3.1362 C7.51700015,3.1362 7.00600015,3.3172 6.59900015,3.6742 C6.20100015,4.0232 5.94500015,4.4852 5.84000015,5.0452 L6.82300015,5.2302 C6.88700015,4.8902 7.02900015,4.6272 7.25900015,4.4262 C7.70300015,4.0342 8.53800015,4.0312 8.95900015,4.4372 C9.16700015,4.6372 9.26400015,4.8862 9.26400015,5.2202 C9.26400015,5.4142 9.22800015,5.5762 9.15400015,5.7162 C9.06000015,5.8922 8.94300015,6.0612 8.80300015,6.2212 C8.65600015,6.3902 8.49400015,6.5492 8.31700015,6.6972 C8.10500015,6.8752 7.90800015,7.0602 7.72600015,7.2542 C7.53100015,7.4602 7.36300015,7.6872 7.22500015,7.9282 C7.06600015,8.2102 6.98500015,8.5222 6.98500015,8.8572 L6.98500015,10.0002 L7.98500015,10.0002 L7.98500015,8.8572 C7.98500015,8.6952 8.02100015,8.5532 8.09500015,8.4222 C8.19300015,8.2512 8.31300015,8.0882 8.45300015,7.9392 C8.61000015,7.7742 8.77900015,7.6152 8.95900015,7.4632 C9.17600015,7.2812 9.37600015,7.0862 9.55700015,6.8782 C9.74600015,6.6612 9.90800015,6.4282 10.0360002,6.1852 C10.1880002,5.9012 10.2640002,5.5762 10.2640002,5.2202 C10.2640002,4.6132 10.0580002,4.1072 9.65400015,3.7182 C9.25400015,3.3322 8.73800015,3.1362 8.11800015,3.1362" id="Fill-4"></path>
                <path d="M7.5,11.25 C7.086,11.25 6.75,11.586 6.75,12 C6.75,12.414 7.086,12.75 7.5,12.75 C7.914,12.75 8.25,12.414 8.25,12 C8.25,11.586 7.914,11.25 7.5,11.25" id="Fill-6"></path>
            </g>
        </g>
    </g>
</svg>