<svg xmlns="http://www.w3.org/2000/svg" width="48" height="48" viewBox="0 0 48 48" xmlns:xlink="http://www.w3.org/1999/xlink">
  <defs>
    <polygon id="a" points=".001 .563 23.95 .563 23.95 28.052 .001 28.052"/>
  </defs>
  <g fill="none" fill-rule="evenodd" transform="translate(12 5)">
    <polygon fill="#000000" points="11.115 5.149 12.835 5.149 12.835 .001 11.115 .001"/>
    <polygon fill="#000000" points="19.094 5.466 20.308 6.682 23.949 3.042 22.734 1.825"/>
    <polygon fill="#000000" points="0 3.042 3.639 6.682 4.857 5.466 1.215 1.825"/>
    <g transform="translate(0 7.088)">
      <mask id="b" fill="white">
        <use xlink:href="#a"/>
      </mask>
      <path fill="#000000" d="M1.71497143,26.3376623 L1.71497143,23.8382338 C1.71497143,23.3702338 2.09554286,22.9862338 2.56354286,22.9810909 L21.3795429,22.9673766 C21.8509714,22.9673766 22.2366857,23.3530909 22.2366857,23.8245195 L22.2366857,26.3376623 L1.71497143,26.3376623 Z M11.9441143,2.27766234 C16.1852571,2.27766234 19.6378286,5.71994805 19.6584,9.95594805 L19.6446857,21.2548052 L4.24182857,21.2633766 L4.22982857,9.99194805 C4.22982857,5.73709091 7.68925714,2.27766234 11.9441143,2.27766234 L11.9441143,2.27766234 Z M21.3606861,21.2530913 L21.3726861,9.99194824 C21.3726861,4.79423385 17.1418289,0.563376623 11.9441145,0.563376623 C6.74640013,0.563376623 2.51554291,4.79423385 2.52925719,10.1205197 L2.52925719,21.2702342 C1.13040002,21.2959485 0.000685714286,22.4376628 0.000685714286,23.8382342 L0.000685714286,28.0519486 L23.9509719,28.0519486 L23.9509719,23.8245199 C23.9509719,22.4068056 22.7972576,21.2530913 21.3795433,21.2530913 L21.3606861,21.2530913 Z" mask="url(#b)"/>
    </g>
  </g>
</svg>
