<?xml version="1.0" encoding="UTF-8"?>
<svg width="24px" height="24px" viewBox="0 0 24 24" version="1.1" xmlns="http://www.w3.org/2000/svg" xmlns:xlink="http://www.w3.org/1999/xlink">
    <!-- Generator: Sketch 45.1 (43504) - http://www.bohemiancoding.com/sketch -->
    <title>icon-interface-delete</title>
    <desc>Created with Sketch.</desc>
    <defs></defs>
    <g id="Symbole" stroke="none" stroke-width="1" fill="none" fill-rule="evenodd">
        <g id="icon-interface-delete" fill="#000000">
            <path d="M16.9994,15.5 L13.5004,15.5 L13.5004,18.999 L7.0004,18.999 L7.0004,16.706 L16.9994,6.708 L16.9994,15.5 Z M16.9994,16.586 L14.5854,18.999 L14.5004,18.999 L14.5004,16.5 L16.9994,16.5 L16.9994,16.586 Z M7.0004,6.001 L16.2924,6.001 L7.0004,15.292 L7.0004,6.001 Z M20.3534,3.354 L19.6464,2.646 L17.2934,5 L6.0004,5 L6.0004,16.293 L2.6464,19.646 L3.3534,20.354 L6.0004,17.707 L6.0004,20 L13.5004,20 L14.5004,20 L15.0004,20 L18.0004,17 L18.0004,16.5 L18.0004,15.5 L18.0004,5.707 L20.3534,3.354 Z" id="Fill-2"></path>
        </g>
    </g>
</svg>