<?xml version="1.0" encoding="UTF-8"?>
<svg width="24px" height="24px" viewBox="0 0 24 24" version="1.1" xmlns="http://www.w3.org/2000/svg" xmlns:xlink="http://www.w3.org/1999/xlink">
    <!-- Generator: Sketch 44.1 (41455) - http://www.bohemiancoding.com/sketch -->
    <title>icon-interface-print</title>
    <desc>Created with Sketch.</desc>
    <defs></defs>
    <g id="Symbols" stroke="none" stroke-width="1" fill="none" fill-rule="evenodd">
        <g id="icon-interface-print" fill="#000000">
            <path d="M19,17 L19,19 L5,19 L5,17 L19,17 Z M7,16 L17,16 L17,6 L7,6 L7,16 Z M4,20 L20,20 L20,16 L18,16 L18,5 L6,5 L6,16 L4,16 L4,20 Z" id="Fill-2"></path>
            <polygon id="Fill-3" points="8 8 16 8 16 7 8 7"></polygon>
            <polygon id="Fill-4" points="8 10 15 10 15 9 8 9"></polygon>
            <polygon id="Fill-5" points="8 12 16 12 16 11 8 11"></polygon>
            <polygon id="Fill-6" points="8 14 14 14 14 13 8 13"></polygon>
        </g>
    </g>
</svg>