<?xml version="1.0" encoding="UTF-8"?>
<svg width="24px" height="24px" viewBox="0 0 24 24" version="1.1" xmlns="http://www.w3.org/2000/svg" xmlns:xlink="http://www.w3.org/1999/xlink">
    <!-- Generator: Sketch 45.1 (43504) - http://www.bohemiancoding.com/sketch -->
    <title>icon-interface-form-help</title>
    <desc>Created with Sketch.</desc>
    <defs></defs>
    <g id="Symbole" stroke="none" stroke-width="1" fill="none" fill-rule="evenodd">
        <g id="icon-interface-form-help">
            <circle id="Oval-5-Copy-5" fill="#000000" cx="12" cy="12" r="11"></circle>
            <path d="M10.6542969,14.0712891 C10.6542969,13.6728496 10.6762693,13.3168961 10.7202148,13.003418 C10.7641604,12.6899398 10.8388667,12.4013685 10.9443359,12.1376953 C11.0498052,11.8740221 11.1874992,11.6293957 11.3574219,11.4038086 C11.5273446,11.1782215 11.73828,10.951173 11.9902344,10.7226562 C12.1894541,10.5468741 12.3740226,10.3754891 12.5439453,10.2084961 C12.713868,10.0415031 12.8603509,9.87451255 12.9833984,9.70751953 C13.1064459,9.54052651 13.2016598,9.36474702 13.269043,9.18017578 C13.3364261,8.99560455 13.3701172,8.79785262 13.3701172,8.58691406 C13.3701172,8.0888647 13.2543957,7.71679811 13.0229492,7.47070312 C12.7915027,7.22460814 12.4501976,7.1015625 11.9990234,7.1015625 C11.8173819,7.1015625 11.6401376,7.12939425 11.4672852,7.18505859 C11.2944327,7.24072293 11.1406257,7.33007751 11.0058594,7.453125 C10.8710931,7.57617249 10.7626957,7.7329092 10.6806641,7.92333984 C10.5986324,8.11377048 10.5546875,8.34081899 10.5488281,8.60449219 L8,8.60449219 C8.0058594,7.98925474 8.11425676,7.45752177 8.32519531,7.00927734 C8.53613387,6.56103292 8.82031071,6.19043115 9.17773438,5.89746094 C9.53515804,5.60449072 9.95556399,5.38623119 10.4389648,5.24267578 C10.9223657,5.09912038 11.44238,5.02734375 11.9990234,5.02734375 C12.6142609,5.02734375 13.1650366,5.10351486 13.6513672,5.25585938 C14.1376977,5.40820389 14.5478499,5.62939308 14.8818359,5.91943359 C15.215822,6.20947411 15.4721671,6.56982207 15.6508789,7.00048828 C15.8295907,7.4311545 15.9189453,7.92187225 15.9189453,8.47265625 C15.9189453,8.85937693 15.8603521,9.20800626 15.7431641,9.51855469 C15.625976,9.82910312 15.4677744,10.1220689 15.2685547,10.3974609 C15.0693349,10.6728529 14.8408216,10.937987 14.5830078,11.1928711 C14.325194,11.4477552 14.0527358,11.7070299 13.765625,11.9707031 C13.6015617,12.1230476 13.4653326,12.2753899 13.3569336,12.4277344 C13.2485346,12.5800789 13.1606449,12.7397453 13.0932617,12.9067383 C13.0258786,13.0737313 12.979004,13.2524405 12.9526367,13.4428711 C12.9262694,13.6333017 12.9101563,13.8427723 12.9042969,14.0712891 L10.6542969,14.0712891 Z M10.3994141,16.7695312 C10.3994141,16.5761709 10.4331051,16.3974618 10.5004883,16.2333984 C10.5678714,16.0693351 10.6630853,15.9272467 10.7861328,15.8071289 C10.9091803,15.6870111 11.0585929,15.5917972 11.234375,15.5214844 C11.4101571,15.4511715 11.6064442,15.4160156 11.8232422,15.4160156 C12.0400401,15.4160156 12.2363272,15.4511715 12.4121094,15.5214844 C12.5878915,15.5917972 12.7373041,15.6870111 12.8603516,15.8071289 C12.9833991,15.9272467 13.0786129,16.0693351 13.1459961,16.2333984 C13.2133792,16.3974618 13.2470703,16.5761709 13.2470703,16.7695312 C13.2470703,16.9570322 13.2133792,17.1328117 13.1459961,17.296875 C13.0786129,17.4609383 12.9833991,17.6030267 12.8603516,17.7231445 C12.7373041,17.8432623 12.5878915,17.9370114 12.4121094,18.0043945 C12.2363272,18.0717777 12.0400401,18.1054688 11.8232422,18.1054688 C11.6064442,18.1054688 11.4101571,18.0717777 11.234375,18.0043945 C11.0585929,17.9370114 10.9091803,17.8432623 10.7861328,17.7231445 C10.6630853,17.6030267 10.5678714,17.4609383 10.5004883,17.296875 C10.4331051,17.1328117 10.3994141,16.9570322 10.3994141,16.7695312 Z" id="?-copy" fill="#FFFFFF"></path>
        </g>
    </g>
</svg>