<?xml version="1.0" encoding="UTF-8"?>
<svg width="24px" height="24px" viewBox="0 0 24 24" version="1.1" xmlns="http://www.w3.org/2000/svg" xmlns:xlink="http://www.w3.org/1999/xlink">
    <!-- Generator: Sketch 44.1 (41455) - http://www.bohemiancoding.com/sketch -->
    <title>icon-interface-languages</title>
    <desc>Created with Sketch.</desc>
    <defs></defs>
    <g id="Symbols" stroke="none" stroke-width="1" fill="none" fill-rule="evenodd">
        <g id="icon-interface-languages" fill="#000000">
            <path d="M14.6293,18.483 C14.9653,18.051 15.2673,17.541 15.5243,16.964 C15.7993,17.126 16.0593,17.309 16.3093,17.505 C15.8003,17.904 15.2373,18.236 14.6293,18.483 L14.6293,18.483 Z M8.4753,16.964 C8.7323,17.541 9.0343,18.051 9.3703,18.483 C8.7633,18.236 8.1993,17.904 7.6913,17.505 C7.9403,17.309 8.2003,17.126 8.4753,16.964 L8.4753,16.964 Z M5.0253,12.5 L7.5143,12.5 C7.5583,13.776 7.7693,14.97 8.1123,16.014 C7.6953,16.248 7.3053,16.521 6.9393,16.822 C5.8493,15.679 5.1443,14.171 5.0253,12.5 L5.0253,12.5 Z M8.1123,7.986 C7.7693,9.03 7.5583,10.224 7.5143,11.5 L5.0253,11.5 C5.1443,9.829 5.8493,8.321 6.9393,7.177 C7.3053,7.479 7.6953,7.752 8.1123,7.986 L8.1123,7.986 Z M9.3703,5.517 C9.0343,5.949 8.7323,6.459 8.4753,7.036 C8.2003,6.874 7.9403,6.691 7.6913,6.495 C8.1993,6.096 8.7633,5.764 9.3703,5.517 L9.3703,5.517 Z M15.5243,7.036 C15.2673,6.459 14.9653,5.949 14.6293,5.517 C15.2373,5.764 15.8003,6.096 16.3093,6.495 C16.0593,6.691 15.7993,6.874 15.5243,7.036 L15.5243,7.036 Z M18.9743,11.5 L16.4853,11.5 C16.4413,10.224 16.2303,9.03 15.8883,7.986 C16.3043,7.752 16.6943,7.479 17.0613,7.177 C18.1513,8.321 18.8553,9.829 18.9743,11.5 L18.9743,11.5 Z M12.5003,15.026 L12.5003,12.5 L15.4863,12.5 C15.4433,13.649 15.2593,14.689 14.9773,15.585 C14.2033,15.273 13.3713,15.081 12.5003,15.026 L12.5003,15.026 Z M12.5003,18.908 L12.5003,16.026 C13.2483,16.08 13.9623,16.25 14.6273,16.522 C14.0593,17.801 13.2813,18.647 12.5003,18.908 L12.5003,18.908 Z M11.5003,16.026 L11.5003,18.908 C10.7183,18.647 9.9413,17.801 9.3733,16.522 C10.0373,16.25 10.7523,16.08 11.5003,16.026 L11.5003,16.026 Z M11.5003,12.5 L11.5003,15.026 C10.6283,15.081 9.7963,15.273 9.0233,15.585 C8.7403,14.689 8.5563,13.649 8.5143,12.5 L11.5003,12.5 Z M11.5003,8.974 L11.5003,11.5 L8.5143,11.5 C8.5563,10.351 8.7403,9.311 9.0233,8.415 C9.7963,8.727 10.6283,8.919 11.5003,8.974 L11.5003,8.974 Z M11.5003,5.092 L11.5003,7.974 C10.7523,7.92 10.0373,7.75 9.3733,7.478 C9.9413,6.199 10.7183,5.353 11.5003,5.092 L11.5003,5.092 Z M12.5003,7.974 L12.5003,5.092 C13.2813,5.353 14.0593,6.199 14.6273,7.478 C13.9623,7.75 13.2483,7.92 12.5003,7.974 L12.5003,7.974 Z M12.5003,8.974 C13.3713,8.919 14.2033,8.727 14.9773,8.415 C15.2593,9.311 15.4433,10.351 15.4863,11.5 L12.5003,11.5 L12.5003,8.974 Z M15.8883,16.014 C16.2303,14.97 16.4413,13.776 16.4853,12.5 L18.9743,12.5 C18.8553,14.171 18.1513,15.679 17.0613,16.822 C16.6943,16.521 16.3043,16.248 15.8883,16.014 L15.8883,16.014 Z M17.7993,17.5 C19.1603,16.066 20.0003,14.133 20.0003,12 C20.0003,9.867 19.1603,7.934 17.7993,6.5 L17.7993,6.5 C17.5693,6.257 17.3293,6.025 17.0703,5.813 C17.0703,5.813 17.0703,5.813 17.0703,5.813 C15.8103,4.78 14.2283,4.132 12.5003,4.025 L12.5003,4 L11.5003,4 L11.5003,4.025 C9.7713,4.132 8.1893,4.78 6.9303,5.813 C6.9303,5.813 6.9303,5.813 6.9293,5.813 C6.6713,6.025 6.4303,6.257 6.2003,6.5 L6.2003,6.5 C4.8403,7.934 4.0003,9.867 4.0003,12 C4.0003,14.133 4.8403,16.066 6.2003,17.5 L6.2003,17.5 C6.4303,17.743 6.6713,17.975 6.9293,18.187 C6.9303,18.187 6.9303,18.187 6.9303,18.187 C8.3103,19.32 10.0753,20 12.0003,20 C13.9243,20 15.6893,19.32 17.0703,18.187 C17.0703,18.187 17.0703,18.187 17.0703,18.187 C17.3293,17.975 17.5693,17.743 17.7993,17.5 Z" id="Fill-2"></path>
        </g>
    </g>
</svg>