<svg xmlns="http://www.w3.org/2000/svg" width="48" height="48" viewBox="0 0 48 48" xmlns:xlink="http://www.w3.org/1999/xlink">
  <defs>
    <polygon id="a" points="0 .002 30.755 .002 30.755 28.988 0 28.988"/>
    <polygon id="c" points="0 29.698 30.755 29.698 30.755 .712 0 .712"/>
  </defs>
  <g fill="none" fill-rule="evenodd" transform="translate(9 10)">
    <g transform="translate(0 .71)">
      <mask id="b" fill="white">
        <use xlink:href="#a"/>
      </mask>
      <path fill="#000000" d="M1.81176471,12.4665718 L1.81176471,23.3389718 C1.81176471,25.4551129 3.47858824,27.1762894 5.52588235,27.1762894 C7.57317647,27.1762894 9.24,25.4551129 9.24,23.3389718 L9.15665882,12.3777953 L1.81176471,12.4665718 Z M9.57517647,27.1762894 L25.6908235,27.1762894 C27.9247294,27.1762894 28.9429412,25.1869718 28.9429412,23.3389718 L28.9429412,1.81339529 L10.8868941,1.81339529 L11.0517647,23.3317247 C11.0517647,24.81556 10.4901176,26.1671365 9.57517647,27.1762894 L9.57517647,27.1762894 Z M25.6908235,28.9880541 L5.31934118,28.9844306 C2.36797647,28.8739129 0,26.3845482 0,23.3389718 L0,10.6765482 L9.14216471,10.5660306 L9.06063529,0.00163058824 L30.7547059,0.00163058824 L30.7547059,23.3389718 C30.7547059,26.6128306 28.6240706,28.9880541 25.6908235,28.9880541 L25.6908235,28.9880541 Z" mask="url(#b)"/>
    </g>
    <mask id="d" fill="white">
      <use xlink:href="#c"/>
    </mask>
    <polygon fill="#000000" points="12.735 7.988 27.22 7.988 27.22 6.176 12.735 6.176" mask="url(#d)"/>
    <polygon fill="#000000" points="12.735 11.628 27.22 11.628 27.22 9.816 12.735 9.816" mask="url(#d)"/>
    <polygon fill="#000000" points="12.735 15.271 27.22 15.271 27.22 13.459 12.735 13.459" mask="url(#d)"/>
    <polygon fill="#000000" points="12.735 18.913 23.564 18.913 23.564 17.101 12.735 17.101" mask="url(#d)"/>
  </g>
</svg>
