<?xml version="1.0" encoding="UTF-8"?><svg version="1.1" width="80px" height="42px" viewBox="0 0 80.0 42.0" xmlns="http://www.w3.org/2000/svg" xmlns:xlink="http://www.w3.org/1999/xlink"><defs><clipPath id="i0"><path d="M17,0 C19.209139,-4.05812251e-16 21,1.790861 21,4 L21,15.8057985 C21,18.0149375 19.209139,19.8057985 17,19.8057985 L12.7211756,19.8057985 L7.05387166,25 L7.05387166,19.8057985 L4,19.8057985 C1.790861,19.8057985 -9.68849756e-16,18.0149375 0,15.8057985 L0,4 C-2.705415e-16,1.790861 1.790861,1.29399067e-15 4,0 L17,0 Z"></path></clipPath><clipPath id="i1"><path d="M28.224,0 C29.2136943,-1.81803888e-16 30.016,0.802305728 30.016,1.792 L30.016,22.624 C30.016,23.6136943 29.2136943,24.416 28.224,24.416 L1.792,24.416 C0.802305728,24.416 3.43247197e-16,23.6136943 0,22.624 L0,1.792 C-1.21202592e-16,0.802305728 0.802305728,4.03848493e-16 1.792,0 L28.224,0 Z"></path></clipPath><clipPath id="i2"><path d="M16.128,0 C17.9836768,-3.40882291e-16 19.488,1.50432324 19.488,3.36 C19.488,5.21567676 17.9836768,6.72 16.128,6.72 L3.36,6.72 C1.50432324,6.72 2.2725486e-16,5.21567676 0,3.36 C-2.2725486e-16,1.50432324 1.50432324,3.40882291e-16 3.36,0 L16.128,0 Z"></path></clipPath><clipPath id="i3"><path d="M0.75,0 C1.16421356,-7.6089797e-17 1.5,0.335786438 1.5,0.75 L1.5,5.97 C1.5,6.38421356 1.16421356,6.72 0.75,6.72 C0.335786438,6.72 5.07265313e-17,6.38421356 0,5.97 L0,0.75 C-5.07265313e-17,0.335786438 0.335786438,7.6089797e-17 0.75,0 Z"></path></clipPath><clipPath id="i4"><path d="M2.016,0 C3.12940606,0 4.032,0.902593944 4.032,2.016 C4.032,3.12940606 3.12940606,4.032 2.016,4.032 C0.902593944,4.032 0,3.12940606 0,2.016 C0,0.902593944 0.902593944,0 2.016,0 Z"></path></clipPath><clipPath id="i5"><path d="M2.016,0 C3.12940606,0 4.032,0.902593944 4.032,2.016 C4.032,3.12940606 3.12940606,4.032 2.016,4.032 C0.902593944,4.032 0,3.12940606 0,2.016 C0,0.902593944 0.902593944,0 2.016,0 Z"></path></clipPath><clipPath id="i6"><path d="M0.75,0 C1.16421356,-7.6089797e-17 1.5,0.335786438 1.5,0.75 L1.5,8.05 C1.5,8.46421356 1.16421356,8.8 0.75,8.8 C0.335786438,8.8 5.07265313e-17,8.46421356 0,8.05 L0,0.75 C-5.07265313e-17,0.335786438 0.335786438,7.6089797e-17 0.75,0 Z"></path></clipPath></defs><g transform="translate(3.2459999999981832 2.6958772766142154)"><g transform="translate(53.50800000000345 28.21507610476533) rotate(-90.0)"><path d="M13.7322765,0 L17,0 C19.209139,-4.05812251e-16 21,1.790861 21,4 L21,16 C21,18.209139 19.209139,20 17,20 L9.47280744,20 L9.47280744,20 L4,20 C1.790861,20 -1.73547709e-16,18.209139 0,16 L0,10.2075323 L0,10.2075323" stroke="#000000" stroke-width="1.5" fill="none" stroke-miterlimit="10"></path></g><g transform="translate(62.07654065580391 15.608245446771209) rotate(90.00000000000001)"><g clip-path="url(#i0)"><path d="M4,0 L17,0 C19.209139,-4.05812251e-16 21,1.790861 21,4 L21,15.8057985 C21,18.0149375 19.209139,19.8057985 17,19.8057985 L12.7211756,19.8057985 L12.7211756,19.8057985 L7.05387166,25 L7.05387166,19.8057985 L4,19.8057985 C1.790861,19.8057985 -9.68849756e-16,18.0149375 0,15.8057985 L0,4 C-2.705415e-16,1.790861 1.790861,1.29399067e-15 4,0 Z" stroke="#000000" stroke-width="3" fill="none" stroke-miterlimit="5"></path></g></g><g transform="translate(47.50800000000072 17.655076104765385)"><text transform="translate(0.0 13.0)" font-family="Roboto-Medium, Roboto" font-size="14.0" font-weight="400" fill="#000000" text-anchor="left">A</text></g><g transform="translate(58.50800000000071 13.670422025263633)"><path d="M0.183335349,0.186374027 L12.1143117,0.186374027" stroke="#000000" stroke-width="1.3" fill="none" stroke-linecap="round" stroke-miterlimit="10"></path></g><g transform="translate(61.514698127573865 13.856796052084746)"><path d="M6.3460084,0 C6.11087072,2.40923918 5.55174895,4.21038698 4.66864312,5.4034434 C3.79008138,6.59036084 2.65924402,7.48504652 1.54013253,8.11539259 C1.03361932,8.40068911 0.321692973,8.58011346 0,8.7984079" stroke="#000000" stroke-width="1.3" fill="none" stroke-miterlimit="10"></path></g><g transform="translate(63.05483065799581 16.349529653763284)"><path d="M0,0 C2.1295988,5.06581053 4.65209249,7.46538246 7.56748109,7.19871579" stroke="#000000" stroke-width="1.3" fill="none" stroke-linecap="round" stroke-miterlimit="10"></path></g><g transform="translate(64.84471691191277 14.402977929550396) rotate(-180.0)"><path d="M0.186374027,0.745496107 C0.186374027,-0.248498702 0.186374027,0.55912208 0.186374027,3.16835846" stroke="#000000" stroke-width="1.3" fill="none" stroke-linecap="round" stroke-miterlimit="10"></path></g><g transform="translate(0.0 8.096000000000002)"><g clip-path="url(#i1)"><path d="M1.792,0 L28.224,0 C29.2136943,-1.81803888e-16 30.016,0.802305728 30.016,1.792 L30.016,22.624 C30.016,23.6136943 29.2136943,24.416 28.224,24.416 L1.792,24.416 C0.802305728,24.416 3.43247197e-16,23.6136943 0,22.624 L0,1.792 C-1.21202592e-16,0.802305728 0.802305728,4.03848493e-16 1.792,0 Z" stroke="#000000" stroke-width="3" fill="none" stroke-miterlimit="5"></path></g></g><g transform="translate(5.263999999999214 21.424000000000206)"><g clip-path="url(#i2)"><path d="M3.36,0 L16.128,0 C17.9836768,-3.40882291e-16 19.488,1.50432324 19.488,3.36 C19.488,5.21567676 17.9836768,6.72 16.128,6.72 L3.36,6.72 C1.50432324,6.72 2.2725486e-16,5.21567676 0,3.36 C-2.2725486e-16,1.50432324 1.50432324,3.40882291e-16 3.36,0 Z" stroke="#000000" stroke-width="3" fill="none" stroke-miterlimit="5"></path></g></g><g transform="translate(11.321707944717673 21.423999999999978)"><g clip-path="url(#i3)"><polygon points="0,0 1.5,0 1.5,6.72 0,6.72 0,0" stroke="none" fill="#000000"></polygon></g></g><g transform="translate(17.49429205528395 21.423999999999978)"><g clip-path="url(#i3)"><polygon points="0,0 1.5,0 1.5,6.72 0,6.72 0,0" stroke="none" fill="#000000"></polygon></g></g><g transform="translate(5.264000000000124 13.919999999999845)"><g clip-path="url(#i4)"><polygon points="0,0 4.032,0 4.032,4.032 0,4.032 0,0" stroke="none" fill="#000000"></polygon></g><g transform="translate(15.455999999999996 0.0)"><g clip-path="url(#i5)"><polygon points="0,0 4.032,0 4.032,4.032 0,4.032 0,0" stroke="none" fill="#000000"></polygon></g></g></g><g transform="translate(14.408000000000357 0.0)"><g clip-path="url(#i6)"><polygon points="0,0 1.5,0 1.5,8.8 0,8.8 0,0" stroke="none" fill="#000000"></polygon></g></g></g></svg>