<?xml version="1.0" encoding="UTF-8"?>
<svg width="24px" height="24px" viewBox="0 0 24 24" version="1.1" xmlns="http://www.w3.org/2000/svg" xmlns:xlink="http://www.w3.org/1999/xlink">
    <!-- Generator: Sketch 44.1 (41455) - http://www.bohemiancoding.com/sketch -->
    <title>icon-interface-favourites</title>
    <desc>Created with Sketch.</desc>
    <defs></defs>
    <g id="Symbols" stroke="none" stroke-width="1" fill="none" fill-rule="evenodd">
        <g id="icon-interface-favourites" fill="#000000">
            <polygon id="Fill-2" points="11 14.293 9.354 12.647 8.646 13.354 11 15.707 15.354 11.354 14.646 10.647"></polygon>
            <path d="M17,19 L7,19 L7,14 L7,6 L8,6 L8,8 L16,8 L16,6 L17,6 L17,15 L17,19 Z M9,6 L11,6 L11,5 C11,4.449 11.449,4 12,4 C12.551,4 13,4.449 13,5 L13,6 L15,6 L15,7 L9,7 L9,6 Z M14,5 C14,3.895 13.105,3 12,3 C10.895,3 10,3.895 10,5 L6,5 L6,20 L18,20 L18,5 L14,5 Z" id="Fill-3"></path>
        </g>
    </g>
</svg>