<svg xmlns="http://www.w3.org/2000/svg" width="23" height="22" viewBox="0 0 23 22">
  <g fill="none" fill-rule="evenodd" transform="translate(-2 -1.5)">
    <path fill="#000000" fill-rule="nonzero" d="M14.5773476,2.00413926 L14.8636762,2 C20.469097,2 25,6.70808272 25,12.5 C25,18.2919173 20.469097,23 14.8636762,23 C10.816881,23 7.21841617,20.5220643 5.60521652,16.780318 L5.49338502,16.5109174 L5.289,16 L7.436,16 L7.44959635,16.0324306 C8.76330945,19.0298088 11.6416566,21 14.8636762,21 C19.3567661,21 23.0123236,17.201493 23.0123236,12.5 C23.0123236,7.79850703 19.3567661,4 14.8636762,4 C11.3493925,4 8.26462709,6.34390019 7.15012607,9.75163513 L7.073,10 L5,10 L5.16389147,9.44300354 C6.4222276,5.15345098 10.1997194,2.13082 14.5773476,2.00413926 L14.8636762,2 Z"/>
    <polyline stroke="#000000" stroke-width="2" points="10 10 16 10 16 16" transform="rotate(45 13 13)"/>
    <line x1="3" x2="15.474" y1="13" y2="13" stroke="#000000" stroke-width="2" stroke-linecap="square"/>
  </g>
</svg>
