<?xml version="1.0" encoding="UTF-8"?>
<svg width="36px" height="72px" viewBox="0 0 36 72" version="1.1" xmlns="http://www.w3.org/2000/svg" xmlns:xlink="http://www.w3.org/1999/xlink">
    <g id="translate_robot_black_vertical" stroke="none" stroke-width="1" fill="none" fill-rule="evenodd">

        <rect fill="#000000" x="0" y="0" width="36" height="72" mask = "url(#mask)"></rect>

        <mask id = "mask">
            <g transform="translate(2.772727, 36.804123)">

                <rect id="Rectangle" stroke="white" fill="white" stroke-linejoin="round" x="0" y="6.09090909" width="30.4545455" height="27.4090909"></rect>
                <g id="Group-4" transform="translate(4.568182, 24.363636)" fill="black" stroke="black">
                    <rect id="Rectangle" x="0.5" y="0.5" width="20.3181818" height="2.04545455" rx="1.02272727"></rect>
                </g>
                <g id="Group" transform="translate(4.604791, 12.181818)" fill="black">
                    <circle cx="3.04545455" cy="3.04545455" r="3.04545455"></circle>
                    <circle cx="18.1995096" cy="3.04545455" r="3.04545455"></circle>
                </g>
                <rect id="Rectangle" fill="white" x="13.7045455" y="0" width="3.04545455" height="9.16071429" rx="0.842238784"></rect>
            </g>

            <g id="Group-4-Copy" transform="translate(1.795813, 2.500000)">
                <path d="M21.8382884,0.5 L27.9314593,0.5 C30.1405983,0.5 31.9314593,2.290861 31.9314593,4.5 L31.9314593,16.5 C31.9314593,18.709139 30.1405983,20.5 27.9314593,20.5 L20.4042668,20.5 L20.4042668,20.5 L14.9314593,20.5 C12.7223203,20.5 10.9314593,18.709139 10.9314593,16.5 L10.9314593,8.50669813 L10.9314593,8.50669813" id="Rectangle" fill="white" transform="translate(21.431459, 10.500000) rotate(-90.000000) translate(-21.431459, -10.500000) "></path>
                <path d="M17,9.14316934 C17.8974627,9.14316934 18.7099627,9.50693798 19.298097,10.0950723 C19.8862314,10.6832066 20.25,11.4957066 20.25,12.3931693 L20.25,24.1989679 C20.25,25.0964306 19.8862314,25.9089306 19.298097,26.4970649 C18.7099627,27.0851992 17.8974627,27.4489679 17,27.4489679 L12.4294721,27.4489679 L7.80387166,31.6884265 L7.80387166,27.4489679 L4,27.4489679 C3.10253728,27.4489679 2.29003728,27.0851992 1.70190296,26.4970649 C1.11376864,25.9089306 0.75,25.0964306 0.75,24.1989679 L0.75,12.3931693 C0.75,11.4957066 1.11376864,10.6832066 1.70190296,10.0950723 C2.29003728,9.50693798 3.10253728,9.14316934 4,9.14316934 Z" id="Rectangle-Copy-3" stroke="white" stroke-width="1.5" fill="white" transform="translate(10.500000, 20.893169) scale(-1, 1) translate(-10.500000, -20.893169) "></path>
                <g id="A" transform="translate(5.554506, 13.486875)" fill="black" fill-rule="nonzero">
                    <path d="M6.45996094,7.63574219 L2.60449219,7.63574219 L1.79785156,9.953125 L0,9.953125 L3.75976562,0 L5.31152344,0 L9.078125,9.953125 L7.2734375,9.953125 L6.45996094,7.63574219 Z M3.08984375,6.24121094 L5.97460938,6.24121094 L4.53222656,2.11230469 L3.08984375,6.24121094 Z" id="Shape"></path>
                </g>
                <g id="Group-3" transform="translate(16.431459, 3.833169)" stroke="black" stroke-width="1.3">
                    <line x1="0.183335349" y1="2.80855061" x2="12.1143117" y2="2.80855061" id="Path-11" stroke-linecap="round"></line>
                    <path d="M9.35270653,2.80855061 C9.11756884,5.21778979 8.55844708,7.01893759 7.67534124,8.21199401 C6.79677951,9.39891144 5.66594215,10.2935971 4.54683066,10.9239432 C4.04031744,11.2092397 3.3283911,11.3886641 3.00669813,11.6069585" id="Path-13"></path>
                    <path d="M4.54683066,5.30128421 C6.67642945,10.3670947 9.19892315,12.7666667 12.1143117,12.5" id="Path-14" stroke-linecap="round"></path>
                    <path d="M6.15034289,0.745496107 C6.15034289,-0.248498702 6.15034289,0.55912208 6.15034289,3.16835846" id="Path-15" stroke-linecap="round" transform="translate(6.150343, 1.677366) rotate(-180.000000) translate(-6.150343, -1.677366) "></path>
                </g>
            </g>
        </mask>
    </g>
</svg>