<svg xmlns="http://www.w3.org/2000/svg" width="24" height="24" viewBox="0 0 24 24" xmlns:xlink="http://www.w3.org/1999/xlink">
  <defs>
    <polygon id="a" points=".499 .729 4.505 .729 4.505 4.735 .499 4.735"/>
  </defs>
  <g fill="none" fill-rule="evenodd" transform="translate(4)">
    <path fill="#000000" d="M9.8941,6.0068 L8.65515284,10.9349281 C7.73212181,10.4383276 6.67716611,10.1564 5.5576,10.1564 C5.2455681,10.1564 4.93855502,10.1782996 4.63801807,10.2206428 L5.3191,7.5068 L2.4391,7.5068 L1.7081,10.4128 L0.2531,10.0478 L1.2701,6.0068 L9.8941,6.0068 Z"/>
    <g transform="translate(6 .271)">
      <mask id="b" fill="white">
        <use xlink:href="#a"/>
      </mask>
      <path fill="#000000" d="M2.5019,4.7354 C1.3979,4.7354 0.4989,3.8374 0.4989,2.7324 C0.4989,1.6284 1.3979,0.7284 2.5019,0.7284 C3.6059,0.7284 4.5049,1.6284 4.5049,2.7324 C4.5049,3.8374 3.6059,4.7354 2.5019,4.7354" mask="url(#b)"/>
    </g>
    <path fill="#000000" d="M13.6376 13.0804L16.7966 20.0264 15.4316 20.6474 12.6716 14.5804 11.7594817 14.5803777C11.5854576 14.0758984 11.3514876 13.59911 11.066127 13.15856L11.0656 13.0804 13.6376 13.0804zM5.5576 11.1562C2.4936 11.1562-.0004 13.6492-.0004 16.7142-.0004 19.7782 2.4936 22.2712 5.5576 22.2712 8.6216 22.2712 11.1156 19.7782 11.1156 16.7142 11.1156 13.6492 8.6216 11.1562 5.5576 11.1562"/>
  </g>
</svg>
