<svg xmlns="http://www.w3.org/2000/svg" width="24" height="24" viewBox="0 0 24 24">
  <path fill="#121514" fill-rule="evenodd" d="M13.2886573,8.49073249 C13.7394373,8.29735249 14.1776773,8.19901249 14.6027173,8.19901249 C15.5055973,8.19901249 15.9042373,8.70787249 15.7979773,9.72163249 C15.7451773,10.3347725 15.3465373,11.2284125 14.6027173,12.4032125 C13.8582373,13.5773525 13.3005373,14.1640925 12.9289573,14.1640925 C12.4497973,14.1640925 12.0122173,13.2598925 11.6142373,11.4495125 C11.4795973,10.9182125 11.2413373,9.56191249 10.8961573,7.37995249 C10.5767173,5.35705249 9.72729734,4.41259249 8.34525734,4.54591249 C7.76049734,4.59937249 6.88335734,5.13067249 5.71449734,6.13981249 C4.86375734,6.91069249 4.00047734,7.68157249 3.12399734,8.45179249 L3.95955734,9.52759249 C4.75485734,8.97121249 5.22015734,8.69071249 5.35215734,8.69071249 C5.96199734,8.69071249 6.53091734,9.64771249 7.06221734,11.5584125 C7.54005734,13.3107125 8.01789734,15.0616925 8.49573734,16.8146525 C9.21051734,18.7260125 10.0863373,19.6810325 11.1212173,19.6810325 C12.7916773,19.6810325 14.8337173,18.1122125 17.2473373,14.9739125 C19.5810973,11.9689325 20.7882373,9.60217249 20.8674373,7.87363249 C20.9723773,5.55967249 20.1130573,4.37695249 18.2888173,4.32217249 C15.8283373,4.24297249 14.1618373,5.63161249 13.2886573,8.49073249 Z"/>
</svg>
