<svg xmlns="http://www.w3.org/2000/svg" width="24" height="24" viewBox="0 0 24 24">
  <path fill="#1E1E1E" fill-rule="evenodd" d="M9,0.00075 C4.03125,0.00075 0.00225,4.02975 0.00225,9 C0.00225,13.971 4.03125,18 9,18 C13.9695,18 17.9985,13.971 17.9985,9 C17.9985,4.02975 13.97025,0.00075 9,0.00075 L9,0.00075 Z M12.309,12.5325 L12.0465,12.79425 C11.82825,13.01325 11.46075,13.02375 11.2305,12.81675 L7.84125,9.8505 C7.61025,9.64425 7.4355,9.22125 7.4505,8.913 L7.76475,3.5625 C7.78125,3.25275 8.04675,3 8.3565,3 L8.72625,3 C9.036,3 9.3015,3.25275 9.3165,3.5625 L9.57375,8.01225 C9.5895,8.322 9.77025,8.763 9.97575,8.99475 L12.333,11.7165 C12.53775,11.946 12.52875,12.3135 12.309,12.5325 L12.309,12.5325 Z" transform="translate(3 3)"/>
</svg>
