<svg xmlns="http://www.w3.org/2000/svg" width="24" height="24" viewBox="0 0 24 24">
  <g fill="none" fill-rule="evenodd">
    <path fill="#121514" d="M19.68984,5.46204 C18.15064,5.04708 11.97824,5.04708 11.97824,5.04708 C11.97824,5.04708 5.80636,5.04708 4.26716,5.46204 C3.418,5.69032 2.74876,6.36372 2.52204,7.2186 C2.10968,8.76768 2.10968,12 2.10968,12 C2.10968,12 2.10968,15.23232 2.52204,16.7814 C2.74876,17.63628 3.418,18.30968 4.26716,18.53796 C5.80636,18.95292 11.97824,18.95292 11.97824,18.95292 C11.97824,18.95292 18.15064,18.95292 19.68984,18.53796 C20.539,18.30968 21.20772,17.63628 21.43496,16.7814 C21.84732,15.23232 21.84732,12 21.84732,12 C21.84732,12 21.84732,8.76768 21.43496,7.2186 C21.20772,6.36372 20.539,5.69032 19.68984,5.46204 Z"/>
    <polyline fill="#FFFFFE" points="9.96 15.306 9.96 9.436 15.119 12.371 9.96 15.306"/>
  </g>
</svg>
