<svg xmlns="http://www.w3.org/2000/svg" width="24" height="24" viewBox="0 0 24 24">
  <path fill="#000000" fill-rule="evenodd" d="M8.61282353,8.91564706 L4.48658824,4.78729412 C5.01917647,4.25470588 5.55070588,3.72105882 6.08435294,3.18741176 C6.33105882,2.94070588 6.72917647,2.93647059 6.97694118,3.18 L10.1915294,6.39776471 C10.4371765,6.64341176 10.4371765,7.04788235 10.1883529,7.29564706 L9.48423529,7.99870588 L8.82882353,8.65411765 C8.74835294,8.73564706 8.67529412,8.82247059 8.61282353,8.91564706 L8.61282353,8.91564706 Z M12.0074118,15.6402353 C11.3318824,15.0589412 10.6838824,14.4416471 10.0549412,13.8137647 C9.42705882,13.1816471 8.81188235,12.5357647 8.22952941,11.8570588 C7.75305882,11.3064706 7.65988235,10.5091765 7.90870588,9.83788235 L3.67341176,5.60152941 C2.68764706,6.61482353 2.81364706,9.12741176 3.89364706,11.3350588 C4.35741176,12.2901176 4.95882353,13.152 5.58035294,13.9715294 C6.20082353,14.7847059 6.88164706,15.5534118 7.59847059,16.2755294 C8.31741176,16.9965882 9.08188235,17.6805882 9.89717647,18.3010588 C10.7167059,18.9247059 11.5807059,19.5218824 12.5294118,19.9845882 C14.7402353,21.0635294 17.2538824,21.1821176 18.2661176,20.1952941 L14.0297647,15.9589412 C13.3584706,16.2077647 12.5601176,16.1156471 12.0074118,15.6402353 L12.0074118,15.6402353 Z M20.6844706,16.8907059 L17.4698824,13.6750588 C17.2231765,13.4315294 16.8187059,13.4315294 16.572,13.6782353 L16.5698824,13.6782353 L15.8636471,14.3834118 L15.2124706,15.0377647 C15.132,15.1182353 15.0441176,15.1891765 14.9509412,15.2548235 L19.0761176,19.3821176 C19.6097647,18.8474118 20.1423529,18.3158824 20.6770588,17.7832941 C20.9258824,17.5365882 20.9311765,17.1374118 20.6844706,16.8907059 L20.6844706,16.8907059 Z"/>
</svg>
