<svg xmlns="http://www.w3.org/2000/svg" width="19" height="23" viewBox="0 0 19 23" xmlns:xlink="http://www.w3.org/1999/xlink">
  <defs>
    <polygon id="a" points=".649 .037 4.656 .037 4.656 4.044 .649 4.044"/>
    <polygon id="c" points="0 .884 13.115 .884 13.115 14 0 14"/>
  </defs>
  <g fill="none" fill-rule="evenodd" transform="translate(.75 -.5)">
    <g transform="translate(7 .963)">
      <mask id="b" fill="white">
        <use xlink:href="#a"/>
      </mask>
      <path fill="#000000" d="M2.6516,4.0438 C1.5476,4.0438 0.6486,3.1448 0.6486,2.0398 C0.6486,0.9358 1.5476,0.0368 2.6516,0.0368 C3.7556,0.0368 4.6556,0.9358 4.6556,2.0398 C4.6556,3.1448 3.7556,4.0438 2.6516,4.0438" mask="url(#b)"/>
    </g>
    <g transform="translate(0 8.963)">
      <mask id="d" fill="white">
        <use xlink:href="#c"/>
      </mask>
      <path fill="#000000" d="M6.5574,13.9998 C2.9414,13.9998 -0.0006,11.0588 -0.0006,7.4418 C-0.0006,3.8258 2.9414,0.8838 6.5574,0.8838 C10.1734,0.8838 13.1154,3.8258 13.1154,7.4418 C13.1154,11.0588 10.1734,13.9998 6.5574,13.9998" mask="url(#d)"/>
    </g>
    <polygon fill="#000000" points="7.924 5.948 7.282 5.948 2.465 5.948 1.495 9.8 2.466 10.044 3.244 6.948 6.641 6.948 5.854 10.074 9.381 10.691 10.574 5.948"/>
    <polygon fill="#000000" points="16.659 20.235 13.832 14.021 11.893 14.021 11.893 13.021 14.476 13.021 17.569 19.821"/>
  </g>
</svg>
