<svg xmlns="http://www.w3.org/2000/svg" width="24" height="24" viewBox="0 0 24 24">
  <path fill="#000000" fill-rule="evenodd" d="M5.72471852,7.15267171 L5.72471852,4.14097843 L5.72789054,4.14097843 C5.72551152,4.12021364 5.72471852,4.1002475 5.72471852,4.07868406 C5.72471852,3.68894491 6.03795634,3.37268118 6.42494382,3.37268118 L8.80000019,3.37268118 L8.80000019,2.15634364 L8.80000019,1.68673991 L8.80000019,0 L5.29887368,0 L5.29887368,0.0111810411 C3.49240343,0.1517427 2.07054163,1.67236429 2.07054163,3.52602117 L2.07054163,7.15267171 L0,7.15267171 L0,10.5261515 L2.07054163,10.5261515 L2.07054163,18.4000004 L5.72471852,18.4000004 L5.72471852,10.1212381 L8.10294692,10.1212381 L8.47486726,7.15267171 L5.72471852,7.15267171 Z" transform="translate(7.6 2.5)"/>
</svg>
