<svg xmlns="http://www.w3.org/2000/svg" width="24" height="24" viewBox="0 0 24 24">
  <g fill="none" fill-rule="evenodd">
    <path fill="#000000" d="M12.002,2.2505 C9.35375,2.2505 9.0215,2.26175 7.98125,2.309 C6.94325,2.35625 6.2345,2.52125 5.61425,2.76275 C4.973,3.01175 4.42925,3.34475 3.887,3.887 C3.34475,4.42925 3.01175,4.97375 2.76275,5.61425 C2.52125,6.23525 2.35625,6.944 2.309,7.98125 C2.26175,9.0215 2.2505,9.35375 2.2505,12.002 C2.2505,14.65025 2.26175,14.9825 2.309,16.02275 C2.35625,17.06075 2.52125,17.7695 2.76275,18.38975 C3.01175,19.031 3.34475,19.57475 3.887,20.117 C4.42925,20.65925 4.973,20.993 5.61425,21.242 C6.2345,21.48275 6.94325,21.64775 7.98125,21.695 C9.0215,21.74225 9.35375,21.7535 12.002,21.7535 C14.65025,21.7535 14.9825,21.74225 16.02275,21.695 C17.06075,21.64775 17.7695,21.48275 18.38975,21.242 C19.031,20.993 19.57475,20.65925 20.117,20.117 C20.65925,19.57475 20.99225,19.031 21.242,18.38975 C21.48275,17.7695 21.64775,17.06075 21.695,16.02275 C21.74225,14.9825 21.7535,14.65025 21.7535,12.002 C21.7535,9.35375 21.74225,9.0215 21.695,7.98125 C21.64775,6.944 21.48275,6.23525 21.242,5.61425 C20.99225,4.97375 20.65925,4.42925 20.117,3.887 C19.57475,3.34475 19.031,3.01175 18.38975,2.76275 C17.7695,2.52125 17.06075,2.35625 16.02275,2.309 C14.9825,2.26175 14.65025,2.2505 12.002,2.2505 M12.002,4.00775 C14.606,4.00775 14.91425,4.0175 15.9425,4.064 C16.89275,4.1075 17.4095,4.2665 17.753,4.4 C18.20825,4.577 18.533,4.7885 18.87425,5.12975 C19.2155,5.471 19.427,5.79575 19.604,6.251 C19.7375,6.5945 19.8965,7.11125 19.94,8.0615 C19.9865,9.08975 19.99625,9.398 19.99625,12.002 C19.99625,14.606 19.9865,14.91425 19.94,15.9425 C19.8965,16.8935 19.7375,17.4095 19.604,17.753 C19.427,18.209 19.2155,18.533 18.87425,18.875 C18.533,19.2155 18.20825,19.427 17.753,19.604 C17.4095,19.7375 16.89275,19.8965 15.9425,19.94 C14.91425,19.9865 14.606,19.997 12.002,19.997 C9.398,19.997 9.08975,19.9865 8.0615,19.94 C7.1105,19.8965 6.5945,19.7375 6.251,19.604 C5.79575,19.427 5.471,19.2155 5.12975,18.875 C4.7885,18.533 4.577,18.209 4.4,17.753 C4.2665,17.4095 4.1075,16.8935 4.064,15.9425 C4.0175,14.91425 4.00775,14.606 4.00775,12.002 C4.00775,9.398 4.0175,9.08975 4.064,8.0615 C4.1075,7.11125 4.2665,6.5945 4.4,6.251 C4.577,5.79575 4.7885,5.471 5.12975,5.12975 C5.471,4.7885 5.79575,4.577 6.251,4.4 C6.5945,4.2665 7.1105,4.1075 8.0615,4.064 C9.08975,4.0175 9.398,4.00775 12.002,4.00775"/>
    <path fill="#000000" d="M12.002 15.2525C10.2065 15.2525 8.7515 13.7975 8.7515 12.002 8.7515 10.2065 10.2065 8.7515 12.002 8.7515 13.7975 8.7515 15.2525 10.2065 15.2525 12.002 15.2525 13.7975 13.7975 15.2525 12.002 15.2525M12.002 6.995C9.23675 6.995 6.99425 9.23675 6.99425 12.002 6.99425 14.768 9.23675 17.00975 12.002 17.00975 14.76725 17.00975 17.00975 14.768 17.00975 12.002 17.00975 9.23675 14.76725 6.995 12.002 6.995M18.37775 6.797C18.37775 7.44275 17.8535 7.967 17.20775 7.967 16.56125 7.967 16.037 7.44275 16.037 6.797 16.037 6.1505 16.56125 5.62625 17.20775 5.62625 17.8535 5.62625 18.37775 6.1505 18.37775 6.797"/>
  </g>
</svg>
