<?xml version="1.0" encoding="UTF-8"?>
<svg width="24px" height="24px" viewBox="0 0 24 24" version="1.1" xmlns="http://www.w3.org/2000/svg" xmlns:xlink="http://www.w3.org/1999/xlink">
    <!-- Generator: Sketch 44.1 (41455) - http://www.bohemiancoding.com/sketch -->
    <title>icon-share-facebook</title>
    <desc>Created with Sketch.</desc>
    <defs></defs>
    <g id="Symbole" stroke="none" stroke-width="1" fill="none" fill-rule="evenodd">
        <g id="icon-share-facebook" fill="#000000">
            <g id="Group-5" transform="translate(8.000000, 4.000000)">
                <path d="M5.20428945,6.50242869 L5.20428945,3.76452576 L5.20717311,3.76452576 C5.20501036,3.74564868 5.20428945,3.72749764 5.20428945,3.70789452 C5.20428945,3.35358621 5.48905109,3.06607373 5.84085789,3.06607373 L8,3.06607373 L8,1.96031236 L8,1.53339989 L8,0 L4.81715779,0 L4.81715779,0.0101645826 C3.17491214,0.137947907 1.88231053,1.52033114 1.88231053,3.20547372 L1.88231053,6.50242869 L0,6.50242869 L0,9.56922846 L1.88231053,9.56922846 L1.88231053,16.7272727 L5.20428945,16.7272727 L5.20428945,9.20112536 L7.36631522,9.20112536 L7.70442462,6.50242869 L5.20428945,6.50242869 Z" id="Fill-3"></path>
            </g>
        </g>
    </g>
</svg>