<?xml version="1.0" encoding="utf-8"?>
<!-- Generator: Adobe Illustrator 19.0.0, SVG Export Plug-In . SVG Version: 6.00 Build 0)  -->
<svg version="1.1" id="Layer_1" xmlns="http://www.w3.org/2000/svg" xmlns:xlink="http://www.w3.org/1999/xlink" x="0px" y="0px"
	 viewBox="0 0 24 24" style="enable-background:new 0 0 24 24;" xml:space="preserve">
<g id="Layer_x0020_1">
	<path 
		id	= "XMLID_6_" 
		d	= "M21,11.7c0-2.4-1-4.6-2.6-6.2C16.8,4,14.6,3,12.2,3C9.8,3,7.6,4,6,5.6c-1.6,1.6-2.6,3.8-2.6,6.2
		c0,0.8,0.1,1.6,0.3,2.3c0.2,0.7,0.5,1.4,0.9,2.1l-1.5,4.5L3,21l0.4-0.1L8,19.4c0.6,0.3,1.3,0.6,2,0.8c0.7,0.2,1.4,0.3,2.2,0.3
		c2.4,0,4.6-1,6.2-2.6C20,16.3,21,14.1,21,11.7L21,11.7z M8.1,7.4L8.1,7.4z M10.2,10.8L10.2,10.8z M10.1,11.1
		c0.1,0.1,0.3,0.5,0.6,0.9c0.2,0.2,0.4,0.5,0.7,0.7c0.7,0.7,1.4,0.9,1.7,1.1c0.1,0,0.1,0.1,0.2,0.1c0.1,0,0.1,0.1,0.2,0.1
		c0,0,0.1,0,0.1-0.1v0c0.1-0.1,0.3-0.3,0.5-0.6c0.1-0.1,0.2-0.3,0.3-0.4l0,0c0.1-0.2,0.2-0.3,0.4-0.3c0.1,0,0.2,0,0.4,0.1
		c0.1,0,0.3,0.1,0.6,0.3c0.4,0.2,0.9,0.4,1.1,0.5l0,0c0,0,0.1,0,0.1,0.1c0.2,0.1,0.3,0.2,0.4,0.3l0,0c0.1,0.1,0.1,0.3,0,0.6
		c0,0.2-0.1,0.4-0.2,0.7c-0.1,0.3-0.4,0.6-0.7,0.8c-0.4,0.3-0.8,0.5-1.1,0.5c-0.1,0-0.1,0-0.2,0c-0.3,0.1-0.7,0.2-2.8-0.6
		c-2.3-0.9-3.9-3.2-4.2-3.6c0,0,0-0.1-0.1-0.1l0,0l0,0l0,0c-0.1-0.2-1-1.4-1-2.6c0-1.2,0.6-1.8,0.9-2.1c0,0,0,0,0,0
		c0.1-0.1,0.2-0.2,0.4-0.3C8.6,7,8.7,7,8.8,7C8.9,7,9,7,9.1,7c0.1,0,0.1,0,0.2,0c0,0,0,0,0,0C9.6,7,9.8,7,10,7.6
		c0,0.1,0.1,0.4,0.3,0.7c0.2,0.5,0.4,1,0.5,1.1l0,0c0,0.1,0.1,0.2,0.1,0.3c0,0.1,0,0.2-0.1,0.3l0,0c0,0,0,0,0,0.1
		c-0.1,0.1-0.1,0.2-0.2,0.4l0,0c0,0.1-0.1,0.1-0.1,0.2c-0.1,0.1-0.2,0.2-0.3,0.3l0,0C10.1,10.9,10,11,10.1,11.1L10.1,11.1z"

		fill = "#000000"
	/>
</g>

</svg>
