<svg xmlns="http://www.w3.org/2000/svg" width="20" height="19" viewBox="0 0 20 19">
  <path fill="#000000" d="M19.6310242,0.652925993 C19.3053027,0.237893439 18.8002093,0 18.2448317,0 C17.8860878,0 17.5145852,0.0973533151 17.1400806,0.289132026 L1.19548985,8.44265516 C0.0622193404,9.02311515 -0.0165842381,9.89709905 0.00217851868,10.2455214 C0.0201907652,10.5961398 0.193558638,11.456216 1.38236691,11.9166314 L3.4200023,12.7027777 C3.80651509,12.8521016 4.238809,12.9289594 4.70412537,12.9289594 C4.77767538,12.9289594 4.84822334,12.9194437 4.92102284,12.9157838 C4.89325396,12.9509188 4.859481,12.9780021 4.83396365,13.0146011 C4.45420545,13.5687098 4.43544269,14.3197211 4.7791764,15.1285588 C4.78442997,15.1424664 4.78968354,15.1541781 4.79493711,15.1658897 C5.39759686,16.4680818 6.06780253,17.9378973 6.14885764,18.1421197 C6.34849338,18.6501136 6.85733934,19 7.41571898,19 C8.27580375,19 8.53097725,18.5959471 9.93818401,16.3619448 C10.0477585,16.1979813 10.2916743,15.8173518 10.3329524,15.3327811 C10.4973142,15.3979273 10.6519193,15.4579497 10.7840091,15.5099203 L13.041544,16.4073275 C13.4941017,16.5873945 13.8903711,16.7462342 14.099013,16.8304118 C14.1635568,16.8692068 14.2318533,16.9021459 14.3031517,16.9306931 C14.4622599,16.9921794 14.6318752,17.0236545 14.8022411,17.0236545 C15.8289391,17.0236545 16.0751065,16.1562584 16.2071963,15.6914512 C16.2724907,15.4616096 16.3625519,15.1431984 16.4593678,14.7918481 L19.9027089,2.45213237 C20.1623854,1.52032207 19.8434186,0.925222483 19.6310242,0.652925993 Z M8.80116094,15.6592441 C8.80116094,15.6592441 7.52379246,17.6875602 7.41496847,17.6875602 C7.41196643,17.6875602 7.41046541,17.6860962 7.40896439,17.6831683 C7.28362917,17.3545094 6.0212709,14.6264206 6.0212709,14.6264206 C5.78861271,14.0796317 5.83064129,13.6111646 6.23066326,13.6111646 C6.31847296,13.6111646 6.4235444,13.633856 6.54662809,13.6836306 L7.5267945,14.1806449 C7.69040574,14.2897099 7.86902719,14.3841353 8.06566088,14.4595292 L8.11519456,14.4778287 L8.20750732,14.5232115 C8.96477218,14.9140887 9.20568598,15.0553608 8.80116094,15.6592441 Z M18.6043261,2.1066379 L15.162486,14.4463536 C14.9681038,15.1417344 14.8059936,15.7104827 14.8029916,15.7104827 C14.796237,15.6892553 14.2348553,15.4652695 13.5488889,15.191509 L11.289853,14.2941018 C10.6038866,14.0232693 9.47887172,13.5848133 8.78915278,13.3256925 L8.67507522,13.2810417 L8.25328845,13.0673036 C7.83525422,12.7547482 7.79847922,12.2394344 8.21876497,11.8024425 L15.2075166,4.50387179 C15.4882075,4.21181184 15.5940294,4.061024 15.5332381,4.061024 C15.4852054,4.061024 15.3298498,4.15837732 15.0701732,4.35674385 L6.22766122,11.1597642 C5.84189894,11.4532881 5.25575042,11.6172516 4.70487588,11.6172516 C4.42268402,11.6172516 4.14874777,11.5733328 3.91533908,11.4832993 L1.87920471,10.697885 C1.19098679,10.4321763 1.16471893,9.94174982 1.8199144,9.6050391 L17.7660061,1.45005201 C17.9498812,1.35635859 18.1112409,1.3124398 18.2448317,1.3124398 C18.5878149,1.3124398 18.743921,1.60523173 18.6043261,2.1066379 Z"/>
</svg>
