<?xml version="1.0" encoding="UTF-8"?>
<svg width="24px" height="24px" viewBox="0 0 24 24" version="1.1" xmlns="http://www.w3.org/2000/svg" xmlns:xlink="http://www.w3.org/1999/xlink">
    <!-- Generator: Sketch 44.1 (41455) - http://www.bohemiancoding.com/sketch -->
    <title>icon-share-twitter</title>
    <desc>Created with Sketch.</desc>
    <defs></defs>
    <g id="Symbole" stroke="none" stroke-width="1" fill="none" fill-rule="evenodd">
        <g id="icon-share-twitter" fill="#000000">
            <path d="M21.6903152,5.89162937 C20.9658128,6.21388439 20.1849348,6.43100657 19.3682506,6.53004476 C20.2039806,6.03104466 20.8439196,5.23569184 21.146367,4.2955909 C20.3639653,4.75802305 19.5000476,5.09322922 18.5820398,5.27606895 C17.8423007,4.48985811 16.7932578,4 15.6314637,4 C13.4015808,4 11.5929911,5.81011332 11.5929911,8.03999619 C11.5929911,8.35539472 11.6287973,8.66546043 11.6973622,8.96105133 C8.33996762,8.78963908 5.36348919,7.18369679 3.37053614,4.73973907 C3.02237882,5.33320636 2.82354062,6.02799733 2.82354062,6.76697457 C2.82354062,8.16950767 3.53661556,9.4051995 4.61994096,10.1297019 C3.95790877,10.1091325 3.33549186,9.92705457 2.79002,9.62384535 L2.79002,9.67564994 C2.79002,11.6335587 4.1834111,13.2654033 6.03009237,13.6371774 C5.69183887,13.7293591 5.3353014,13.7788782 4.96733644,13.7788782 C4.70755166,13.7788782 4.45386154,13.7544996 4.20626607,13.7065041 C4.71974098,15.3124464 6.21217027,16.4803352 7.97962099,16.5108085 C6.59765737,17.5948957 4.85534711,18.2409294 2.96371774,18.2409294 C2.63765356,18.2409294 2.31616037,18.2218836 2,18.1830302 C3.78802019,19.3303495 5.91124655,20 8.19217217,20 C15.6230835,20 19.6866965,13.8443958 19.6866965,8.503952 C19.6866965,8.32796876 19.6828873,8.15503285 19.6760309,7.97981145 C20.4645272,7.41300828 21.1501762,6.701457 21.6903152,5.89162937" id="Fill-1"></path>
        </g>
    </g>
</svg>