<svg xmlns="http://www.w3.org/2000/svg" width="48" height="48" viewBox="0 0 48 48">
  <g fill="#000000" fill-rule="evenodd" transform="translate(8 8)">
    <path d="M16,30 C8.28,30 2,23.718 2,16 C2,8.28 8.28,2 16,2 C23.718,2 30,8.28 30,16 C30,23.718 23.718,30 16,30 M16,0 C7.178,0 0,7.178 0,16 C0,24.822 7.178,32 16,32 C24.822,32 32,24.822 32,16 C32,7.178 24.822,0 16,0"/>
    <path d="M16.2360003 6.2724C15.0340003 6.2724 14.0120003 6.6344 13.1980003 7.3484 12.4020003 8.0464 11.8900003 8.9704 11.6800003 10.0904L13.6460003 10.4604C13.7740003 9.7804 14.0580003 9.2544 14.5180003 8.8524 15.4060003 8.0684 17.0760003 8.0624 17.9180003 8.8744 18.3340003 9.2744 18.5280003 9.7724 18.5280003 10.4404 18.5280003 10.8284 18.4560003 11.1524 18.3080003 11.4324 18.1200003 11.7844 17.8860003 12.1224 17.6060003 12.4424 17.3120003 12.7804 16.9880003 13.0984 16.6340003 13.3944 16.2100003 13.7504 15.8160003 14.1204 15.4520003 14.5084 15.0620003 14.9204 14.7260003 15.3744 14.4500003 15.8564 14.1320003 16.4204 13.9700003 17.0444 13.9700003 17.7144L13.9700003 20.0004 15.9700003 20.0004 15.9700003 17.7144C15.9700003 17.3904 16.0420003 17.1064 16.1900003 16.8444 16.3860003 16.5024 16.6260003 16.1764 16.9060003 15.8784 17.2200003 15.5484 17.5580003 15.2304 17.9180003 14.9264 18.3520003 14.5624 18.7520003 14.1724 19.1140003 13.7564 19.4920003 13.3224 19.8160003 12.8564 20.0720003 12.3704 20.3760003 11.8024 20.5280003 11.1524 20.5280003 10.4404 20.5280003 9.2264 20.1160003 8.2144 19.3080003 7.4364 18.5080003 6.6644 17.4760003 6.2724 16.2360003 6.2724M15 22.5C14.172 22.5 13.5 23.172 13.5 24 13.5 24.828 14.172 25.5 15 25.5 15.828 25.5 16.5 24.828 16.5 24 16.5 23.172 15.828 22.5 15 22.5"/>
  </g>
</svg>
