<?xml version="1.0" encoding="UTF-8" standalone="no"?>
<svg width="20px" height="20px" viewBox="0 0 20 20" version="1.1" xmlns="http://www.w3.org/2000/svg" xmlns:xlink="http://www.w3.org/1999/xlink">
    <!-- Generator: Sketch 39.1 (31720) - http://www.bohemiancoding.com/sketch -->
    <title>glyphs/Icons black/24/phone</title>
    <desc>Created with Sketch.</desc>
    <defs></defs>
    <g id="Single" stroke="none" stroke-width="1" fill="none" fill-rule="evenodd">
        <g id="s/single/single-regular" transform="translate(-22.000000, -638.000000)" fill="#000000">
            <g id="nav/Icons-black/24/phone" transform="translate(20.000000, 636.000000)">
                <g id="old-handphone" transform="translate(2.000000, 2.000000)">
                    <g id="Capa_1">
                        <path d="M6.23647059,6.57294118 L1.65176471,1.98588235 C2.24352941,1.39411765 2.83411765,0.801176471 3.42705882,0.208235294 C3.70117647,-0.0658823529 4.14352941,-0.0705882353 4.41882353,0.2 L7.99058824,3.77529412 C8.26352941,4.04823529 8.26352941,4.49764706 7.98705882,4.77294118 L7.20470588,5.55411765 L6.47647059,6.28235294 C6.38705882,6.37294118 6.30588235,6.46941176 6.23647059,6.57294118 L6.23647059,6.57294118 Z M10.0082353,14.0447059 C9.25764706,13.3988235 8.53764706,12.7129412 7.83882353,12.0152941 C7.14117647,11.3129412 6.45764706,10.5952941 5.81058824,9.84117647 C5.28117647,9.22941176 5.17764706,8.34352941 5.45411765,7.59764706 L0.748235294,2.89058824 C-0.347058824,4.01647059 -0.207058824,6.80823529 0.992941176,9.26117647 C1.50823529,10.3223529 2.17647059,11.28 2.86705882,12.1905882 C3.55647059,13.0941176 4.31294118,13.9482353 5.10941176,14.7505882 C5.90823529,15.5517647 6.75764706,16.3117647 7.66352941,17.0011765 C8.57411765,17.6941176 9.53411765,18.3576471 10.5882353,18.8717647 C13.0447059,20.0705882 15.8376471,20.2023529 16.9623529,19.1058824 L12.2552941,14.3988235 C11.5094118,14.6752941 10.6223529,14.5729412 10.0082353,14.0447059 L10.0082353,14.0447059 Z M19.6494118,15.4341176 L16.0776471,11.8611765 C15.8035294,11.5905882 15.3541176,11.5905882 15.08,11.8647059 L15.0776471,11.8647059 L14.2929412,12.6482353 L13.5694118,13.3752941 C13.48,13.4647059 13.3823529,13.5435294 13.2788235,13.6164706 L17.8623529,18.2023529 C18.4552941,17.6082353 19.0470588,17.0176471 19.6411765,16.4258824 C19.9176471,16.1517647 19.9235294,15.7082353 19.6494118,15.4341176 L19.6494118,15.4341176 Z" id="Shape"></path>
                    </g>
                </g>
            </g>
        </g>
    </g>
</svg>