<?xml version="1.0" encoding="UTF-8" standalone="no"?>
<svg width="20px" height="20px" viewBox="0 0 20 20" version="1.1" xmlns="http://www.w3.org/2000/svg" xmlns:xlink="http://www.w3.org/1999/xlink">
    <!-- Generator: Sketch 39.1 (31720) - http://www.bohemiancoding.com/sketch -->
    <title>glyphs/Icons black/24/time</title>
    <desc>Created with Sketch.</desc>
    <defs></defs>
    <g id="Single" stroke="none" stroke-width="1" fill="none" fill-rule="evenodd">
        <g id="m/single" transform="translate(-51.000000, -1010.000000)" fill="#000000">
            <g id="nav/Icons-black/24/time" transform="translate(49.000000, 1008.000000)">
                <g id="time-24" transform="translate(2.000000, 2.000000)">
                    <g id="Layer_1">
                        <path d="M10,0.000833333333 C4.47916667,0.000833333333 0.0025,4.4775 0.0025,10 C0.0025,15.5233333 4.47916667,20 10,20 C15.5216667,20 19.9983333,15.5233333 19.9983333,10 C19.9983333,4.4775 15.5225,0.000833333333 10,0.000833333333 L10,0.000833333333 Z M13.6766667,13.925 L13.385,14.2158333 C13.1425,14.4591667 12.7341667,14.4708333 12.4783333,14.2408333 L8.7125,10.945 C8.45583333,10.7158333 8.26166667,10.2458333 8.27833333,9.90333333 L8.6275,3.95833333 C8.64583333,3.61416667 8.94083333,3.33333333 9.285,3.33333333 L9.69583333,3.33333333 C10.04,3.33333333 10.335,3.61416667 10.3516667,3.95833333 L10.6375,8.9025 C10.655,9.24666667 10.8558333,9.73666667 11.0841667,9.99416667 L13.7033333,13.0183333 C13.9308333,13.2733333 13.9208333,13.6816667 13.6766667,13.925 L13.6766667,13.925 Z" id="Shape"></path>
                    </g>
                </g>
            </g>
        </g>
    </g>
</svg>