<?xml version="1.0" encoding="UTF-8" standalone="no"?>
<svg width="32px" height="32px" viewBox="0 0 32 32" version="1.1" xmlns="http://www.w3.org/2000/svg" xmlns:xlink="http://www.w3.org/1999/xlink">
    <!-- Generator: Sketch 3.8.3 (29802) - http://www.bohemiancoding.com/sketch -->
    <title>icons/topic/topic_health_32_black</title>
    <desc>Created with Sketch.</desc>
    <defs></defs>
    <g id="Symbols" stroke="none" stroke-width="1" fill="none" fill-rule="evenodd">
        <g id="icons/topic/topic_health_32_black" fill="#231F1F">
            <path d="M15.5013,23.2715 L15.5003,23.2725 L8.9003,16.6735 C8.6923,16.4655 8.5073,16.2385 8.3443,16.0005 L11.7073,16.0005 L13.5003,14.2075 L17.5003,18.2075 L19.7073,16.0005 L22.6553,16.0005 C22.4923,16.2385 22.3073,16.4655 22.0993,16.6735 L15.5013,23.2715 Z M8.9003,10.0745 C9.8003,9.1755 11.0023,8.7185 12.2063,8.7185 C13.2633,8.7185 14.3223,9.0705 15.1783,9.7835 L15.4983,10.0495 L15.8173,9.7835 C17.6493,8.2595 20.4083,8.3855 22.0973,10.0745 C22.9783,10.9545 23.4633,12.1255 23.4633,13.3745 C23.4633,13.9385 23.3583,14.4865 23.1683,15.0005 L19.2933,15.0005 L17.5003,16.7925 L13.5003,12.7925 L11.2933,15.0005 L7.8313,15.0005 C7.6403,14.4865 7.5363,13.9385 7.5363,13.3735 C7.5363,12.1255 8.0213,10.9545 8.9003,10.0745 L8.9003,10.0745 Z M22.8043,9.3675 C20.8503,7.4135 17.7163,7.1805 15.4983,8.7675 C13.2813,7.1805 10.1473,7.4135 8.1933,9.3675 C7.1253,10.4355 6.5363,11.8585 6.5363,13.3735 C6.5363,14.8895 7.1253,16.3125 8.1933,17.3805 L15.4993,24.6825 L22.8063,17.3805 C23.8753,16.3115 24.4633,14.8895 24.4633,13.3745 C24.4633,11.8585 23.8733,10.4355 22.8043,9.3675 L22.8043,9.3675 Z" id="Fill-2"></path>
        </g>
    </g>
</svg>