<?xml version="1.0" encoding="UTF-8" standalone="no"?>
<svg width="32px" height="32px" viewBox="0 0 32 32" version="1.1" xmlns="http://www.w3.org/2000/svg" xmlns:xlink="http://www.w3.org/1999/xlink">
    <!-- Generator: Sketch 3.8.3 (29802) - http://www.bohemiancoding.com/sketch -->
    <title>icons/topic/topic_education_32_black</title>
    <desc>Created with Sketch.</desc>
    <defs></defs>
    <g id="Symbols" stroke="none" stroke-width="1" fill="none" fill-rule="evenodd">
        <g id="icons/topic/topic_education_32_black" fill="#231F1F">
            <path d="M5,23 L5,8 L13,8 C14.058,8 14.983,8.551 15.517,9.377 C16.051,8.557 16.948,8 18,8 L26,8 L26,23 L18,23 C16.895,23 16,23.895 16,25 L15,25 C15,23.895 14.105,23 13,23 L5,23 Z M16,22.779 C16.531,22.3 17.228,22 18,22 L25,22 L25,9 L18,9 C16.895,9 16,9.895 16,11 L16,22.779 Z M6,22 L13,22 C13.772,22 14.469,22.3 15,22.779 L15,11 C15,9.895 14.105,9 13,9 L6,9 L6,22 Z" id="Fill-2"></path>
        </g>
    </g>
</svg>