<?xml version="1.0" encoding="UTF-8" standalone="no"?>
<svg width="48px" height="48px" viewBox="0 0 48 48" version="1.1" xmlns="http://www.w3.org/2000/svg" xmlns:xlink="http://www.w3.org/1999/xlink">
    <!-- Generator: Sketch 40.1 (33804) - http://www.bohemiancoding.com/sketch -->
    <title>topic/black_48/culture</title>
    <desc>Created with Sketch.</desc>
    <defs></defs>
    <g id="Symbols" stroke="none" stroke-width="1" fill="none" fill-rule="evenodd">
        <g id="topic/black_48/culture" fill="#1E1E1E">
            <polygon id="Fill-2" points="23.5 13 25 13 25 7 23.5 7"></polygon>
            <polygon id="Fill-3" points="23.5 41.5 25 41.5 25 35.5 23.5 35.5"></polygon>
            <polygon id="Fill-4" points="15.7646 16.8252 11.5216 12.5822 12.5816 11.5212 16.8256 15.7642"></polygon>
            <polygon id="Fill-5" points="35.917 36.9775 31.675 32.7355 32.735 31.6745 36.978 35.9165"></polygon>
            <polygon id="Fill-6" points="7 25 13 25 13 23.5 7 23.5"></polygon>
            <polygon id="Fill-7" points="35.5 25 41.5 25 41.5 23.5 35.5 23.5"></polygon>
            <polygon id="Fill-8" points="12.582 36.9785 11.521 35.9175 15.765 31.6745 16.825 32.7355"></polygon>
            <polygon id="Fill-9" points="32.7354 16.8252 31.6744 15.7642 35.9174 11.5212 36.9774 12.5822"></polygon>
            <path d="M24.25,17.5 C20.528,17.5 17.5,20.528 17.5,24.25 C17.5,27.972 20.528,31 24.25,31 C27.972,31 31,27.972 31,24.25 C31,20.528 27.972,17.5 24.25,17.5 M24.25,32.5 C19.701,32.5 16,28.799 16,24.25 C16,19.701 19.701,16 24.25,16 C28.799,16 32.5,19.701 32.5,24.25 C32.5,28.799 28.799,32.5 24.25,32.5" id="Fill-10"></path>
        </g>
    </g>
</svg>