<?xml version="1.0" encoding="UTF-8" standalone="no"?>
<svg width="48px" height="48px" viewBox="0 0 48 48" version="1.1" xmlns="http://www.w3.org/2000/svg" xmlns:xlink="http://www.w3.org/1999/xlink">
    <!-- Generator: Sketch 3.8.3 (29802) - http://www.bohemiancoding.com/sketch -->
    <title>icons/topic/topic_work_48_white</title>
    <desc>Created with Sketch.</desc>
    <defs></defs>
    <g id="Symbols" stroke="none" stroke-width="1" fill="none" fill-rule="evenodd">
        <g id="icons/topic/topic_work_48_white" fill="#FFFFFF">
            <path d="M24.25,35.5 C18.047,35.5 13,30.453 13,24.25 C13,18.047 18.047,13 24.25,13 C30.453,13 35.5,18.047 35.5,24.25 C35.5,30.453 30.453,35.5 24.25,35.5 L24.25,35.5 Z M40,25 L40,23.5 L36.962,23.5 C36.892,22.307 36.661,21.16 36.284,20.077 L39.088,18.916 L38.514,17.53 L35.707,18.693 C35.193,17.636 34.539,16.663 33.766,15.794 L35.917,13.643 L34.856,12.583 L32.706,14.734 C31.837,13.961 30.864,13.308 29.809,12.793 L30.971,9.986 L29.584,9.412 L28.423,12.216 C27.34,11.839 26.193,11.608 25,11.538 L25,8.5 L23.5,8.5 L23.5,11.538 C22.308,11.608 21.16,11.839 20.077,12.216 L18.916,9.411 L17.53,9.985 L18.693,12.793 C17.636,13.307 16.663,13.961 15.794,14.734 L13.643,12.583 L12.583,13.643 L14.734,15.794 C13.961,16.663 13.307,17.636 12.793,18.693 L9.986,17.53 L9.412,18.916 L12.216,20.077 C11.839,21.16 11.608,22.307 11.538,23.5 L8.5,23.5 L8.5,25 L11.538,25 C11.608,26.192 11.839,27.34 12.215,28.422 L9.412,29.584 L9.986,30.971 L12.793,29.808 C13.307,30.864 13.961,31.837 14.734,32.706 L12.583,34.858 L13.643,35.919 L15.795,33.767 C16.664,34.54 17.637,35.193 18.693,35.707 L17.53,38.515 L18.916,39.089 L20.078,36.285 C21.16,36.661 22.308,36.892 23.5,36.962 L23.5,40 L25,40 L25,36.962 C26.193,36.892 27.34,36.661 28.423,36.284 L29.584,39.088 L30.971,38.514 L29.809,35.707 C30.864,35.192 31.837,34.539 32.706,33.766 L34.856,35.917 L35.917,34.856 L33.766,32.706 C34.539,31.837 35.192,30.864 35.707,29.809 L38.514,30.971 L39.088,29.584 L36.284,28.423 C36.661,27.34 36.892,26.193 36.962,25 L40,25 Z" id="Fill-2"></path>
            <path d="M24.25,26.5 C23.009,26.5 22,25.491 22,24.25 C22,23.009 23.009,22 24.25,22 C25.491,22 26.5,23.009 26.5,24.25 C26.5,25.491 25.491,26.5 24.25,26.5 M24.25,20.5 C22.182,20.5 20.5,22.182 20.5,24.25 C20.5,26.317 22.182,28 24.25,28 C26.317,28 28,26.317 28,24.25 C28,22.182 26.317,20.5 24.25,20.5" id="Fill-4"></path>
        </g>
    </g>
</svg>