<?xml version="1.0" encoding="UTF-8" standalone="no"?>
<svg width="32px" height="32px" viewBox="0 0 32 32" version="1.1" xmlns="http://www.w3.org/2000/svg" xmlns:xlink="http://www.w3.org/1999/xlink">
    <!-- Generator: Sketch 3.8.3 (29802) - http://www.bohemiancoding.com/sketch -->
    <title>icons/topic/topic_encounters_32_black</title>
    <desc>Created with Sketch.</desc>
    <defs></defs>
    <g id="Symbols" stroke="none" stroke-width="1" fill="none" fill-rule="evenodd">
        <g id="icons/topic/topic_encounters_32_black" fill="#231F1F">
            <path d="M9.5,9 C8.673,9 8,9.673 8,10.5 L8,18.499 C8,19.326 8.673,19.999 9.5,19.999 L15.707,19.999 L19,23.292 L19,19.999 L21.5,19.999 C22.327,19.999 23,19.326 23,18.499 L23,10.5 C23,9.673 22.327,9 21.5,9 L9.5,9 Z M20,25.706 L15.293,20.999 L9.5,20.999 C8.121,20.999 7,19.878 7,18.499 L7,10.5 C7,9.121 8.121,8 9.5,8 L21.5,8 C22.878,8 24,9.121 24,10.5 L24,18.499 C24,19.878 22.878,20.999 21.5,20.999 L20,20.999 L20,25.706 Z" id="Fill-2"></path>
        </g>
    </g>
</svg>