<?xml version="1.0" encoding="UTF-8" standalone="no"?>
<svg width="48px" height="48px" viewBox="0 0 48 48" version="1.1" xmlns="http://www.w3.org/2000/svg" xmlns:xlink="http://www.w3.org/1999/xlink">
    <!-- Generator: Sketch 3.8.3 (29802) - http://www.bohemiancoding.com/sketch -->
    <title>icons/topic/type_info_48_white</title>
    <desc>Created with Sketch.</desc>
    <defs></defs>
    <g id="Symbols" stroke="none" stroke-width="1" fill="none" fill-rule="evenodd">
        <g id="icons/topic/type_info_48_white">
            <path d="M24,9 C15.716,9 9,15.725 9,24.021 C9,32.317 15.716,39.042 24,39.042 C32.284,39.042 39,32.317 39,24.021 C39,15.725 32.284,9 24,9 M24,10.5 C31.444,10.5 37.5,16.565 37.5,24.021 C37.5,31.476 31.444,37.542 24,37.542 C16.556,37.542 10.5,31.476 10.5,24.021 C10.5,16.565 16.556,10.5 24,10.5" id="Fill-2" fill="#FFFFFF"></path>
            <path d="M24,14 C22.343,14 21,15.345 21,17.004 C21,18.663 22.343,20.008 24,20.008 C25.657,20.008 27,18.663 27,17.004 C27,15.345 25.657,14 24,14 M24,15.565 C24.791,15.565 25.435,16.211 25.435,17.004 C25.435,17.798 24.791,18.443 24,18.443 C23.209,18.443 22.565,17.798 22.565,17.004 C22.565,16.211 23.209,15.565 24,15.565" id="Fill-4" fill="#FFFFFF"></path>
            <path d="M24,22 L24,33" id="Stroke-6" stroke="#FFFFFF" stroke-width="1.5"></path>
        </g>
    </g>
</svg>