<?xml version="1.0" encoding="UTF-8" standalone="no"?>
<svg width="32px" height="32px" viewBox="0 0 32 32" version="1.1" xmlns="http://www.w3.org/2000/svg" xmlns:xlink="http://www.w3.org/1999/xlink">
    <!-- Generator: Sketch 3.8.3 (29802) - http://www.bohemiancoding.com/sketch -->
    <title>icons/topic/topic_work_32_black</title>
    <desc>Created with Sketch.</desc>
    <defs></defs>
    <g id="Symbols" stroke="none" stroke-width="1" fill="none" fill-rule="evenodd">
        <g id="icons/topic/topic_work_32_black" fill="#231F1F">
            <g id="Group" transform="translate(4.350000, 4.350000)">
                <path d="M11.1667,18.6667 C7.0317,18.6667 3.6667,15.3017 3.6667,11.1667 C3.6667,7.0317 7.0317,3.6667 11.1667,3.6667 C15.3017,3.6667 18.6667,7.0317 18.6667,11.1667 C18.6667,15.3017 15.3017,18.6667 11.1667,18.6667 L11.1667,18.6667 Z M21.6667,11.6667 L21.6667,10.6667 L19.6417,10.6667 C19.5947,9.8717 19.4407,9.1067 19.1897,8.3847 L21.0587,7.6107 L20.6757,6.6867 L18.8047,7.4617 C18.4617,6.7577 18.0267,6.1087 17.5107,5.5297 L18.9447,4.0957 L18.2377,3.3887 L16.8037,4.8227 C16.2247,4.3077 15.5767,3.8717 14.8727,3.5287 L15.6467,1.6577 L14.7227,1.2747 L13.9487,3.1437 C13.2267,2.8927 12.4617,2.7387 11.6667,2.6917 L11.6667,0.6667 L10.6667,0.6667 L10.6667,2.6917 C9.8717,2.7387 9.1067,2.8927 8.3847,3.1437 L7.6107,1.2737 L6.6867,1.6567 L7.4617,3.5287 C6.7577,3.8717 6.1087,4.3067 5.5297,4.8227 L4.0957,3.3887 L3.3887,4.0957 L4.8227,5.5297 C4.3067,6.1087 3.8717,6.7577 3.5287,7.4617 L1.6577,6.6867 L1.2747,7.6107 L3.1437,8.3847 C2.8927,9.1067 2.7387,9.8717 2.6917,10.6667 L0.6667,10.6667 L0.6667,11.6667 L2.6917,11.6667 C2.7387,12.4617 2.8927,13.2267 3.1437,13.9487 L1.2747,14.7227 L1.6577,15.6467 L3.5287,14.8717 C3.8717,15.5757 4.3077,16.2247 4.8227,16.8037 L3.3887,18.2387 L4.0957,18.9457 L5.5297,17.5107 C6.1087,18.0267 6.7577,18.4617 7.4617,18.8047 L6.6867,20.6767 L7.6107,21.0597 L8.3847,19.1897 C9.1067,19.4407 9.8717,19.5947 10.6667,19.6417 L10.6667,21.6667 L11.6667,21.6667 L11.6667,19.6417 C12.4617,19.5947 13.2267,19.4407 13.9487,19.1897 L14.7227,21.0587 L15.6467,20.6757 L14.8727,18.8047 C15.5767,18.4617 16.2247,18.0257 16.8037,17.5107 L18.2377,18.9447 L18.9447,18.2377 L17.5107,16.8037 C18.0257,16.2247 18.4617,15.5767 18.8047,14.8727 L20.6757,15.6467 L21.0587,14.7227 L19.1897,13.9487 C19.4407,13.2267 19.5947,12.4617 19.6417,11.6667 L21.6667,11.6667 Z" id="Fill-2"></path>
                <path d="M11.1667,12.6667 C10.3397,12.6667 9.6667,11.9937 9.6667,11.1667 C9.6667,10.3397 10.3397,9.6667 11.1667,9.6667 C11.9937,9.6667 12.6667,10.3397 12.6667,11.1667 C12.6667,11.9937 11.9937,12.6667 11.1667,12.6667 M11.1667,8.6667 C9.7877,8.6667 8.6667,9.7877 8.6667,11.1667 C8.6667,12.5447 9.7877,13.6667 11.1667,13.6667 C12.5447,13.6667 13.6667,12.5447 13.6667,11.1667 C13.6667,9.7877 12.5447,8.6667 11.1667,8.6667" id="Fill-4"></path>
            </g>
        </g>
    </g>
</svg>