<?xml version="1.0" encoding="UTF-8" standalone="no"?>
<svg width="32px" height="32px" viewBox="0 0 32 32" version="1.1" xmlns="http://www.w3.org/2000/svg" xmlns:xlink="http://www.w3.org/1999/xlink">
    <!-- Generator: Sketch 3.8.3 (29802) - http://www.bohemiancoding.com/sketch -->
    <title>icons/topic/type_event_32_col</title>
    <desc>Created with Sketch.</desc>
    <defs></defs>
    <g id="Symbols" stroke="none" stroke-width="1" fill="none" fill-rule="evenodd">
        <g id="icons/topic/type_event_32_col" fill="#814098">
            <polygon id="Fill-2" points="7.667 9 24.666 9 24.666 8 7.667 8"></polygon>
            <polygon id="Fill-3" points="7.667 14.333 24.666 14.333 24.666 13.333 7.667 13.333"></polygon>
            <polygon id="Fill-4" points="7.667 19.666 24.666 19.666 24.666 18.666 7.667 18.666"></polygon>
            <polygon id="Fill-5" points="7.667 25 24.666 25 24.666 24 7.667 24"></polygon>
            <polygon id="Fill-6" points="7.667 25 8.667 25 8.667 8 7.667 8"></polygon>
            <polygon id="Fill-7" points="13 25 14.001 25 14.001 8 13 8"></polygon>
            <polygon id="Fill-8" points="18.333 25 19.333 25 19.333 8 18.333 8"></polygon>
            <polygon id="Fill-9" points="23.666 25 24.666 25 24.666 8 23.666 8"></polygon>
        </g>
    </g>
</svg>