<?xml version="1.0" encoding="UTF-8" standalone="no"?>
<svg width="24px" height="24px" viewBox="0 0 24 24" version="1.1" xmlns="http://www.w3.org/2000/svg" xmlns:xlink="http://www.w3.org/1999/xlink">
    <!-- Generator: Sketch 40.1 (33804) - http://www.bohemiancoding.com/sketch -->
    <title>meta/Icons black/24/mail</title>
    <desc>Created with Sketch.</desc>
    <defs></defs>
    <g id="Symbols" stroke="none" stroke-width="1" fill="none" fill-rule="evenodd">
        <g id="meta/Icons-black/24/mail" fill="#1E1E1E">
            <path d="M12,12.5705882 C10.5375,12.5705882 3,6.989 3,6.989 L3,6.37647059 C3,5.61665882 3.672,5 4.49925,5 L19.5,5 C20.328,5 21,5.61665882 21,6.37647059 L20.988,7.06470588 C20.988,7.06470588 13.533,12.5705882 12,12.5705882 L12,12.5705882 Z M12,14.4632353 C13.6035,14.4632353 20.988,9.12941176 20.988,9.12941176 L21,17.3882353 C21,18.1480471 20.328,18.7647059 19.5,18.7647059 L4.49925,18.7647059 C3.672,18.7647059 3,18.1480471 3,17.3882353 L3.012,9.12941176 C3.012,9.12941176 10.5375,14.4632353 12,14.4632353 L12,14.4632353 Z" id="Shape"></path>
        </g>
    </g>
</svg>