<?xml version="1.0" encoding="UTF-8" standalone="no"?>
<svg width="24px" height="24px" viewBox="0 0 24 24" version="1.1" xmlns="http://www.w3.org/2000/svg" xmlns:xlink="http://www.w3.org/1999/xlink">
    <!-- Generator: Sketch 40 (33762) - http://www.bohemiancoding.com/sketch -->
    <title>Icons black/24/contact person</title>
    <desc>Created with Sketch.</desc>
    <defs></defs>
    <g id="Symbols" stroke="none" stroke-width="1" fill="none" fill-rule="evenodd">
        <g id="Icons-black/24/contact-person" fill="#000000">
            <path d="M12,10.1949934 C13.932195,10.1949934 15.5,8.72002655 15.5,6.89691647 C15.4988395,5.07612734 13.932195,3.60000002 12,3.60000002 C10.067805,3.60000002 8.5,5.07612734 8.5,6.89691647 C8.5,8.71886607 10.067805,10.1949934 12,10.1949934 L12,10.1949934 Z M12.016,11.621 C11.126,11.621 10.311,11.338 9.645,10.875 C6.938,11.458 5,13.013 5,14.844 L5,18.889 C5,19.157 9.033,20.999 12,20.999 C14.988,20.999 19,19.156 19,18.889 L19,14.844 C19,13.018 17.072,11.467 14.38,10.88 C13.715,11.34 12.902,11.621 12.016,11.621 Z" id="Shape"></path>
        </g>
    </g>
</svg>