<?xml version="1.0" encoding="UTF-8" standalone="no"?>
<svg width="48px" height="48px" viewBox="0 0 48 48" version="1.1" xmlns="http://www.w3.org/2000/svg" xmlns:xlink="http://www.w3.org/1999/xlink">
    <!-- Generator: Sketch 40.1 (33804) - http://www.bohemiancoding.com/sketch -->
    <title>topic/black_48/work</title>
    <desc>Created with Sketch.</desc>
    <defs></defs>
    <g id="Symbols" stroke="none" stroke-width="1" fill="none" fill-rule="evenodd">
        <g id="topic/black_48/work" fill="#1E1E1E">
            <path d="M23.75,35 C17.547,35 12.5,29.953 12.5,23.75 C12.5,17.547 17.547,12.5 23.75,12.5 C29.953,12.5 35,17.547 35,23.75 C35,29.953 29.953,35 23.75,35 L23.75,35 Z M39.5,24.5 L39.5,23 L36.462,23 C36.392,21.807 36.161,20.66 35.784,19.577 L38.588,18.416 L38.014,17.03 L35.207,18.193 C34.693,17.136 34.039,16.163 33.266,15.294 L35.417,13.143 L34.356,12.083 L32.206,14.234 C31.337,13.461 30.364,12.808 29.309,12.293 L30.471,9.486 L29.084,8.912 L27.923,11.716 C26.84,11.339 25.693,11.108 24.5,11.038 L24.5,8 L23,8 L23,11.038 C21.808,11.108 20.66,11.339 19.577,11.716 L18.416,8.911 L17.03,9.485 L18.193,12.293 C17.136,12.807 16.163,13.461 15.294,14.234 L13.143,12.083 L12.083,13.143 L14.234,15.294 C13.461,16.163 12.807,17.136 12.293,18.193 L9.486,17.03 L8.912,18.416 L11.716,19.577 C11.339,20.66 11.108,21.807 11.038,23 L8,23 L8,24.5 L11.038,24.5 C11.108,25.692 11.339,26.84 11.715,27.922 L8.912,29.084 L9.486,30.471 L12.293,29.308 C12.807,30.364 13.461,31.337 14.234,32.206 L12.083,34.358 L13.143,35.419 L15.295,33.267 C16.164,34.04 17.137,34.693 18.193,35.207 L17.03,38.015 L18.416,38.589 L19.578,35.785 C20.66,36.161 21.808,36.392 23,36.462 L23,39.5 L24.5,39.5 L24.5,36.462 C25.693,36.392 26.84,36.161 27.923,35.784 L29.084,38.588 L30.471,38.014 L29.309,35.207 C30.364,34.692 31.337,34.039 32.206,33.266 L34.356,35.417 L35.417,34.356 L33.266,32.206 C34.039,31.337 34.692,30.364 35.207,29.309 L38.014,30.471 L38.588,29.084 L35.784,27.923 C36.161,26.84 36.392,25.693 36.462,24.5 L39.5,24.5 Z" id="Fill-2"></path>
            <path d="M23.75,26 C22.509,26 21.5,24.991 21.5,23.75 C21.5,22.509 22.509,21.5 23.75,21.5 C24.991,21.5 26,22.509 26,23.75 C26,24.991 24.991,26 23.75,26 M23.75,20 C21.682,20 20,21.682 20,23.75 C20,25.817 21.682,27.5 23.75,27.5 C25.817,27.5 27.5,25.817 27.5,23.75 C27.5,21.682 25.817,20 23.75,20" id="Fill-4"></path>
        </g>
    </g>
</svg>