<?xml version="1.0" encoding="UTF-8" standalone="no"?>
<svg width="32px" height="32px" viewBox="0 0 32 32" version="1.1" xmlns="http://www.w3.org/2000/svg" xmlns:xlink="http://www.w3.org/1999/xlink">
    <!-- Generator: Sketch 3.8.3 (29802) - http://www.bohemiancoding.com/sketch -->
    <title>icons/topic/topic_leisure_32_black</title>
    <desc>Created with Sketch.</desc>
    <defs></defs>
    <g id="Symbols" stroke="none" stroke-width="1" fill="none" fill-rule="evenodd">
        <g id="icons/topic/topic_leisure_32_black" fill="#231F1F">
            <g id="Group" transform="translate(3.350000, 3.350000)">
                <polygon id="Fill-2" points="11.666 4.667 12.667 4.667 12.667 0.667 11.666 0.667"></polygon>
                <polygon id="Fill-3" points="11.666 23.667 12.667 23.667 12.667 19.667 11.666 19.667"></polygon>
                <polygon id="Fill-4" points="6.5098 7.2168 3.6808 4.3878 4.3878 3.6808 7.2168 6.5098"></polygon>
                <polygon id="Fill-5" points="19.9447 20.6517 17.1167 17.8237 17.8237 17.1167 20.6517 19.9447"></polygon>
                <polygon id="Fill-6" points="0.667 12.667 4.667 12.667 4.667 11.667 0.667 11.667"></polygon>
                <polygon id="Fill-7" points="19.667 12.667 23.667 12.667 23.667 11.667 19.667 11.667"></polygon>
                <polygon id="Fill-8" points="4.388 20.6523 3.681 19.9453 6.51 17.1163 7.217 17.8233"></polygon>
                <polygon id="Fill-9" points="17.8236 7.2168 17.1166 6.5098 19.9446 3.6808 20.6516 4.3878"></polygon>
                <path d="M12.1667,7.6667 C9.6857,7.6667 7.6667,9.6857 7.6667,12.1667 C7.6667,14.6477 9.6857,16.6667 12.1667,16.6667 C14.6477,16.6667 16.6667,14.6477 16.6667,12.1667 C16.6667,9.6857 14.6477,7.6667 12.1667,7.6667 M12.1667,17.6667 C9.1337,17.6667 6.6667,15.1997 6.6667,12.1667 C6.6667,9.1337 9.1337,6.6667 12.1667,6.6667 C15.1997,6.6667 17.6667,9.1337 17.6667,12.1667 C17.6667,15.1997 15.1997,17.6667 12.1667,17.6667" id="Fill-10"></path>
            </g>
        </g>
    </g>
</svg>