<?xml version="1.0" encoding="UTF-8" standalone="no"?>
<svg width="20px" height="16px" viewBox="0 0 20 16" version="1.1" xmlns="http://www.w3.org/2000/svg" xmlns:xlink="http://www.w3.org/1999/xlink">
    <!-- Generator: Sketch 39.1 (31720) - http://www.bohemiancoding.com/sketch -->
    <title>glyphs/Icons black/24/mail</title>
    <desc>Created with Sketch.</desc>
    <defs></defs>
    <g id="Single" stroke="none" stroke-width="1" fill="none" fill-rule="evenodd">
        <g id="m/single" transform="translate(-51.000000, -888.000000)" fill="#000000">
            <g id="nav/Icons-black/24/mail" transform="translate(49.000000, 884.000000)">
                <g id="mail-24" transform="translate(2.000000, 4.000000)">
                    <g id="Layer_1">
                        <path d="M10,8.8 C8.375,8.8 0,2.312 0,2.312 L0,1.6 C0,0.7168 0.746666667,0 1.66583333,0 L18.3333333,0 C19.2533333,0 20,0.7168 20,1.6 L19.9866667,2.4 C19.9866667,2.4 11.7033333,8.8 10,8.8 L10,8.8 Z M10,11 C11.7816667,11 19.9866667,4.8 19.9866667,4.8 L20,14.4 C20,15.2832 19.2533333,16 18.3333333,16 L1.66583333,16 C0.746666667,16 0,15.2832 0,14.4 L0.0133333333,4.8 C0.0133333333,4.8 8.375,11 10,11 L10,11 Z" id="Shape"></path>
                    </g>
                </g>
            </g>
        </g>
    </g>
</svg>