<?xml version="1.0" encoding="UTF-8" standalone="no"?>
<svg width="48px" height="48px" viewBox="0 0 48 48" version="1.1" xmlns="http://www.w3.org/2000/svg" xmlns:xlink="http://www.w3.org/1999/xlink">
    <!-- Generator: Sketch 3.8.3 (29802) - http://www.bohemiancoding.com/sketch -->
    <title>icons/topic/topic_health_48_white</title>
    <desc>Created with Sketch.</desc>
    <defs></defs>
    <g id="Symbols" stroke="none" stroke-width="1" fill="none" fill-rule="evenodd">
        <g id="icons/topic/topic_health_48_white" fill="#FFFFFF">
            <path d="M24.252,35.9072 L24.251,35.9092 L14.351,26.0112 C14.038,25.6972 13.761,25.3582 13.516,25.0002 L18.561,25.0002 L21.25,22.3102 L27.25,28.3102 L30.561,25.0002 L34.983,25.0002 C34.739,25.3582 34.462,25.6972 34.148,26.0112 L24.252,35.9072 Z M14.351,16.1112 C15.7,14.7622 17.503,14.0782 19.31,14.0782 C20.895,14.0782 22.483,14.6052 23.767,15.6752 L24.247,16.0742 L24.727,15.6752 C27.475,13.3882 31.612,13.5772 34.146,16.1122 C35.467,17.4312 36.194,19.1892 36.194,21.0612 C36.194,21.9082 36.038,22.7292 35.753,23.5002 L29.939,23.5002 L27.25,26.1892 L21.25,20.1892 L17.94,23.5002 L12.746,23.5002 C12.461,22.7292 12.305,21.9082 12.305,21.0602 C12.305,19.1882 13.032,17.4312 14.351,16.1112 L14.351,16.1112 Z M35.206,15.0512 C32.275,12.1202 27.574,11.7712 24.247,14.1512 C20.922,11.7702 16.221,12.1202 13.291,15.0512 C11.688,16.6542 10.805,18.7882 10.805,21.0602 C10.805,23.3332 11.688,25.4682 13.291,27.0712 L24.25,38.0242 L35.209,27.0712 C36.813,25.4682 37.695,23.3332 37.694,21.0612 C37.694,18.7882 36.811,16.6542 35.206,15.0512 L35.206,15.0512 Z" id="Fill-2"></path>
        </g>
    </g>
</svg>