<?xml version="1.0" encoding="UTF-8" standalone="no"?>
<svg width="48px" height="48px" viewBox="0 0 48 48" version="1.1" xmlns="http://www.w3.org/2000/svg" xmlns:xlink="http://www.w3.org/1999/xlink">
    <!-- Generator: Sketch 40.1 (33804) - http://www.bohemiancoding.com/sketch -->
    <title>topic/white_48/city</title>
    <desc>Created with Sketch.</desc>
    <defs></defs>
    <g id="Symbols" stroke="none" stroke-width="1" fill="none" fill-rule="evenodd">
        <g id="topic/white_48/city" fill="#FFFFFF">
            <polygon id="Fill-2" points="11.5 19 37 19 37 17.5 11.5 17.5"></polygon>
            <polygon id="Fill-3" points="11.5 20.5 11.5 35.5 13 35.5 13 22 16 22 16 35.5 17.5 35.5 17.5 22 20.5 22 20.5 35.5 22 35.5 22 22 26.5 22 26.5 35.5 28 35.5 28 22 31 22 31 35.5 32.5 35.5 32.5 22 35.5 22 35.5 35.5 37 35.5 37 20.5"></polygon>
            <path d="M24.438,11.5 C25.265,11.5 25.938,12.173 25.938,13 C25.938,13.827 25.265,14.5 24.438,14.5 C23.611,14.5 22.938,13.827 22.938,13 C22.938,12.173 23.611,11.5 24.438,11.5 M24.438,16 C26.093,16 27.438,14.654 27.438,13 C27.438,11.346 26.093,10 24.438,10 C22.784,10 21.438,11.346 21.438,13 C21.438,14.654 22.784,16 24.438,16" id="Fill-4"></path>
        </g>
    </g>
</svg>