<svg xmlns="http://www.w3.org/2000/svg" width="24" height="24" viewBox="0 0 24 24">
  <path fill="#802651" fill-rule="evenodd" d="M10.9470346,18.9883299 L10.9462205,18.989958 L2.88675426,10.9324192 C2.63194488,10.6768052 2.40644264,10.4008398 2.2069912,10.1094073 L6.31406262,10.1094073 L8.5031439,7.91959328 L13.3876689,12.8039369 L16.0831126,10.1094073 L19.6830075,10.1094073 C19.4843701,10.4008398 19.2588679,10.6768052 19.0032444,10.9324192 L10.9470346,18.9883299 Z M2.88675426,2.87325229 C3.9849583,1.77508904 5.45275805,1.21827387 6.92381416,1.21827387 C8.21414284,1.21827387 9.50691379,1.64728205 10.5522021,2.51832332 L10.9429641,2.84313217 L11.3337261,2.51832332 C13.5708386,0.656574356 16.9387185,0.810431179 19.0016163,2.87406635 C20.0770258,3.94780788 20.6688675,5.37892056 20.6688675,6.90283576 C20.6688675,7.59234226 20.5418698,8.26068328 20.3098549,8.88832143 L15.5767502,8.88832143 L13.3876689,11.0773214 L8.5031439,6.19297782 L5.80851429,8.88832143 L1.58014383,8.88832143 C1.34812889,8.26068328 1.22113125,7.59234226 1.22113125,6.9020217 C1.22113125,5.3781065 1.81297286,3.94780788 2.88675426,2.87325229 L2.88675426,2.87325229 Z M10.9429641,1.27770005 C8.2361232,-0.660570301 4.40909788,-0.375650258 2.02382152,2.01035159 C0.71883926,3.31528539 0,5.05248359 0,6.9020217 C0,8.75237387 0.71883926,10.4903861 2.02382152,11.7953199 L10.9454064,20.7116892 L19.8669913,11.7953199 C21.1727876,10.4903861 21.8908128,8.75237387 21.8899987,6.90283576 C21.8899987,5.05248359 21.1711594,3.31528539 19.864549,2.01035159 C17.4784586,-0.375650258 13.6514332,-0.659756244 10.9429641,1.27770005 Z" transform="translate(1 2)"/>
</svg>
