<?xml version="1.0" encoding="UTF-8"?>
<svg width="24px" height="24px" viewBox="0 0 24 24" version="1.1" xmlns="http://www.w3.org/2000/svg" xmlns:xlink="http://www.w3.org/1999/xlink">
    <!-- Generator: Sketch 43.2 (39069) - http://www.bohemiancoding.com/sketch -->
    <title>icon-category-mobility</title>
    <desc>Created with Sketch.</desc>
    <defs>
        <polygon id="path-1" points="12.0002 15 24 15 24 0 12.0002 0 0.0004 0 0.0004 15 12.0002 15"></polygon>
    </defs>
    <g id="Symbols" stroke="none" stroke-width="1" fill="none" fill-rule="evenodd">
        <g id="icon-category-mobility">
            <g id="Page-1" transform="translate(0.000000, 5.000000)">
                <mask id="mask-2" fill="white">
                    <use xlink:href="#path-1"></use>
                </mask>
                <g id="Clip-2"></g>
                <path d="M21.9494,12 C21.7174,10.86 20.7074,10 19.5004,10 C18.2924,10 17.2824,10.86 17.0504,12 L16.0004,12 L16.0004,8 L23.0004,8 L23.0004,12 L21.9494,12 Z M19.5004,14 C18.6714,14 18.0004,13.328 18.0004,12.5 C18.0004,11.672 18.6714,11 19.5004,11 C20.3284,11 21.0004,11.672 21.0004,12.5 C21.0004,13.328 20.3284,14 19.5004,14 L19.5004,14 Z M6.9494,12 C6.7174,10.86 5.7074,10 4.5004,10 C3.2924,10 2.2824,10.86 2.0504,12 L1.0004,12 L1.0004,8 L15.0004,8 L15.0004,12 L6.9494,12 Z M4.5004,14 C3.6714,14 3.0004,13.328 3.0004,12.5 C3.0004,11.672 3.6714,11 4.5004,11 C5.3284,11 6.0004,11.672 6.0004,12.5 C6.0004,13.328 5.3284,14 4.5004,14 L4.5004,14 Z M1.0004,7 L5.0004,7 L5.0004,1 L1.0004,1 L1.0004,7 Z M6.0004,7 L10.0004,7 L10.0004,1 L6.0004,1 L6.0004,7 Z M11.0004,7 L15.0004,7 L15.0004,1 L11.0004,1 L11.0004,7 Z M20.1794,1 L22.9494,7 L16.0004,7 L16.0004,1 L20.1794,1 Z M20.8204,0 L0.0004,0 L0.0004,12.991 L0.0004,13 L2.0494,12.991 C2.2784,14.135 3.2894,15 4.5004,15 C5.7084,15 6.7184,14.138 6.9494,12.997 L17.0504,12.997 C17.2814,14.138 18.2914,15 19.5004,15 C20.7104,15 21.7214,14.135 21.9504,12.991 L24.0004,12.991 L24.0004,7 L20.8204,0 Z" id="Fill-1" fill="#ffffff" mask="url(#mask-2)"></path>
            </g>
        </g>
    </g>
</svg>