<svg xmlns="http://www.w3.org/2000/svg" width="24" height="24" viewBox="0 0 24 24">
  <g fill="#802651" fill-rule="evenodd" transform="translate(1 1)">
    <path d="M10.828125,18.5625 C6.5635625,18.5625 3.09375,15.0926875 3.09375,10.828125 C3.09375,6.5635625 6.5635625,3.09375 10.828125,3.09375 C15.0926875,3.09375 18.5625,6.5635625 18.5625,10.828125 C18.5625,15.0926875 15.0926875,18.5625 10.828125,18.5625 L10.828125,18.5625 Z M21.65625,11.34375 L21.65625,10.3125 L19.567625,10.3125 C19.5195,9.4923125 19.3606875,8.70375 19.1015,7.9591875 L21.02925,7.161 L20.634625,6.208125 L18.7048125,7.0076875 C18.3514375,6.281 17.9018125,5.6120625 17.370375,5.014625 L18.8491875,3.5358125 L18.11975,2.8070625 L16.641625,4.285875 C16.0441875,3.7544375 15.37525,3.3055 14.6499375,2.9514375 L15.4488125,1.021625 L14.49525,0.627 L13.6970625,2.55475 C12.9525,2.2955625 12.1639375,2.13675 11.34375,2.088625 L11.34375,0 L10.3125,0 L10.3125,2.088625 C9.493,2.13675 8.70375,2.2955625 7.9591875,2.55475 L7.161,0.6263125 L6.208125,1.0209375 L7.0076875,2.9514375 C6.281,3.3048125 5.6120625,3.7544375 5.014625,4.285875 L3.5358125,2.8070625 L2.8070625,3.5358125 L4.285875,5.014625 C3.7544375,5.6120625 3.3048125,6.281 2.9514375,7.0076875 L1.021625,6.208125 L0.627,7.161 L2.55475,7.9591875 C2.2955625,8.70375 2.13675,9.4923125 2.088625,10.3125 L0,10.3125 L0,11.34375 L2.088625,11.34375 C2.13675,12.16325 2.2955625,12.9525 2.5540625,13.696375 L0.627,14.49525 L1.021625,15.4488125 L2.9514375,14.64925 C3.3048125,15.37525 3.7544375,16.0441875 4.285875,16.641625 L2.8070625,18.121125 L3.5358125,18.8505625 L5.0153125,17.3710625 C5.61275,17.9025 6.2816875,18.3514375 7.0076875,18.7048125 L6.208125,20.6353125 L7.161,21.0299375 L7.959875,19.1021875 C8.70375,19.3606875 9.493,19.5195 10.3125,19.567625 L10.3125,21.65625 L11.34375,21.65625 L11.34375,19.567625 C12.1639375,19.5195 12.9525,19.3606875 13.6970625,19.1015 L14.49525,21.02925 L15.4488125,20.634625 L14.6499375,18.7048125 C15.37525,18.35075 16.0441875,17.9018125 16.641625,17.370375 L18.11975,18.8491875 L18.8491875,18.11975 L17.370375,16.641625 C17.9018125,16.0441875 18.35075,15.37525 18.7048125,14.6499375 L20.634625,15.4488125 L21.02925,14.49525 L19.1015,13.6970625 C19.3606875,12.9525 19.5195,12.1639375 19.567625,11.34375 L21.65625,11.34375 Z"/>
    <path d="M10.828125,12.375 C9.9749375,12.375 9.28125,11.6813125 9.28125,10.828125 C9.28125,9.9749375 9.9749375,9.28125 10.828125,9.28125 C11.6813125,9.28125 12.375,9.9749375 12.375,10.828125 C12.375,11.6813125 11.6813125,12.375 10.828125,12.375 M10.828125,8.25 C9.406375,8.25 8.25,9.406375 8.25,10.828125 C8.25,12.2491875 9.406375,13.40625 10.828125,13.40625 C12.2491875,13.40625 13.40625,12.2491875 13.40625,10.828125 C13.40625,9.406375 12.2491875,8.25 10.828125,8.25"/>
  </g>
</svg>
