<svg xmlns="http://www.w3.org/2000/svg" width="24" height="24" viewBox="0 0 24 24">
  <path fill="#802651" fill-rule="evenodd" d="M12,3 C7.0293,3 3,7.02819859 3,11.9986501 C3,16.9700015 7.0293,21 12,21 C16.9707,21 21,16.9700015 21,11.9986501 C21,7.02819859 16.9707,3 12,3 L12,3 Z M12,17.39928 C9.0183,17.39928 6.6,14.9811009 6.6,11.9986501 C6.6,9.0179991 9.0183,6.60071996 12,6.60071996 C14.9826,6.60071996 17.4,9.0179991 17.4,11.9986501 C17.4,14.9811009 14.9826,17.39928 12,17.39928 L12,17.39928 Z M12,9.29968502 C10.5087,9.29968502 9.3,10.5083246 9.3,11.9986501 C9.3,13.4907755 10.5087,14.699415 12,14.699415 C13.4913,14.699415 14.7,13.4907755 14.7,11.9986501 C14.7,10.5083246 13.4913,9.29968502 12,9.29968502 L12,9.29968502 Z"/>
</svg>
