<?xml version="1.0" encoding="UTF-8" standalone="no"?>
<svg width="48px" height="48px" viewBox="0 0 48 48" version="1.1" xmlns="http://www.w3.org/2000/svg" xmlns:xlink="http://www.w3.org/1999/xlink">
    <!-- Generator: Sketch 40.1 (33804) - http://www.bohemiancoding.com/sketch -->
    <title>topic/white_48/encounters</title>
    <desc>Created with Sketch.</desc>
    <defs></defs>
    <g id="Symbols" stroke="none" stroke-width="1" fill="none" fill-rule="evenodd">
        <g id="topic/white_48/encounters" fill="#FFFFFF">
            <path d="M15.25,14.5002 C14.009,14.5002 13,15.5092 13,16.7502 L13,28.7492 C13,29.9892 14.009,30.9992 15.25,30.9992 L24.561,30.9992 L29.5,35.9382 L29.5,30.9992 L33.25,30.9992 C34.49,30.9992 35.5,29.9892 35.5,28.7492 L35.5,16.7502 C35.5,15.5092 34.49,14.5002 33.25,14.5002 L15.25,14.5002 Z M31,39.5602 L23.939,32.4992 L15.25,32.4992 C13.182,32.4992 11.5,30.8162 11.5,28.7492 L11.5,16.7502 C11.5,14.6822 13.182,13.0002 15.25,13.0002 L33.25,13.0002 C35.317,13.0002 37,14.6822 37,16.7502 L37,28.7492 C37,30.8162 35.317,32.4992 33.25,32.4992 L31,32.4992 L31,39.5602 Z" id="Fill-2"></path>
        </g>
    </g>
</svg>