<?xml version="1.0" encoding="UTF-8" standalone="no"?>
<svg width="48px" height="48px" viewBox="0 0 48 48" version="1.1" xmlns="http://www.w3.org/2000/svg" xmlns:xlink="http://www.w3.org/1999/xlink">
    <!-- Generator: Sketch 40.1 (33804) - http://www.bohemiancoding.com/sketch -->
    <title>topic/white_48/law</title>
    <desc>Created with Sketch.</desc>
    <defs></defs>
    <g id="Symbols" stroke="none" stroke-width="1" fill="none" fill-rule="evenodd">
        <g id="topic/white_48/law" stroke="#FFFFFF" stroke-width="1.5">
            <g id="Page-1" transform="translate(18.000000, 8.000000)">
                <path d="M1.538,16.78 L8.432,23.674" id="Stroke-1"></path>
                <g id="Group-6" transform="translate(0.000000, 9.500000)">
                    <path d="M2.068,14.175 C0.311,15.932 0.311,18.781 2.068,20.539 C3.825,22.296 6.675,22.296 8.432,20.539 C10.19,18.781 10.19,15.932 8.432,14.175" id="Stroke-2"></path>
                    <path d="M1.538,0.917 C-0.219,2.674 -0.219,5.524 1.538,7.281" id="Stroke-4"></path>
                </g>
                <path d="M8.962,15.72 L2.068,8.826" id="Stroke-7"></path>
                <g id="Group-12" transform="translate(0.000000, 0.500000)">
                    <path d="M8.432,8.325 C10.19,6.568 10.19,3.718 8.432,1.961 C6.675,0.204 3.828,0.204 2.068,1.961 C0.311,3.718 0.311,6.568 2.068,8.325" id="Stroke-8"></path>
                    <path d="M8.962,21.584 C10.721,19.826 10.721,16.977 8.962,15.22" id="Stroke-10"></path>
                </g>
                <path d="M1.538,10.417 L2.599,9.355" id="Stroke-13"></path>
                <path d="M7.9,23.145 L8.963,22.083" id="Stroke-14"></path>
            </g>
        </g>
    </g>
</svg>