<svg xmlns="http://www.w3.org/2000/svg" width="48" height="48" viewBox="0 0 48 48" xmlns:xlink="http://www.w3.org/1999/xlink">
  <defs>
    <rect id="a" width="24" height="30" x="12" y="9"/>
    <path id="b" d="M9,36.5 C9,33.4624339 11.4550259,31 14.5024624,31 L33.4975376,31 C36.5364637,31 39,33.4686147 39,36.5 L39,42 L9,42 L9,36.5 Z"/>
  </defs>
  <g fill="none" fill-rule="evenodd">
    <use fill="#FFFFFF" xlink:href="#a"/>
    <rect width="22" height="28" x="13" y="10" stroke="#802651" stroke-width="2"/>
    <rect width="16" height="2" x="16" y="13" fill="#802651"/>
    <rect width="13" height="2" x="16" y="17" fill="#802651"/>
    <rect width="16" height="2" x="16" y="21" fill="#802651"/>
    <g>
      <use fill="#FFFFFF" xlink:href="#b"/>
      <path stroke="#802651" stroke-width="2" d="M38,41 L10,41 L10,36.5 C10,34.0116385 12.010389,32 14.5024624,32 L33.4975376,32 C35.9819714,32 38,34.0186913 38,36.5 L38,41 Z"/>
    </g>
  </g>
</svg>
