<svg xmlns="http://www.w3.org/2000/svg" width="24" height="24" viewBox="0 0 24 24">
  <g fill="none" fill-rule="evenodd">
    <rect width="17" height="17" x="3.5" y="3.5" stroke="#802651" rx="1"/>
    <path fill="#802651" d="M16.829,8.11025 C16.683,7.96325 16.445,7.96325 16.299,8.11025 L10.706,13.67825 C10.56,13.82525 10.321,13.82525 10.175,13.67825 L7.725,11.18125 C7.652,11.10725 7.557,11.07125 7.462,11.07025 C7.365,11.07025 7.267,11.10625 7.194,11.18025 L6.111,12.15525 C6.039,12.22925 6,12.32225 6,12.41925 C6,12.51625 6.039,12.61825 6.111,12.69025 L10.175,16.89025 C10.321,17.03625 10.56,17.03625 10.706,16.89025 L17.891,9.71625 C18.037,9.57025 18.037,9.32825 17.891,9.18125 L16.829,8.11025 L16.829,8.11025 Z"/>
  </g>
</svg>
