<svg xmlns="http://www.w3.org/2000/svg" width="24" height="24" viewBox="0 0 24 24">
  <path fill="#1E1E1E" fill-rule="evenodd" d="M19.434875,4.56591667 L19.434875,4.56591667 C18.4247083,3.55575 17.0828333,3 15.65625,3 C14.228875,3 12.8877917,3.55575 11.8784167,4.56591667 C11.8784167,4.56591667 8.5075,7.93525 8.31433333,8.127625 C7.308125,9.134625 6.752375,10.478875 6.75,11.9149583 C6.752375,13.34075 7.308125,14.6794583 8.315125,15.6856667 L8.75054167,16.1210833 C8.866125,16.2366667 9.018125,16.29525 9.170125,16.29525 C9.32133333,16.29525 9.474125,16.2374583 9.58970833,16.1210833 L10.4296667,15.281125 C10.661625,15.0491667 10.661625,14.673125 10.4296667,14.4411667 L9.99425,14.0065417 C8.85583333,12.8673333 8.84,10.999 9.96020833,9.84079167 C9.99504167,9.80516667 13.5575417,6.24425 13.5575417,6.24425 C14.1180417,5.68375 14.8637917,5.375 15.6570417,5.375 C16.4487083,5.375 17.1936667,5.68375 17.7541667,6.24345833 C17.7549583,6.24345833 17.7549583,6.24504167 17.7549583,6.24504167 C18.91475,7.40641667 18.91475,9.28345833 17.75575,10.44325 L17.5720833,10.626125 C17.86025,11.398 18.0304583,12.2245 18.03125,13.09375 C18.03125,13.2512917 18.009875,13.4032917 17.9995833,13.5576667 L19.434875,12.122375 C21.5225,10.03475 21.5209167,6.650375 19.434875,4.56591667 L19.434875,4.56591667 Z M14.25025,8.87970833 C14.1346667,8.764125 13.9826667,8.70554167 13.8306667,8.70554167 C13.6794583,8.70554167 13.5266667,8.76333333 13.4110833,8.87970833 L12.571125,9.71966667 C12.3391667,9.951625 12.3391667,10.3276667 12.571125,10.559625 L13.0065417,10.99425 C14.1449583,12.1334583 14.1607917,14.0017917 13.0405833,15.16 C13.00575,15.195625 9.44325,18.7565417 9.44325,18.7565417 C8.88195833,19.31625 8.13620833,19.625 7.34295833,19.625 C6.55129167,19.625 5.80633333,19.31625 5.24583333,18.7565417 L5.24504167,18.7549583 C4.08525,17.5935833 4.08525,15.7165417 5.24425,14.55675 L5.42791667,14.373875 C5.13975,13.6027917 4.96954167,12.7755 4.96875,11.90625 C4.96875,11.7487083 4.990125,11.5967083 4.999625,11.4423333 L3.565125,12.877625 C1.47829167,14.96525 1.479875,18.3488333 3.565125,20.4340833 L3.56591667,20.4340833 C4.57529167,21.44425 5.91716667,22 7.34375,22 C8.771125,22 10.1122083,21.44425 11.1215833,20.4340833 C11.1215833,20.4340833 14.4932917,17.06475 14.6856667,16.872375 C15.691875,15.865375 16.247625,14.5203333 16.25,13.0850417 C16.247625,11.65925 15.691875,10.3205417 14.684875,9.31433333 L14.25025,8.87970833 L14.25025,8.87970833 Z"/>
</svg>
