<svg xmlns="http://www.w3.org/2000/svg" width="24" height="24" viewBox="0 0 24 24">
  <path fill="#1E1E1E" fill-rule="evenodd" d="M12,9.53713528 C14.2082228,9.53713528 16,7.85145889 16,5.76790451 C15.9986737,3.68700265 14.2082228,2 12,2 C9.79177719,2 8,3.68700265 8,5.76790451 C8,7.85013263 9.79177719,9.53713528 12,9.53713528 L12,9.53713528 Z M12.0182857,11.1668571 C11.0011429,11.1668571 10.0697143,10.8434285 9.30857143,10.3142857 C6.21485714,10.9805714 4,12.7577143 4,14.8502857 L4,19.4731428 C4,19.7794285 8.60914286,21.8845714 12,21.8845714 C15.4148571,21.8845714 20,19.7782857 20,19.4731428 L20,14.8502857 C20,12.7634285 17.7965714,10.9908571 14.72,10.32 C13.96,10.8457143 13.0308571,11.1668571 12.0182857,11.1668571 Z"/>
</svg>
