<svg xmlns="http://www.w3.org/2000/svg" width="32" height="32" viewBox="0 0 32 32">
  <g fill="#802651" fill-rule="evenodd">
    <polygon points="7.667 9 24.666 9 24.666 8 7.667 8"/>
    <polygon points="7.667 14.333 24.666 14.333 24.666 13.333 7.667 13.333"/>
    <polygon points="7.667 19.666 24.666 19.666 24.666 18.666 7.667 18.666"/>
    <polygon points="7.667 25 24.666 25 24.666 24 7.667 24"/>
    <polygon points="7.667 25 8.667 25 8.667 8 7.667 8"/>
    <polygon points="13 25 14.001 25 14.001 8 13 8"/>
    <polygon points="18.333 25 19.333 25 19.333 8 18.333 8"/>
    <polygon points="23.666 25 24.666 25 24.666 8 23.666 8"/>
  </g>
</svg>
