<?xml version="1.0" encoding="UTF-8"?>
<svg width="240px" height="48px" viewBox="0 0 240 48" version="1.1" xmlns="http://www.w3.org/2000/svg" xmlns:xlink="http://www.w3.org/1999/xlink">
    <!-- Generator: Sketch 43.2 (39069) - http://www.bohemiancoding.com/sketch -->
    <title>logo_small@2x</title>
    <desc>Created with Sketch.</desc>
    <defs></defs>
    <g id="Symbols" stroke="none" stroke-width="1" fill="none" fill-rule="evenodd">
        <g id="logo_small">
            <g id="Group-2" transform="translate(24.000000, 0.000000)">
                <text id="senioren-netz" font-family="Biryani-Heavy, Biryani" font-size="24" font-weight="600" line-spacing="32" letter-spacing="1" fill="#FFFFFF">
                    <tspan x="16" y="38">senioren netz</tspan>
                </text>
                <rect id="Rectangle-4" x="0" y="0" width="210" height="48"></rect>
            </g>
            <g id="Page-1" transform="translate(0.000000, 8.000000)" fill="#FFFFFF">
                <path d="M13.1962353,7.52941176 C13.1896471,7.55294118 13.1830588,7.57552941 13.1764706,7.59905882 C13.2056471,7.6 13.2357647,7.60094118 13.2649412,7.60188235 C13.2414118,7.57741176 13.2197647,7.55294118 13.1962353,7.52941176" id="Fill-1"></path>
                <path d="M9.41176471,3.40804572 C8.70351589,2.86924577 7.97582826,2.35947208 7.22701149,1.88235294 C6.32268425,2.49281147 5.48005409,3.19216291 4.70588235,3.97315071 C6.03279243,4.74053245 7.29631508,5.61676266 8.48884381,6.58823529 C8.75084517,5.50791419 9.05933063,4.44664157 9.41176471,3.40804572" id="Fill-3"></path>
                <path d="M19.8739032,28.7524083 C19.8739032,29.530227 19.8341241,30.2977065 19.7717257,31.0588235 C20.7396815,30.8186382 21.6701982,30.4861963 22.5562561,30.0678603 C22.5741956,29.631232 22.5882353,29.1938085 22.5882353,28.7524083 C22.5882353,28.0986589 22.560936,27.451272 22.520377,26.8070664 C21.5906402,26.690155 20.6694833,26.5438169 19.7647059,26.3529412 C19.8325642,27.1442802 19.8739032,27.9435724 19.8739032,28.7524083" id="Fill-5"></path>
                <path d="M20.6387607,18.8235294 C19.7348273,19.2213725 18.8191107,19.5914591 17.8823529,19.911584 C18.0843492,20.5333295 18.2661459,21.1652523 18.4336345,21.8036517 C19.4848569,22.1228514 20.5562788,22.3856129 21.6470588,22.5882353 C21.3726805,21.3058852 21.038545,20.048516 20.6387607,18.8235294" id="Fill-7"></path>
                <path d="M27.2361264,15.0588235 C26.338336,15.627538 25.4182082,16.1661882 24.4705882,16.6614124 C26.5642871,18.2715173 28.8667544,19.6335926 31.3324563,20.7058824 C31.6451795,19.7747273 31.8642575,18.805992 32,17.8096978 C30.3186834,17.03805 28.724998,16.114411 27.2361264,15.0588235" id="Fill-9"></path>
                <path d="M22.7671032,11.2941176 C21.8037197,11.5185361 20.8225705,11.7029045 19.8252706,11.8486039 C19.8042749,11.8865824 19.7857017,11.9259419 19.7647059,11.9639204 C20.1498978,12.3775409 20.5455876,12.7835657 20.9582355,13.1764706 C21.839251,12.8222347 22.6968481,12.4327824 23.5294118,12.0115662 C23.2701946,11.77679 23.0158225,11.5378706 22.7671032,11.2941176" id="Fill-11"></path>
                <path d="M1.59482682,16.3271085 C1.05893071,16.2307509 0.52732177,16.1217148 0,16 C0.037727086,17.0641591 0.171486754,18.1012705 0.40470874,19.1045722 C2.11271681,19.4443593 3.86359658,19.6666579 5.64705882,19.7647059 C4.21514442,18.7123801 2.86211393,17.5620064 1.59482682,16.3271085" id="Fill-13"></path>
                <path d="M31.0588235,11.2744926 C30.7409482,10.2956391 30.3334371,9.35715924 29.8412698,8.47058824 C26.6533873,11.519206 22.853823,13.9375015 18.6417678,15.5227827 C18.4583463,16.6482994 18.2018882,17.7490976 17.8823529,18.8235294 C22.8231144,17.2563751 27.3032472,14.6568105 31.0588235,11.2744926" id="Fill-15"></path>
                <path d="M11.2941176,28.430241 C10.793872,27.4503173 10.3418643,26.443582 9.94077449,25.4117647 C8.92420385,26.5395851 7.80222431,27.5748619 6.58823529,28.502892 C7.48153111,29.1256149 8.43735763,29.666173 9.4467819,30.1176471 C10.0881683,29.5822783 10.7045424,29.0192331 11.2941176,28.430241" id="Fill-17"></path>
                <path d="M17.8823529,3.65708538 C17.6102896,2.73036727 17.2937543,1.82389087 16.9301312,0.941176471 C16.2150928,2.18208106 15.5881263,3.48195062 15.0588235,4.83022426 C15.304727,5.71117851 15.5061585,6.6114944 15.6543981,7.52941176 C16.0485412,7.51709073 16.4400683,7.49684902 16.8307234,7.46868665 C17.2623624,6.2330625 17.6181376,4.96223539 17.8823529,3.65708538" id="Fill-19"></path>
                <path d="M17.1966232,20.7058824 C17.9486999,18.9119547 18.5036807,17.0226935 18.8235294,15.0588235 C17.7230769,16.7731685 16.4635645,18.38389 15.0588235,19.8669476 C15.7607618,20.1670409 16.4704802,20.4522124 17.1966232,20.7058824" id="Fill-21"></path>
                <path d="M27.1095858,23.586256 C22.2402558,23.586256 17.6200849,22.5495441 13.4619311,20.7058824 C13.3654026,20.8012853 13.2738242,20.9006633 13.1764706,20.9944762 C13.4182045,22.0073374 13.7168656,22.999528 14.0774039,23.9646877 C18.1167533,25.4998799 22.5108658,26.3529412 27.1095858,26.3529412 C27.4412481,26.3529412 27.7687852,26.3378357 28.0987974,26.3282954 C28.8784512,25.4474083 29.5566263,24.4830436 30.1176471,23.4479218 C29.1259604,23.5353744 28.1243733,23.586256 27.1095858,23.586256" id="Fill-23"></path>
                <path d="M7.33699697,16.9761243 C4.8687252,15.1039175 2.67803544,12.8709587 0.841420439,10.3529412 C0.441607728,11.4376132 0.156928461,12.5762371 0,13.7599549 C1.88708445,16.0307606 4.05253949,18.0495229 6.4435299,19.7647059 C6.81416496,19.4812578 7.175337,19.1865362 7.52941176,18.8845674 C7.44661032,18.2540564 7.38273491,17.6179088 7.33699697,16.9761243" id="Fill-25"></path>
                <path d="M12.2352941,12.5939177 C11.328314,12.5164685 10.4322145,12.3977691 9.54855006,12.2352941 C9.46150483,13.2328738 9.41176471,14.2413975 9.41176471,15.2625487 C9.41176471,16.466379 9.48015738,17.6533726 9.60062175,18.8235294 C10.5068247,17.9252868 11.353184,16.9580133 12.1327051,15.9292855 C12.128042,15.7070399 12.1171613,15.4856361 12.1171613,15.2625487 C12.1171613,14.3626223 12.1606839,13.4727981 12.2352941,12.5939177" id="Fill-27"></path>
                <path d="M12.7983268,21.6470588 C12.0177778,22.3628747 11.2020915,23.042405 10.3529412,23.6815264 C11.2489412,26.6049911 12.5699346,29.3478526 14.2439739,31.8424875 C14.9542484,31.9348509 15.6737255,32 16.409098,32 C16.9068758,32 17.3962876,31.9694871 17.8823529,31.9266041 C15.5298301,28.9181981 13.7738039,25.4356052 12.7983268,21.6470588" id="Fill-32"></path>
                <path d="M16,0 C14.6748521,0.0161120423 13.3907802,0.180624474 12.1531421,0.463857218 C10.9878335,2.57962277 10.0591584,4.83022068 9.41176471,7.18936287 C10.438665,7.3538753 11.4816386,7.46920361 12.5406853,7.52941176 C13.3211296,4.84548472 14.4926889,2.31504608 16,0" id="Fill-29"></path>
                <path d="M20.7058824,0.712769146 C19.893292,0.397370751 19.0488789,0.157699198 18.1748633,0 C18.0261104,2.28741906 17.6035338,4.49442713 16.9411765,6.58823529 C17.9077001,6.47269331 18.8564623,6.29547688 19.7859827,6.06361222 C20.2433423,4.33750863 20.5549093,2.54973059 20.7058824,0.712769146" id="Fill-34"></path>
                <path d="M17.8823529,12.2352941 C16.793567,12.3880223 15.687064,12.4794866 14.5668708,12.5096871 C11.6661258,17.9069448 7.22239723,22.2325168 1.88235294,24.7909291 C2.35748884,25.6788233 2.9002712,26.5175338 3.51392129,27.2941176 C9.74625469,24.1636219 14.8277928,18.8319424 17.8823529,12.2352941" id="Fill-36"></path>
                <path d="M29.1764706,7.09939682 C28.6538155,6.24345523 28.0581186,5.44561708 27.4031767,4.70588235 C23.4694671,6.98145553 18.9684657,8.27534089 14.1899053,8.27534089 C10.3771205,8.27534089 6.74125938,7.45061905 3.42921709,5.96247745 C2.84488226,6.7655189 2.32547352,7.62146048 1.88235294,8.53030221 C5.65212418,10.3028905 9.8138867,11.2941176 14.1899053,11.2941176 C19.6307119,11.2941176 24.7412069,9.76521692 29.1764706,7.09939682" id="Fill-38"></path>
            </g>
        </g>
    </g>
</svg>