<?xml version="1.0" encoding="UTF-8" standalone="no"?>
<svg
   xmlns:dc="http://purl.org/dc/elements/1.1/"
   xmlns:cc="http://creativecommons.org/ns#"
   xmlns:rdf="http://www.w3.org/1999/02/22-rdf-syntax-ns#"
   xmlns:svg="http://www.w3.org/2000/svg"
   xmlns="http://www.w3.org/2000/svg"
   xmlns:sodipodi="http://sodipodi.sourceforge.net/DTD/sodipodi-0.dtd"
   xmlns:inkscape="http://www.inkscape.org/namespaces/inkscape"
   width="158"
   height="36"
   viewBox="0 0 158 36"
   version="1.1"
   id="svg3988"
   sodipodi:docname="logo-print.svg"
   inkscape:version="0.92.5 (2060ec1f9f, 2020-04-08)">
  <metadata
     id="metadata3992">
    <rdf:RDF>
      <cc:Work
         rdf:about="">
        <dc:format>image/svg+xml</dc:format>
        <dc:type
           rdf:resource="http://purl.org/dc/dcmitype/StillImage" />
        <dc:title></dc:title>
      </cc:Work>
    </rdf:RDF>
  </metadata>
  <sodipodi:namedview
     pagecolor="#ffffff"
     bordercolor="#666666"
     borderopacity="1"
     objecttolerance="10"
     gridtolerance="10"
     guidetolerance="10"
     inkscape:pageopacity="0"
     inkscape:pageshadow="2"
     inkscape:window-width="1400"
     inkscape:window-height="1136"
     id="namedview3990"
     showgrid="false"
     inkscape:pagecheckerboard="true"
     inkscape:zoom="2.4493671"
     inkscape:cx="79"
     inkscape:cy="18"
     inkscape:window-x="520"
     inkscape:window-y="27"
     inkscape:window-maximized="0"
     inkscape:current-layer="g3986" />
  <defs
     id="defs3971" />
  <g
     transform="translate(0,2)"
     id="g3986"
     style="fill:none;fill-rule:evenodd">
    <path
       style="fill:#000000;stroke-width:0.48471913"
       d="M 21.134913,1.7779958 A 14.6289,14.6289 0 0 0 6.5062404,16.407613 14.6289,14.6289 0 0 0 21.134913,31.036286 14.6289,14.6289 0 0 0 35.763583,16.407613 14.6289,14.6289 0 0 0 21.134913,1.7779958 Z m -4.407915,4.0585746 a 3.5371076,3.5371076 0 0 1 3.536933,3.5369345 3.5371076,3.5371076 0 0 1 -3.536933,3.5378821 3.5371076,3.5371076 0 0 1 -3.536937,-3.5378821 3.5371076,3.5371076 0 0 1 3.536937,-3.5369345 z"
       id="path50"
       inkscape:connector-curvature="0" />
    <g
       transform="matrix(0.48471914,0,0,0.48471914,101.73841,-0.69672327)"
       aria-label="Default Title"
       style="font-style:normal;font-weight:normal;font-size:40px;line-height:1.25;font-family:sans-serif;letter-spacing:0px;word-spacing:0px;opacity:1;fill:#000000;fill-opacity:1;stroke:none"
       id="text62">
      <path
         inkscape:connector-curvature="0"
         d="m -117.45287,34.798431 h 10.64 c 4.144,0 6.75733,-0.970666 8.586666,-3.173333 2.165333,-2.538666 3.322666,-6.234666 3.322666,-10.453333 0,-4.181333 -1.157333,-7.877333 -3.322666,-10.453333 -1.829336,-2.2026664 -4.405336,-3.1359997 -8.586666,-3.1359997 h -10.64 z m 5.6,-4.666666 V 12.249099 h 5.04 c 4.21867,0 6.30933,2.949333 6.30933,8.96 0,5.973333 -2.09066,8.922666 -6.30933,8.922666 z"
         style="font-style:normal;font-variant:normal;font-weight:600;font-stretch:normal;font-size:37.33333206px;font-family:FreeSans;-inkscape-font-specification:'FreeSans, Semi-Bold';font-variant-ligatures:normal;font-variant-caps:normal;font-variant-numeric:normal;font-feature-settings:normal;text-align:start;writing-mode:lr-tb;text-anchor:start;fill:#000000"
         id="path3801" />
      <path
         inkscape:connector-curvature="0"
         d="m -82.583574,14.302432 c -5.786666,0 -9.333333,4.181333 -9.333333,10.938666 0,6.458667 3.509333,10.416 9.221333,10.416 4.517333,0 8.176,-2.576 9.333333,-6.533333 h -5.152 c -0.634666,1.605333 -2.090666,2.538667 -3.994666,2.538667 -3.509333,0 -4.069333,-2.576 -4.181333,-5.301334 h 13.514666 c 0.03733,-0.448 0.03733,-0.634666 0.03733,-0.896 0,-8.922666 -5.413333,-11.162666 -9.445333,-11.162666 z m 3.994667,8.586666 h -8.026667 c 0.336,-3.061333 1.642667,-4.591999 3.957333,-4.591999 2.426667,0 3.845334,1.642666 4.069334,4.591999 z"
         style="font-style:normal;font-variant:normal;font-weight:600;font-stretch:normal;font-size:37.33333206px;font-family:FreeSans;-inkscape-font-specification:'FreeSans, Semi-Bold';font-variant-ligatures:normal;font-variant-caps:normal;font-variant-numeric:normal;font-feature-settings:normal;text-align:start;writing-mode:lr-tb;text-anchor:start;fill:#000000"
         id="path3803" />
      <path
         inkscape:connector-curvature="0"
         d="m -59.959641,15.049099 h -3.098666 v -1.978667 c 0,-1.045333 0.448,-1.568 1.418666,-1.568 0.448,0 1.045334,0.03733 1.493334,0.112 V 7.6944323 c -0.970667,-0.074667 -2.277334,-0.112 -2.986667,-0.112 -3.472,0 -5.152,1.6426666 -5.152,5.0399997 v 2.426667 h -2.837333 v 3.472 h 2.837333 v 16.277332 h 5.226667 V 18.521099 h 3.098666 z"
         style="font-style:normal;font-variant:normal;font-weight:600;font-stretch:normal;font-size:37.33333206px;font-family:FreeSans;-inkscape-font-specification:'FreeSans, Semi-Bold';font-variant-ligatures:normal;font-variant-caps:normal;font-variant-numeric:normal;font-feature-settings:normal;text-align:start;writing-mode:lr-tb;text-anchor:start;fill:#000000"
         id="path3805" />
      <path
         inkscape:connector-curvature="0"
         d="m -51.223695,35.657098 c 2.24,0 4.293333,-0.970667 6.122666,-2.874667 0,1.045334 0.112,1.418667 0.597334,2.016 h 5.674666 v -0.634666 c -0.933333,-0.858667 -1.194667,-1.418667 -1.194667,-2.464 v -11.2 c 0,-4.106666 -2.8,-6.197333 -8.250666,-6.197333 -5.450666,0 -8.288,2.314667 -8.624,6.981333 h 5.04 c 0.261333,-2.090666 1.12,-2.762666 3.696,-2.762666 2.016,0 3.024,0.672 3.024,2.016 0,1.978666 -2.464,2.090666 -4.181333,2.351999 l -2.090667,0.373334 c -3.994666,0.672 -5.936,2.725333 -5.936,6.346666 0,3.621333 2.464,6.048 6.122667,6.048 z m 6.085333,-8.96 c 0,3.024 -1.493333,4.741334 -4.144,4.741334 -1.754667,0 -2.837333,-0.933334 -2.837333,-2.426667 0,-1.568 0.821333,-2.314667 2.986666,-2.762667 l 1.792,-0.336 c 1.381334,-0.261333 1.605334,-0.336 2.202667,-0.634666 z"
         style="font-style:normal;font-variant:normal;font-weight:600;font-stretch:normal;font-size:37.33333206px;font-family:FreeSans;-inkscape-font-specification:'FreeSans, Semi-Bold';font-variant-ligatures:normal;font-variant-caps:normal;font-variant-numeric:normal;font-feature-settings:normal;text-align:start;writing-mode:lr-tb;text-anchor:start;fill:#000000"
         id="path3807" />
      <path
         inkscape:connector-curvature="0"
         d="M -17.250364,34.798431 V 14.638432 h -5.226667 v 12.618666 c 0,2.389334 -1.68,3.957334 -4.218666,3.957334 -2.24,0 -3.36,-1.194667 -3.36,-3.621334 V 14.638432 h -5.226667 v 14.037333 c 0,4.442666 2.464,6.981333 6.757334,6.981333 2.725333,0 4.554666,-1.008 6.047999,-3.248 v 2.389333 z"
         style="font-style:normal;font-variant:normal;font-weight:600;font-stretch:normal;font-size:37.33333206px;font-family:FreeSans;-inkscape-font-specification:'FreeSans, Semi-Bold';font-variant-ligatures:normal;font-variant-caps:normal;font-variant-numeric:normal;font-feature-settings:normal;text-align:start;writing-mode:lr-tb;text-anchor:start;fill:#000000"
         id="path3809" />
      <path
         inkscape:connector-curvature="0"
         d="m -7.170405,7.5824323 h -5.226667 V 34.798431 h 5.226667 z"
         style="font-style:normal;font-variant:normal;font-weight:600;font-stretch:normal;font-size:37.33333206px;font-family:FreeSans;-inkscape-font-specification:'FreeSans, Semi-Bold';font-variant-ligatures:normal;font-variant-caps:normal;font-variant-numeric:normal;font-feature-settings:normal;text-align:start;writing-mode:lr-tb;text-anchor:start;fill:#000000"
         id="path3811" />
      <path
         inkscape:connector-curvature="0"
         d="M 6.7548766,15.049099 H 3.8428767 V 9.6357656 h -5.2266665 v 5.4133334 h -2.5759999 v 3.472 h 2.5759999 v 12.394666 c 0,3.173333 1.67999996,4.741333 5.1146665,4.741333 1.1573333,0 2.0906666,-0.112 3.0239999,-0.410667 v -3.658666 c -0.5226666,0.07467 -0.8213333,0.112 -1.1946666,0.112 -1.3813333,0 -1.7173333,-0.410667 -1.7173333,-2.202667 V 18.521099 h 2.9119999 z"
         style="font-style:normal;font-variant:normal;font-weight:600;font-stretch:normal;font-size:37.33333206px;font-family:FreeSans;-inkscape-font-specification:'FreeSans, Semi-Bold';font-variant-ligatures:normal;font-variant-caps:normal;font-variant-numeric:normal;font-feature-settings:normal;text-align:start;writing-mode:lr-tb;text-anchor:start;fill:#000000"
         id="path3813" />
      <path
         inkscape:connector-curvature="0"
         d="m 33.224183,12.249099 h 7.952 V 7.5824323 H 19.373517 v 4.6666667 h 8.250666 v 22.549332 h 5.6 z"
         style="font-style:normal;font-variant:normal;font-weight:600;font-stretch:normal;font-size:37.33333206px;font-family:FreeSans;-inkscape-font-specification:'FreeSans, Semi-Bold';font-variant-ligatures:normal;font-variant-caps:normal;font-variant-numeric:normal;font-feature-settings:normal;text-align:start;writing-mode:lr-tb;text-anchor:start;fill:#000000"
         id="path3815" />
      <path
         inkscape:connector-curvature="0"
         d="m 50.13615,14.638432 h -5.226667 v 20.159999 h 5.226667 z m 0,-7.0559997 h -5.226667 v 4.6666667 h 5.226667 z"
         style="font-style:normal;font-variant:normal;font-weight:600;font-stretch:normal;font-size:37.33333206px;font-family:FreeSans;-inkscape-font-specification:'FreeSans, Semi-Bold';font-variant-ligatures:normal;font-variant-caps:normal;font-variant-numeric:normal;font-feature-settings:normal;text-align:start;writing-mode:lr-tb;text-anchor:start;fill:#000000"
         id="path3817" />
      <path
         inkscape:connector-curvature="0"
         d="m 64.248094,15.049099 h -2.912 V 9.6357656 h -5.226666 v 5.4133334 h -2.576 v 3.472 h 2.576 v 12.394666 c 0,3.173333 1.68,4.741333 5.114666,4.741333 1.157333,0 2.090667,-0.112 3.024,-0.410667 v -3.658666 c -0.522667,0.07467 -0.821333,0.112 -1.194667,0.112 -1.381333,0 -1.717333,-0.410667 -1.717333,-2.202667 V 18.521099 h 2.912 z"
         style="font-style:normal;font-variant:normal;font-weight:600;font-stretch:normal;font-size:37.33333206px;font-family:FreeSans;-inkscape-font-specification:'FreeSans, Semi-Bold';font-variant-ligatures:normal;font-variant-caps:normal;font-variant-numeric:normal;font-feature-settings:normal;text-align:start;writing-mode:lr-tb;text-anchor:start;fill:#000000"
         id="path3819" />
      <path
         inkscape:connector-curvature="0"
         d="M 73.021413,7.5824323 H 67.794747 V 34.798431 h 5.226666 z"
         style="font-style:normal;font-variant:normal;font-weight:600;font-stretch:normal;font-size:37.33333206px;font-family:FreeSans;-inkscape-font-specification:'FreeSans, Semi-Bold';font-variant-ligatures:normal;font-variant-caps:normal;font-variant-numeric:normal;font-feature-settings:normal;text-align:start;writing-mode:lr-tb;text-anchor:start;fill:#000000"
         id="path3821" />
      <path
         inkscape:connector-curvature="0"
         d="m 86.274687,14.302432 c -5.786666,0 -9.333333,4.181333 -9.333333,10.938666 0,6.458667 3.509333,10.416 9.221333,10.416 4.517333,0 8.176,-2.576 9.333333,-6.533333 h -5.152 c -0.634666,1.605333 -2.090666,2.538667 -3.994666,2.538667 -3.509333,0 -4.069333,-2.576 -4.181333,-5.301334 h 13.514666 c 0.03733,-0.448 0.03733,-0.634666 0.03733,-0.896 0,-8.922666 -5.413333,-11.162666 -9.445333,-11.162666 z m 3.994667,8.586666 h -8.026667 c 0.336,-3.061333 1.642667,-4.591999 3.957334,-4.591999 2.426666,0 3.845333,1.642666 4.069333,4.591999 z"
         style="font-style:normal;font-variant:normal;font-weight:600;font-stretch:normal;font-size:37.33333206px;font-family:FreeSans;-inkscape-font-specification:'FreeSans, Semi-Bold';font-variant-ligatures:normal;font-variant-caps:normal;font-variant-numeric:normal;font-feature-settings:normal;text-align:start;writing-mode:lr-tb;text-anchor:start;fill:#000000"
         id="path3823" />
    </g>
    <g
       transform="matrix(0.48471914,0,0,0.48471914,101.73841,-0.69672327)"
       aria-label="missing logo"
       style="font-style:normal;font-weight:normal;font-size:40px;line-height:1.25;font-family:sans-serif;letter-spacing:0px;word-spacing:0px;fill:#000000;fill-opacity:1;stroke:none"
       id="text66">
      <path
         d="m -106.00756,47.624845 q 0.89844,-1.614583 2.14844,-2.382812 1.25,-0.768229 2.9427,-0.768229 2.27865,0 3.51563,1.601562 1.236979,1.588542 1.236979,4.53125 v 8.802083 h -2.408854 v -8.723958 q 0,-2.096354 -0.742188,-3.111979 -0.742187,-1.015625 -2.265627,-1.015625 -1.86198,0 -2.94271,1.236979 -1.08073,1.236979 -1.08073,3.372396 v 8.242187 h -2.40885 v -8.723958 q 0,-2.109375 -0.74219,-3.111979 -0.74218,-1.015625 -2.29166,-1.015625 -1.83594,0 -2.91667,1.25 -1.08073,1.236979 -1.08073,3.359375 v 8.242187 h -2.40885 V 44.825366 h 2.40885 v 2.265625 q 0.82031,-1.341146 1.96615,-1.979167 1.14583,-0.63802 2.72135,-0.63802 1.58854,0 2.69531,0.807291 1.11979,0.807292 1.65365,2.34375 z"
         style="font-style:normal;font-variant:normal;font-weight:normal;font-stretch:normal;font-size:26.66666603px;font-family:sans-serif;-inkscape-font-specification:'sans-serif, Normal';font-variant-ligatures:normal;font-variant-caps:normal;font-variant-numeric:normal;font-feature-settings:normal;text-align:start;writing-mode:lr-tb;text-anchor:start;fill:#000000"
         id="path3771"
         inkscape:connector-curvature="0" />
      <path
         d="m -91.385165,44.825366 h 2.395833 v 14.583333 h -2.395833 z m 0,-5.677083 h 2.395833 v 3.033854 h -2.395833 z"
         style="font-style:normal;font-variant:normal;font-weight:normal;font-stretch:normal;font-size:26.66666603px;font-family:sans-serif;-inkscape-font-specification:'sans-serif, Normal';font-variant-ligatures:normal;font-variant-caps:normal;font-variant-numeric:normal;font-feature-settings:normal;text-align:start;writing-mode:lr-tb;text-anchor:start;fill:#000000"
         id="path3773"
         inkscape:connector-curvature="0" />
      <path
         d="m -74.679435,45.255054 v 2.265624 q -1.015625,-0.520833 -2.109375,-0.781249 -1.09375,-0.260417 -2.265625,-0.260417 -1.783854,0 -2.682291,0.546875 -0.885417,0.546875 -0.885417,1.640625 0,0.833333 0.638021,1.315104 0.638021,0.46875 2.565104,0.898437 l 0.820313,0.182292 q 2.552083,0.546875 3.619791,1.549479 1.080729,0.989584 1.080729,2.773438 0,2.03125 -1.614583,3.216145 -1.601563,1.184896 -4.414062,1.184896 -1.171875,0 -2.447917,-0.234375 -1.263021,-0.221354 -2.669271,-0.677083 v -2.473958 q 1.328125,0.690104 2.617188,1.041666 1.289062,0.338542 2.552083,0.338542 1.692708,0 2.604166,-0.572917 0.911459,-0.585937 0.911459,-1.640625 0,-0.976562 -0.664063,-1.497396 -0.651041,-0.520833 -2.877604,-1.002604 l -0.833333,-0.195312 q -2.226563,-0.46875 -3.216146,-1.432292 -0.989583,-0.976562 -0.989583,-2.669271 0,-2.057291 1.458333,-3.177083 1.458333,-1.119791 4.140625,-1.119791 1.328125,0 2.5,0.195312 1.171875,0.195313 2.161458,0.585938 z"
         style="font-style:normal;font-variant:normal;font-weight:normal;font-stretch:normal;font-size:26.66666603px;font-family:sans-serif;-inkscape-font-specification:'sans-serif, Normal';font-variant-ligatures:normal;font-variant-caps:normal;font-variant-numeric:normal;font-feature-settings:normal;text-align:start;writing-mode:lr-tb;text-anchor:start;fill:#000000"
         id="path3775"
         inkscape:connector-curvature="0" />
      <path
         d="m -60.786208,45.255054 v 2.265624 q -1.015625,-0.520833 -2.109375,-0.781249 -1.09375,-0.260417 -2.265625,-0.260417 -1.783854,0 -2.682292,0.546875 -0.885416,0.546875 -0.885416,1.640625 0,0.833333 0.638021,1.315104 0.63802,0.46875 2.565104,0.898437 l 0.820312,0.182292 q 2.552083,0.546875 3.619792,1.549479 1.080729,0.989584 1.080729,2.773438 0,2.03125 -1.614583,3.216145 -1.601563,1.184896 -4.414063,1.184896 -1.171875,0 -2.447916,-0.234375 -1.263021,-0.221354 -2.669271,-0.677083 v -2.473958 q 1.328125,0.690104 2.617187,1.041666 1.289063,0.338542 2.552084,0.338542 1.692708,0 2.604166,-0.572917 0.911458,-0.585937 0.911458,-1.640625 0,-0.976562 -0.664062,-1.497396 -0.651042,-0.520833 -2.877604,-1.002604 l -0.833333,-0.195312 q -2.226563,-0.46875 -3.216146,-1.432292 -0.989584,-0.976562 -0.989584,-2.669271 0,-2.057291 1.458334,-3.177083 1.458333,-1.119791 4.140625,-1.119791 1.328125,0 2.5,0.195312 1.171875,0.195313 2.161458,0.585938 z"
         style="font-style:normal;font-variant:normal;font-weight:normal;font-stretch:normal;font-size:26.66666603px;font-family:sans-serif;-inkscape-font-specification:'sans-serif, Normal';font-variant-ligatures:normal;font-variant-caps:normal;font-variant-numeric:normal;font-feature-settings:normal;text-align:start;writing-mode:lr-tb;text-anchor:start;fill:#000000"
         id="path3777"
         inkscape:connector-curvature="0" />
      <path
         d="m -56.189852,44.825366 h 2.395833 v 14.583333 h -2.395833 z m 0,-5.677083 h 2.395833 v 3.033854 h -2.395833 z"
         style="font-style:normal;font-variant:normal;font-weight:normal;font-stretch:normal;font-size:26.66666603px;font-family:sans-serif;-inkscape-font-specification:'sans-serif, Normal';font-variant-ligatures:normal;font-variant-caps:normal;font-variant-numeric:normal;font-feature-settings:normal;text-align:start;writing-mode:lr-tb;text-anchor:start;fill:#000000"
         id="path3779"
         inkscape:connector-curvature="0" />
      <path
         d="m -36.658605,50.606616 v 8.802083 h -2.395834 v -8.723958 q 0,-2.070313 -0.807291,-3.098958 -0.807292,-1.028646 -2.421875,-1.028646 -1.940104,0 -3.059896,1.236979 -1.119792,1.236979 -1.119792,3.372396 v 8.242187 h -2.408854 V 44.825366 h 2.408854 v 2.265625 q 0.859375,-1.315104 2.01823,-1.966146 1.171875,-0.651041 2.695312,-0.651041 2.513021,0 3.802083,1.5625 1.289063,1.549479 1.289063,4.570312 z"
         style="font-style:normal;font-variant:normal;font-weight:normal;font-stretch:normal;font-size:26.66666603px;font-family:sans-serif;-inkscape-font-specification:'sans-serif, Normal';font-variant-ligatures:normal;font-variant-caps:normal;font-variant-numeric:normal;font-feature-settings:normal;text-align:start;writing-mode:lr-tb;text-anchor:start;fill:#000000"
         id="path3781"
         inkscape:connector-curvature="0" />
      <path
         d="m -22.283608,51.947762 q 0,-2.604167 -1.080729,-4.036459 -1.067708,-1.432291 -3.007812,-1.432291 -1.927084,0 -3.007813,1.432291 -1.067708,1.432292 -1.067708,4.036459 0,2.591145 1.067708,4.023437 1.080729,1.432292 3.007813,1.432292 1.940104,0 3.007812,-1.432292 1.080729,-1.432292 1.080729,-4.023437 z m 2.395834,5.651041 q 0,3.723958 -1.653646,5.533854 -1.653646,1.822917 -5.065104,1.822917 -1.263021,0 -2.382813,-0.195313 -1.119791,-0.182291 -2.174479,-0.572916 v -2.330729 q 1.054688,0.572916 2.083333,0.846354 1.028646,0.273437 2.096355,0.273437 2.35677,0 3.528645,-1.236979 1.171875,-1.223958 1.171875,-3.710937 v -1.184896 q -0.742187,1.289062 -1.901041,1.927083 -1.158855,0.638021 -2.773438,0.638021 -2.682291,0 -4.322916,-2.044271 -1.640625,-2.044271 -1.640625,-5.416666 0,-3.385417 1.640625,-5.429688 1.640625,-2.04427 4.322916,-2.04427 1.614583,0 2.773438,0.63802 1.158854,0.638021 1.901041,1.927084 v -2.213542 h 2.395834 z"
         style="font-style:normal;font-variant:normal;font-weight:normal;font-stretch:normal;font-size:26.66666603px;font-family:sans-serif;-inkscape-font-specification:'sans-serif, Normal';font-variant-ligatures:normal;font-variant-caps:normal;font-variant-numeric:normal;font-feature-settings:normal;text-align:start;writing-mode:lr-tb;text-anchor:start;fill:#000000"
         id="path3783"
         inkscape:connector-curvature="0" />
      <path
         d="m -6.4763133,39.148283 h 2.3958332 v 20.260416 h -2.3958332 z"
         style="font-style:normal;font-variant:normal;font-weight:normal;font-stretch:normal;font-size:26.66666603px;font-family:sans-serif;-inkscape-font-specification:'sans-serif, Normal';font-variant-ligatures:normal;font-variant-caps:normal;font-variant-numeric:normal;font-feature-settings:normal;text-align:start;writing-mode:lr-tb;text-anchor:start;fill:#000000"
         id="path3785"
         inkscape:connector-curvature="0" />
      <path
         d="m 6.5835798,46.505054 q -1.9270833,0 -3.0468749,1.510416 -1.1197916,1.497396 -1.1197916,4.114583 0,2.617188 1.1067708,4.127604 1.1197916,1.497396 3.0598957,1.497396 1.9140625,0 3.0338541,-1.510416 1.1197921,-1.510417 1.1197921,-4.114584 0,-2.591145 -1.1197921,-4.101562 -1.1197916,-1.523437 -3.0338541,-1.523437 z m 0,-2.03125 q 3.1249999,0 4.9088542,2.03125 1.783854,2.031249 1.783854,5.624999 0,3.580729 -1.783854,5.625 -1.7838543,2.03125 -4.9088542,2.03125 -3.1380207,0 -4.9218749,-2.03125 -1.77083325,-2.044271 -1.77083325,-5.625 0,-3.59375 1.77083325,-5.624999 1.7838542,-2.03125 4.9218749,-2.03125 z"
         style="font-style:normal;font-variant:normal;font-weight:normal;font-stretch:normal;font-size:26.66666603px;font-family:sans-serif;-inkscape-font-specification:'sans-serif, Normal';font-variant-ligatures:normal;font-variant-caps:normal;font-variant-numeric:normal;font-feature-settings:normal;text-align:start;writing-mode:lr-tb;text-anchor:start;fill:#000000"
         id="path3787"
         inkscape:connector-curvature="0" />
      <path
         d="m 26.844001,51.947762 q 0,-2.604167 -1.080729,-4.036459 -1.067708,-1.432291 -3.007812,-1.432291 -1.927083,0 -3.007813,1.432291 -1.067708,1.432292 -1.067708,4.036459 0,2.591145 1.067708,4.023437 1.08073,1.432292 3.007813,1.432292 1.940104,0 3.007812,-1.432292 1.080729,-1.432292 1.080729,-4.023437 z m 2.395834,5.651041 q 0,3.723958 -1.653646,5.533854 -1.653646,1.822917 -5.065104,1.822917 -1.263021,0 -2.382813,-0.195313 -1.119791,-0.182291 -2.174479,-0.572916 v -2.330729 q 1.054688,0.572916 2.083334,0.846354 1.028645,0.273437 2.096354,0.273437 2.356771,0 3.528646,-1.236979 1.171874,-1.223958 1.171874,-3.710937 v -1.184896 q -0.742187,1.289062 -1.901041,1.927083 -1.158854,0.638021 -2.773438,0.638021 -2.682291,0 -4.322916,-2.044271 -1.640625,-2.044271 -1.640625,-5.416666 0,-3.385417 1.640625,-5.429688 1.640625,-2.04427 4.322916,-2.04427 1.614584,0 2.773438,0.63802 1.158854,0.638021 1.901041,1.927084 v -2.213542 h 2.395834 z"
         style="font-style:normal;font-variant:normal;font-weight:normal;font-stretch:normal;font-size:26.66666603px;font-family:sans-serif;-inkscape-font-specification:'sans-serif, Normal';font-variant-ligatures:normal;font-variant-caps:normal;font-variant-numeric:normal;font-feature-settings:normal;text-align:start;writing-mode:lr-tb;text-anchor:start;fill:#000000"
         id="path3789"
         inkscape:connector-curvature="0" />
      <path
         d="m 39.825767,46.505054 q -1.927083,0 -3.046875,1.510416 -1.119791,1.497396 -1.119791,4.114583 0,2.617188 1.106771,4.127604 1.119791,1.497396 3.059895,1.497396 1.914063,0 3.033854,-1.510416 1.119792,-1.510417 1.119792,-4.114584 0,-2.591145 -1.119792,-4.101562 -1.119791,-1.523437 -3.033854,-1.523437 z m 0,-2.03125 q 3.125,0 4.908854,2.03125 1.783854,2.031249 1.783854,5.624999 0,3.580729 -1.783854,5.625 -1.783854,2.03125 -4.908854,2.03125 -3.13802,0 -4.921875,-2.03125 -1.770833,-2.044271 -1.770833,-5.625 0,-3.59375 1.770833,-5.624999 1.783855,-2.03125 4.921875,-2.03125 z"
         style="font-style:normal;font-variant:normal;font-weight:normal;font-stretch:normal;font-size:26.66666603px;font-family:sans-serif;-inkscape-font-specification:'sans-serif, Normal';font-variant-ligatures:normal;font-variant-caps:normal;font-variant-numeric:normal;font-feature-settings:normal;text-align:start;writing-mode:lr-tb;text-anchor:start;fill:#000000"
         id="path3791"
         inkscape:connector-curvature="0" />
    </g>
  </g>
</svg>
