<?xml version="1.0" encoding="utf-8"?>
<!-- Generator: Adobe Illustrator 19.0.0, SVG Export Plug-In . SVG Version: 6.00 Build 0)  -->
<svg version="1.1" id="Layer_1" xmlns="http://www.w3.org/2000/svg" xmlns:xlink="http://www.w3.org/1999/xlink" x="0px" y="0px"
	 viewBox="-204 0 310 72" style="enable-background:new -204 0 310 72;" xml:space="preserve">
<style type="text/css">
	.st0{fill:#FFFFFF;}
</style>
<title>logo_large@2x</title>
<desc>Created with Sketch.</desc>
<g id="Symbols">
	<g id="logo_large">
		<path id="senioren-netz-märkis" class="st0" d="M-120.2,31.2c-1.1-0.2-2.2-0.6-3.4-1.2v-4.6c1.1,0.6,2.3,1.1,3.5,1.4
			c1.2,0.3,2.4,0.4,3.7,0.4c1.3,0,2-0.4,2-1.2c0-0.3-0.1-0.6-0.3-0.7c-0.2-0.2-0.5-0.3-0.9-0.4l-2.9-0.6c-1.7-0.3-2.9-0.9-3.7-1.7
			c-0.8-0.8-1.2-1.9-1.2-3.4c0-1.9,0.6-3.3,1.8-4.3c1.2-0.9,3-1.4,5.4-1.4c1,0,2,0.1,3.1,0.3s2.1,0.5,3.1,0.8v4.4
			c-0.8-0.4-1.7-0.6-2.8-0.9s-2.2-0.3-3.2-0.3c-0.8,0-1.4,0.1-1.7,0.2c-0.3,0.2-0.5,0.4-0.5,0.8c0,0.3,0.1,0.4,0.2,0.6
			c0.2,0.1,0.4,0.2,0.8,0.3l2.9,0.6c1.8,0.4,3,0.9,3.8,1.8c0.8,0.8,1.2,2,1.2,3.7c0,1.9-0.6,3.4-1.9,4.4c-1.3,1-3.1,1.4-5.3,1.4
			C-117.9,31.5-119.2,31.4-120.2,31.2z M-99,26.4c0.7,0.5,1.7,0.8,3,0.8c0.8,0,1.5-0.1,2.2-0.3c0.7-0.2,1.5-0.5,2.4-1l1.4,4
			c-1,0.6-2.1,1-3.1,1.2c-1,0.2-2.2,0.3-3.7,0.3c-2,0-3.7-0.4-5.1-1.1s-2.4-1.8-3.2-3.2c-0.7-1.4-1.1-2.9-1.1-4.7
			c0-1.9,0.4-3.5,1.1-4.8s1.7-2.4,3-3.1c1.3-0.7,2.7-1,4.2-1c2.5,0,4.5,0.7,5.9,2.2s2.1,3.6,2.1,6.3v2.1h-10.7
			C-100.2,25.1-99.7,25.8-99,26.4z M-99.4,18.4c-0.5,0.4-0.8,1-0.9,1.9h5.2c-0.1-0.8-0.3-1.4-0.7-1.8c-0.4-0.4-1-0.6-1.8-0.6
			C-98.4,17.9-99,18-99.4,18.4z M-70.6,15.4c1.1,1.1,1.7,2.9,1.7,5.4V31h-5.2V20.8c0-0.8-0.2-1.4-0.6-1.9s-1.1-0.6-2.1-0.6
			c-1.2,0-2.3,0.5-3.6,1.4V31h-5.2V14h5.2v1.3c0.7-0.6,1.5-1,2.3-1.3s1.6-0.4,2.5-0.4C-73.4,13.7-71.7,14.2-70.6,15.4z M-63.9,6.8
			h5.2v4.5h-5.2V6.8z M-63.9,14h5.2v17h-5.2V14z M-50.4,30.3c-1.4-0.8-2.4-1.9-3.1-3.2s-1-2.9-1-4.6c0-1.7,0.3-3.2,1-4.6
			c0.7-1.4,1.7-2.4,3.1-3.2c1.4-0.8,3-1.2,5-1.2c1.9,0,3.6,0.4,4.9,1.2c1.4,0.8,2.4,1.9,3.1,3.2c0.7,1.4,1,2.9,1,4.6
			c0,1.7-0.3,3.2-1,4.6s-1.7,2.4-3.1,3.2c-1.4,0.8-3,1.2-4.9,1.2C-47.4,31.5-49,31.1-50.4,30.3z M-42.7,25.9
			c0.6-0.8,0.9-1.9,0.9-3.4c0-1.5-0.3-2.6-0.9-3.4c-0.6-0.8-1.5-1.2-2.7-1.2c-1.2,0-2.1,0.4-2.7,1.2c-0.6,0.8-0.9,1.9-0.9,3.4
			c0,1.5,0.3,2.6,0.9,3.4c0.6,0.8,1.5,1.2,2.7,1.2C-44.2,27.1-43.4,26.7-42.7,25.9z M-21.7,13.7v4.6h-0.7c-1.5,0-3.1,0.5-4.6,1.6V31
			h-5.2V14h5.2v1.5c0.7-0.6,1.5-1.1,2.2-1.4s1.5-0.5,2.4-0.5H-21.7z M-11.8,26.4c0.7,0.5,1.7,0.8,3,0.8c0.8,0,1.5-0.1,2.2-0.3
			c0.7-0.2,1.5-0.5,2.4-1l1.4,4c-1,0.6-2.1,1-3.1,1.2c-1,0.2-2.2,0.3-3.7,0.3c-2,0-3.7-0.4-5.1-1.1c-1.4-0.8-2.4-1.8-3.2-3.2
			c-0.7-1.4-1.1-2.9-1.1-4.7c0-1.9,0.4-3.5,1.1-4.8s1.7-2.4,3-3.1s2.7-1,4.2-1c2.5,0,4.5,0.7,5.9,2.2c1.4,1.5,2.1,3.6,2.1,6.3v2.1
			h-10.7C-12.9,25.1-12.5,25.8-11.8,26.4z M-12.2,18.4c-0.4,0.4-0.8,1-0.9,1.9h5.2c-0.1-0.8-0.3-1.4-0.7-1.8c-0.4-0.4-1-0.6-1.8-0.6
			C-11.2,17.9-11.7,18-12.2,18.4z M16.6,15.4c1.1,1.1,1.7,2.9,1.7,5.4V31h-5.2V20.8c0-0.8-0.2-1.4-0.6-1.9s-1.1-0.6-2.1-0.6
			c-1.2,0-2.3,0.5-3.6,1.4V31H1.6V14h5.2v1.3c0.7-0.6,1.5-1,2.3-1.3s1.6-0.4,2.5-0.4C13.8,13.7,15.5,14.2,16.6,15.4z M46,15.4
			c1.1,1.1,1.7,2.9,1.7,5.4V31h-5.2V20.8c0-0.8-0.2-1.4-0.6-1.9s-1.1-0.6-2.1-0.6c-1.2,0-2.3,0.5-3.6,1.4V31h-5.2V14h5.2v1.3
			c0.7-0.6,1.5-1,2.3-1.3s1.6-0.4,2.5-0.4C43.2,13.7,44.8,14.2,46,15.4z M58.6,26.4c0.7,0.5,1.7,0.8,3,0.8c0.8,0,1.5-0.1,2.2-0.3
			c0.7-0.2,1.5-0.5,2.4-1l1.4,4c-1,0.6-2.1,1-3.1,1.2c-1,0.2-2.2,0.3-3.7,0.3c-2,0-3.7-0.4-5.1-1.1c-1.4-0.8-2.4-1.8-3.2-3.2
			c-0.7-1.4-1.1-2.9-1.1-4.7c0-1.9,0.4-3.5,1.1-4.8s1.7-2.4,3-3.1c1.3-0.7,2.7-1,4.2-1c2.5,0,4.5,0.7,5.9,2.2s2.1,3.6,2.1,6.3v2.1
			H57.3C57.5,25.1,57.9,25.8,58.6,26.4z M58.2,18.4c-0.4,0.4-0.8,1-0.9,1.9h5.2c-0.1-0.8-0.3-1.4-0.7-1.8c-0.4-0.4-1-0.6-1.8-0.6
			C59.3,17.9,58.7,18,58.2,18.4z M78.4,19.2V25c0,0.7,0.1,1.1,0.3,1.4c0.2,0.3,0.6,0.4,1.2,0.4c0.7,0,1.2-0.1,1.8-0.2V31
			c-0.7,0.1-1.3,0.2-1.7,0.3s-1,0.1-1.5,0.1c-1.8,0-3.1-0.4-4-1.2c-0.9-0.8-1.3-1.9-1.3-3.4v-7.6h-2.3v-4.6h2.3V8.9h5.2v5.7h3.8v4.6
			H78.4z M100.1,26.4V31H86v-4.6l7.4-7.9h-6.8V14h12.9v4.6l-7.3,7.9H100.1z M-104.6,50.8c0.8,0.8,1.1,2.3,1.1,4.2v8h-1.8v-8
			c0-1.4-0.2-2.4-0.7-3c-0.4-0.6-1.2-0.9-2.4-0.9c-1.4,0-2.7,0.7-4,2c0.1,0.6,0.1,1.2,0.1,1.8v8h-1.8v-8c0-1.4-0.2-2.4-0.7-3
			c-0.4-0.6-1.2-0.9-2.4-0.9c-1.3,0-2.6,0.6-3.9,1.8v10h-1.8V49.8h1.8v1.5c0.6-0.5,1.3-1,2-1.3c0.7-0.3,1.4-0.5,2.1-0.5
			c1.1,0,1.9,0.2,2.6,0.5c0.7,0.4,1.2,0.9,1.5,1.7c0.7-0.7,1.4-1.3,2.2-1.7c0.8-0.4,1.6-0.6,2.4-0.6
			C-106.6,49.5-105.4,50-104.6,50.8z M-91.8,50.5c0.7,0.5,1.1,1.1,1.4,1.9c0.2,0.8,0.3,1.8,0.3,3V63h-1.8v-1.4
			c-0.6,0.6-1.3,1-1.9,1.3s-1.3,0.4-2,0.4c-0.8,0-1.5-0.2-2.2-0.5s-1.2-0.9-1.6-1.5c-0.4-0.7-0.6-1.5-0.6-2.4c0-1.4,0.4-2.6,1.3-3.3
			c0.9-0.8,2.1-1.2,3.6-1.2c0.5,0,1.1,0.1,1.7,0.2c0.6,0.1,1.1,0.3,1.6,0.6c0-0.9-0.1-1.6-0.3-2.1c-0.2-0.5-0.5-0.9-0.9-1.2
			c-0.5-0.3-1.2-0.4-2.1-0.4h-1.5v-1.6h1.9C-93.5,49.8-92.5,50.1-91.8,50.5z M-91.9,60v-3.5c-0.9-0.5-1.9-0.7-3.1-0.7
			c-0.9,0-1.7,0.2-2.3,0.7s-0.9,1.2-0.9,2.3c0,1,0.3,1.7,0.8,2.2s1.1,0.7,1.8,0.7C-94.3,61.7-93.1,61.2-91.9,60z M-92.9,44h1.7v2.8
			h-1.7V44z M-97.6,44h1.7v2.8h-1.7V44z M-78.8,49.5v1.7h-0.6c-1.4,0-2.8,0.6-4.1,1.8v10h-1.8V49.8h1.8v1.5c0.6-0.6,1.3-1,2-1.3
			c0.7-0.3,1.4-0.5,2.1-0.5H-78.8z M-71.5,56.5L-73,58v5h-1.8V42.7h1.8v13l5.7-5.8h2.3l-5.2,5.3l6.1,7.8h-2.2L-71.5,56.5z
			 M-60.3,43.6h1.8v3.6h-1.8V43.6z M-60.3,49.8h1.8V63h-1.8V49.8z M-51.6,63.2c-0.7-0.2-1.5-0.4-2.3-0.8v-1.9c1.5,0.8,3,1.2,4.8,1.2
			c1,0,1.7-0.2,2.1-0.6c0.4-0.4,0.7-1,0.7-1.6s-0.2-1.1-0.5-1.4c-0.4-0.3-0.9-0.6-1.7-0.8l-1.4-0.4c-1.1-0.3-1.9-0.7-2.6-1.3
			c-0.6-0.6-0.9-1.4-0.9-2.6c0-1.1,0.4-2,1.1-2.7s1.8-1,3.2-1c0.8,0,1.5,0.1,2.1,0.2c0.6,0.1,1.3,0.4,1.9,0.6v1.8
			c-0.6-0.3-1.3-0.5-1.8-0.7c-0.6-0.2-1.3-0.3-2.1-0.3c-0.9,0-1.6,0.2-2,0.6c-0.4,0.4-0.6,0.8-0.6,1.4c0,0.6,0.2,1.1,0.6,1.4
			c0.4,0.3,0.9,0.6,1.6,0.8l1.4,0.4c0.8,0.2,1.4,0.4,1.9,0.7c0.5,0.3,0.9,0.7,1.2,1.2c0.3,0.5,0.5,1.2,0.5,2c0,1.2-0.4,2.2-1.2,2.9
			c-0.8,0.7-1.9,1-3.3,1C-50.1,63.4-50.9,63.3-51.6,63.2z M-39.1,61.5c-1.1-1.3-1.6-3-1.6-5.1c0-2.1,0.5-3.8,1.6-5.1
			c1.1-1.2,2.6-1.9,4.7-1.9c0.7,0,1.3,0,1.8,0.1c0.5,0.1,1.1,0.3,1.6,0.5v1.8c-0.6-0.3-1.1-0.5-1.7-0.6c-0.5-0.1-1.1-0.2-1.7-0.2
			c-1.6,0-2.7,0.5-3.5,1.4c-0.7,0.9-1.1,2.2-1.1,3.8c0,1.6,0.4,2.9,1.1,3.9c0.7,1,1.9,1.5,3.4,1.5c1.2,0,2.5-0.3,3.8-1l0.6,1.6
			c-1.4,0.8-2.9,1.1-4.5,1.1C-36.4,63.4-38,62.8-39.1,61.5z M-16.4,50.8c0.8,0.8,1.1,2.3,1.1,4.2v8H-17v-8c0-1.4-0.2-2.4-0.7-3
			c-0.4-0.6-1.2-0.9-2.4-0.9c-1.3,0-2.7,0.6-4,1.8v10h-1.8V42.7h1.8v8.6c0.6-0.6,1.3-1,2-1.3c0.7-0.3,1.4-0.5,2.1-0.5
			C-18.3,49.5-17.1,50-16.4,50.8z M-8.7,56.4c0,1.6,0.4,2.9,1.1,3.9s1.9,1.5,3.5,1.5c1.2,0,2.5-0.3,3.9-1l0.6,1.5
			C-1,63-2.6,63.4-4.2,63.4c-2,0-3.6-0.6-4.7-1.9s-1.7-3-1.7-5.1c0-1.5,0.3-2.7,0.8-3.8c0.5-1,1.2-1.8,2.1-2.4s1.9-0.8,3-0.8
			c1.7,0,3,0.5,4,1.6c1,1.1,1.4,2.6,1.5,4.6v0.7L-8.7,56.4L-8.7,56.4z M-7.3,52c-0.7,0.6-1.1,1.5-1.3,2.7h7.4
			c-0.1-1.2-0.4-2.1-1-2.7s-1.4-0.9-2.5-0.9C-5.8,51.1-6.6,51.4-7.3,52z M6.4,63.2c-0.7-0.2-1.5-0.4-2.3-0.8v-1.9
			c1.5,0.8,3,1.2,4.8,1.2c1,0,1.7-0.2,2.1-0.6c0.4-0.4,0.7-1,0.7-1.6s-0.2-1.1-0.5-1.4c-0.4-0.3-0.9-0.6-1.7-0.8L8,56.9
			c-1.1-0.3-1.9-0.7-2.6-1.3c-0.6-0.6-0.9-1.4-0.9-2.6c0-1.1,0.4-2,1.1-2.7s1.8-1,3.2-1c0.8,0,1.5,0.1,2.1,0.2
			c0.6,0.1,1.3,0.4,1.9,0.6v1.8c-0.6-0.3-1.3-0.5-1.8-0.7c-0.6-0.2-1.3-0.3-2.1-0.3c-0.9,0-1.6,0.2-2,0.6C6.5,52,6.3,52.5,6.3,53
			c0,0.6,0.2,1.1,0.6,1.4c0.4,0.3,0.9,0.6,1.6,0.8l1.4,0.4c0.8,0.2,1.4,0.4,1.9,0.7c0.5,0.3,0.9,0.7,1.2,1.2c0.3,0.5,0.5,1.2,0.5,2
			c0,1.2-0.4,2.2-1.2,2.9c-0.8,0.7-1.9,1-3.3,1C7.9,63.4,7.1,63.3,6.4,63.2z M34.9,49.8l-5.2,13.4h-1.9l-5.2-13.4h1.9L28.7,61
			L33,49.8H34.9z M38.6,43.6h1.8v3.6h-1.8V43.6z M38.6,49.8h1.8V63h-1.8V49.8z M47,56.4c0,1.6,0.4,2.9,1.1,3.9
			c0.7,1,1.9,1.5,3.5,1.5c1.2,0,2.5-0.3,3.9-1l0.6,1.5c-1.4,0.7-2.9,1.1-4.6,1.1c-2,0-3.6-0.6-4.7-1.9c-1.1-1.3-1.7-3-1.7-5.1
			c0-1.5,0.3-2.7,0.8-3.8c0.5-1,1.2-1.8,2.1-2.4c0.9-0.5,1.9-0.8,3-0.8c1.7,0,3,0.5,4,1.6c1,1.1,1.4,2.6,1.5,4.6v0.7L47,56.4
			L47,56.4z M48.5,52c-0.7,0.6-1.1,1.5-1.3,2.7h7.4c-0.1-1.2-0.4-2.1-1-2.7s-1.4-0.9-2.5-0.9C50,51.1,49.1,51.4,48.5,52z M67.3,49.5
			v1.7h-0.6c-1.4,0-2.8,0.6-4.1,1.8v10h-1.8V49.8h1.8v1.5c0.6-0.6,1.3-1,2-1.3c0.7-0.3,1.4-0.5,2.1-0.5H67.3z M73.4,51.6v8.3
			c0,0.7,0.1,1.1,0.3,1.3c0.2,0.2,0.6,0.4,1.2,0.4c0.5,0,1-0.1,1.6-0.2v1.7c-0.6,0.1-1.2,0.2-1.8,0.2c-0.8,0-1.4-0.1-1.9-0.3
			s-0.8-0.5-0.9-1s-0.3-1.1-0.3-1.8v-8.6h-1.7v-1.7h1.7v-4.6h1.8v4.6h3.1v1.7H73.4z M81.9,56.4c0,1.6,0.4,2.9,1.1,3.9
			c0.7,1,1.9,1.5,3.5,1.5c1.2,0,2.5-0.3,3.9-1l0.6,1.5c-1.4,0.7-2.9,1.1-4.6,1.1c-2,0-3.6-0.6-4.7-1.9c-1.1-1.3-1.7-3-1.7-5.1
			c0-1.5,0.3-2.7,0.8-3.8c0.5-1,1.2-1.8,2.1-2.4s1.9-0.8,3-0.8c1.7,0,3,0.5,4,1.6c1,1.1,1.4,2.6,1.5,4.6v0.7L81.9,56.4L81.9,56.4z
			 M83.3,52c-0.7,0.6-1.1,1.5-1.3,2.7h7.4c-0.1-1.2-0.4-2.1-1-2.7c-0.6-0.6-1.4-0.9-2.5-0.9C84.8,51.1,84,51.4,83.3,52z M96.4,62.6
			c-0.5-0.4-0.7-1.2-0.7-2.4V42.7h1.8v17.2c0,0.7,0.1,1.1,0.3,1.3s0.6,0.4,1.2,0.4c0.4,0,0.8,0,1.2-0.1v1.7
			c-0.5,0.1-0.9,0.1-1.2,0.1C97.7,63.3,96.9,63.1,96.4,62.6z"/>
		<g id="Page-1" transform="translate(9.000000, 8.000000)">
			<path id="Fill-1" class="st0" d="M-181,13C-181,13-181,13-181,13C-181,13.1-180.9,13.1-181,13C-180.9,13.1-181,13-181,13"/>
			<path id="Fill-3" class="st0" d="M-188,6.6c-1.2-0.9-2.4-1.8-3.7-2.6c-1.5,1-3,2.2-4.3,3.6c2.3,1.3,4.4,2.8,6.4,4.4
				C-189.1,10.2-188.6,8.4-188,6.6"/>
			<path id="Fill-5" class="st0" d="M-169.8,51.6c0,1.5-0.1,3-0.2,4.4c1.7-0.5,3.4-1.1,4.9-1.9c0-0.8,0.1-1.7,0.1-2.5
				c0-1.3,0-2.5-0.1-3.7c-1.6-0.2-3.3-0.5-4.9-0.9C-169.9,48.5-169.8,50-169.8,51.6"/>
			<path id="Fill-7" class="st0" d="M-167.9,33c-1.7,0.6-3.4,1.2-5.1,1.7c0.4,1,0.7,2,1,3c2,0.5,3.9,0.9,6,1.3
				C-166.5,37-167.1,35-167.9,33"/>
			<path id="Fill-9" class="st0" d="M-156.2,27c-1.6,1-3.1,2-4.8,2.8c3.6,2.9,7.6,5.3,11.8,7.2c0.5-1.6,0.9-3.4,1.2-5.1
				C-150.9,30.5-153.7,28.9-156.2,27"/>
			<path id="Fill-11" class="st0" d="M-164.4,20c-1.8,0.5-3.6,0.9-5.5,1.2c0,0.1-0.1,0.2-0.1,0.2c0.7,0.9,1.5,1.7,2.2,2.6
				c1.6-0.8,3.2-1.6,4.8-2.5C-163.5,21-164,20.5-164.4,20"/>
			<path id="Fill-13" class="st0" d="M-202.2,29.6c-0.9-0.2-1.9-0.4-2.8-0.6c0.1,2,0.3,3.9,0.7,5.8c3,0.6,6.1,1,9.3,1.2
				C-197.5,34-199.9,31.9-202.2,29.6"/>
			<path id="Fill-15" class="st0" d="M-150,19.9c-0.6-1.7-1.3-3.3-2.1-4.9c-5.6,5.3-12.2,9.5-19.5,12.3c-0.3,2-0.8,3.9-1.3,5.7
				C-164.4,30.3-156.6,25.8-150,19.9"/>
			<path id="Fill-17" class="st0" d="M-185,51.1c-0.9-1.7-1.6-3.4-2.3-5.1c-1.7,1.9-3.6,3.7-5.7,5.3c1.5,1.1,3.1,2,4.9,2.7
				C-187.1,53.1-186,52.1-185,51.1"/>
			<path id="Fill-19" class="st0" d="M-174,6.5c-0.5-1.5-1-3.1-1.7-4.5c-1.3,2.1-2.4,4.2-3.3,6.5c0.4,1.5,0.8,3,1.1,4.5
				c0.7,0,1.4-0.1,2.1-0.1C-175.1,10.8-174.5,8.7-174,6.5"/>
			<path id="Fill-21" class="st0" d="M-175.6,37c1.2-3.2,2.1-6.5,2.6-10c-1.8,3-3.8,5.9-6,8.5C-177.9,36-176.8,36.6-175.6,37"/>
			<path id="Fill-23" class="st0" d="M-156.3,42.1c-8.6,0-16.8-1.8-24.2-5.1c-0.2,0.2-0.3,0.3-0.5,0.5c0.4,1.8,1,3.6,1.6,5.3
				c7.2,2.7,14.9,4.2,23.1,4.2c0.6,0,1.2,0,1.8,0c1.4-1.6,2.6-3.3,3.6-5.1C-152.8,42-154.5,42.1-156.3,42.1"/>
			<path id="Fill-25" class="st0" d="M-191.4,30c-4.6-3.4-8.7-7.4-12.1-12c-0.7,2-1.3,4-1.6,6.2c3.5,4.1,7.5,7.7,12,10.8
				c0.7-0.5,1.4-1,2-1.6C-191.2,32.3-191.3,31.1-191.4,30"/>
			<path id="Fill-27" class="st0" d="M-184,21.6c-1.6-0.1-3.2-0.3-4.8-0.6c-0.2,1.7-0.2,3.3-0.2,5.1c0,2,0.1,4,0.3,5.9
				c1.6-1.5,3.1-3.1,4.5-4.8c0-0.4,0-0.7,0-1.1C-184.2,24.6-184.1,23.1-184,21.6"/>
			<path id="Fill-32" class="st0" d="M-182.8,39c-1.3,1.2-2.8,2.4-4.2,3.5c1.5,5.1,3.8,9.9,6.7,14.2c1.2,0.2,2.5,0.3,3.7,0.3
				c0.9,0,1.7-0.1,2.5-0.1C-178.1,51.6-181.1,45.6-182.8,39"/>
			<path id="Fill-29" class="st0" d="M-177,0c-2.2,0-4.4,0.3-6.4,0.8c-1.9,3.7-3.5,7.5-4.6,11.6c1.7,0.3,3.5,0.5,5.2,0.6
				C-181.5,8.4-179.5,4-177,0"/>
			<path id="Fill-34" class="st0" d="M-167,1.3c-1.5-0.6-3.1-1-4.7-1.3c-0.3,4.2-1.1,8.2-2.3,12c1.8-0.2,3.6-0.5,5.3-1
				C-167.9,7.9-167.3,4.6-167,1.3"/>
			<path id="Fill-36" class="st0" d="M-172,21c-2,0.3-4,0.4-6,0.5c-5.3,9.3-13.3,16.8-23,21.2c0.9,1.5,1.8,3,3,4.3
				C-186.7,41.6-177.5,32.4-172,21"/>
			<path id="Fill-38" class="st0" d="M-153,13c-0.9-1.4-2-2.8-3.2-4c-7.1,3.8-15.1,6-23.7,6c-6.8,0-13.4-1.4-19.3-3.9
				c-1,1.3-2,2.8-2.8,4.3c6.8,3,14.2,4.6,22.1,4.6C-170.1,20-161,17.4-153,13"/>
		</g>
	</g>
</g>
</svg>
