<?xml version="1.0" encoding="UTF-8" standalone="no"?>
<svg
   xmlns:dc="http://purl.org/dc/elements/1.1/"
   xmlns:cc="http://creativecommons.org/ns#"
   xmlns:rdf="http://www.w3.org/1999/02/22-rdf-syntax-ns#"
   xmlns:svg="http://www.w3.org/2000/svg"
   xmlns="http://www.w3.org/2000/svg"
   xmlns:sodipodi="http://sodipodi.sourceforge.net/DTD/sodipodi-0.dtd"
   xmlns:inkscape="http://www.inkscape.org/namespaces/inkscape"
   width="217.54558"
   height="33.694664"
   viewBox="0 0 217.54558 33.694664"
   version="1.1"
   id="svg4315"
   sodipodi:docname="logo-text-white.svg"
   inkscape:version="0.92.5 (2060ec1f9f, 2020-04-08)">
  <metadata
     id="metadata4319">
    <rdf:RDF>
      <cc:Work
         rdf:about="">
        <dc:format>image/svg+xml</dc:format>
        <dc:type
           rdf:resource="http://purl.org/dc/dcmitype/StillImage" />
        <dc:title>logo_small@2x</dc:title>
      </cc:Work>
    </rdf:RDF>
  </metadata>
  <sodipodi:namedview
     pagecolor="#ffffff"
     bordercolor="#666666"
     borderopacity="1"
     objecttolerance="10"
     gridtolerance="10"
     guidetolerance="10"
     inkscape:pageopacity="0"
     inkscape:pageshadow="2"
     inkscape:window-width="1227"
     inkscape:window-height="837"
     id="namedview4317"
     showgrid="false"
     inkscape:pagecheckerboard="true"
     fit-margin-top="0"
     fit-margin-left="0"
     fit-margin-right="0"
     fit-margin-bottom="0"
     inkscape:zoom="1.6125"
     inkscape:cx="-0.20704473"
     inkscape:cy="15.731051"
     inkscape:window-x="665"
     inkscape:window-y="205"
     inkscape:window-maximized="0"
     inkscape:current-layer="svg4315" />
  <!-- Generator: Sketch 43.2 (39069) - http://www.bohemiancoding.com/sketch -->
  <title
     id="title4286">logo_small@2x</title>
  <desc
     id="desc4288">Created with Sketch.</desc>
  <defs
     id="defs4290" />
  <path
     style="fill:#ffffff;stroke-width:0.55821604"
     d="M 16.846788,0 A 16.847048,16.847048 0 0 0 2.0401499e-8,16.847877 16.847048,16.847048 0 0 0 16.846788,33.694663 16.847048,16.847048 0 0 0 33.693575,16.847877 16.847048,16.847048 0 0 0 16.846788,0 Z M 11.77051,4.6739711 a 4.0734316,4.0734316 0 0 1 4.07323,4.07323 4.0734316,4.0734316 0 0 1 -4.07323,4.0743249 4.0734316,4.0734316 0 0 1 -4.0732346,-4.0743249 4.0734316,4.0734316 0 0 1 4.0732346,-4.07323 z"
     id="path50"
     inkscape:connector-curvature="0" />
  <g
     transform="matrix(0.82328408,0,0,0.82328408,138.74081,-0.95187691)"
     aria-label="Default Title"
     style="font-style:normal;font-weight:normal;font-size:40px;line-height:1.25;font-family:sans-serif;letter-spacing:0px;word-spacing:0px;opacity:1;fill:#ffffff;fill-opacity:1;stroke:none"
     id="text62">
    <path
       inkscape:connector-curvature="0"
       d="m -117.45287,34.798431 h 10.64 c 4.144,0 6.75733,-0.970666 8.586666,-3.173333 2.165333,-2.538666 3.322666,-6.234666 3.322666,-10.453333 0,-4.181333 -1.157333,-7.877333 -3.322666,-10.453333 -1.829336,-2.2026664 -4.405336,-3.1359997 -8.586666,-3.1359997 h -10.64 z m 5.6,-4.666666 V 12.249099 h 5.04 c 4.21867,0 6.30933,2.949333 6.30933,8.96 0,5.973333 -2.09066,8.922666 -6.30933,8.922666 z"
       style="font-style:normal;font-variant:normal;font-weight:600;font-stretch:normal;font-size:37.33333206px;font-family:FreeSans;-inkscape-font-specification:'FreeSans, Semi-Bold';font-variant-ligatures:normal;font-variant-caps:normal;font-variant-numeric:normal;font-feature-settings:normal;text-align:start;writing-mode:lr-tb;text-anchor:start;fill:#ffffff"
       id="path3801" />
    <path
       inkscape:connector-curvature="0"
       d="m -82.583574,14.302432 c -5.786666,0 -9.333333,4.181333 -9.333333,10.938666 0,6.458667 3.509333,10.416 9.221333,10.416 4.517333,0 8.176,-2.576 9.333333,-6.533333 h -5.152 c -0.634666,1.605333 -2.090666,2.538667 -3.994666,2.538667 -3.509333,0 -4.069333,-2.576 -4.181333,-5.301334 h 13.514666 c 0.03733,-0.448 0.03733,-0.634666 0.03733,-0.896 0,-8.922666 -5.413333,-11.162666 -9.445333,-11.162666 z m 3.994667,8.586666 h -8.026667 c 0.336,-3.061333 1.642667,-4.591999 3.957333,-4.591999 2.426667,0 3.845334,1.642666 4.069334,4.591999 z"
       style="font-style:normal;font-variant:normal;font-weight:600;font-stretch:normal;font-size:37.33333206px;font-family:FreeSans;-inkscape-font-specification:'FreeSans, Semi-Bold';font-variant-ligatures:normal;font-variant-caps:normal;font-variant-numeric:normal;font-feature-settings:normal;text-align:start;writing-mode:lr-tb;text-anchor:start;fill:#ffffff"
       id="path3803" />
    <path
       inkscape:connector-curvature="0"
       d="m -59.959641,15.049099 h -3.098666 v -1.978667 c 0,-1.045333 0.448,-1.568 1.418666,-1.568 0.448,0 1.045334,0.03733 1.493334,0.112 V 7.6944323 c -0.970667,-0.074667 -2.277334,-0.112 -2.986667,-0.112 -3.472,0 -5.152,1.6426666 -5.152,5.0399997 v 2.426667 h -2.837333 v 3.472 h 2.837333 v 16.277332 h 5.226667 V 18.521099 h 3.098666 z"
       style="font-style:normal;font-variant:normal;font-weight:600;font-stretch:normal;font-size:37.33333206px;font-family:FreeSans;-inkscape-font-specification:'FreeSans, Semi-Bold';font-variant-ligatures:normal;font-variant-caps:normal;font-variant-numeric:normal;font-feature-settings:normal;text-align:start;writing-mode:lr-tb;text-anchor:start;fill:#ffffff"
       id="path3805" />
    <path
       inkscape:connector-curvature="0"
       d="m -51.223695,35.657098 c 2.24,0 4.293333,-0.970667 6.122666,-2.874667 0,1.045334 0.112,1.418667 0.597334,2.016 h 5.674666 v -0.634666 c -0.933333,-0.858667 -1.194667,-1.418667 -1.194667,-2.464 v -11.2 c 0,-4.106666 -2.8,-6.197333 -8.250666,-6.197333 -5.450666,0 -8.288,2.314667 -8.624,6.981333 h 5.04 c 0.261333,-2.090666 1.12,-2.762666 3.696,-2.762666 2.016,0 3.024,0.672 3.024,2.016 0,1.978666 -2.464,2.090666 -4.181333,2.351999 l -2.090667,0.373334 c -3.994666,0.672 -5.936,2.725333 -5.936,6.346666 0,3.621333 2.464,6.048 6.122667,6.048 z m 6.085333,-8.96 c 0,3.024 -1.493333,4.741334 -4.144,4.741334 -1.754667,0 -2.837333,-0.933334 -2.837333,-2.426667 0,-1.568 0.821333,-2.314667 2.986666,-2.762667 l 1.792,-0.336 c 1.381334,-0.261333 1.605334,-0.336 2.202667,-0.634666 z"
       style="font-style:normal;font-variant:normal;font-weight:600;font-stretch:normal;font-size:37.33333206px;font-family:FreeSans;-inkscape-font-specification:'FreeSans, Semi-Bold';font-variant-ligatures:normal;font-variant-caps:normal;font-variant-numeric:normal;font-feature-settings:normal;text-align:start;writing-mode:lr-tb;text-anchor:start;fill:#ffffff"
       id="path3807" />
    <path
       inkscape:connector-curvature="0"
       d="M -17.250364,34.798431 V 14.638432 h -5.226667 v 12.618666 c 0,2.389334 -1.68,3.957334 -4.218666,3.957334 -2.24,0 -3.36,-1.194667 -3.36,-3.621334 V 14.638432 h -5.226667 v 14.037333 c 0,4.442666 2.464,6.981333 6.757334,6.981333 2.725333,0 4.554666,-1.008 6.047999,-3.248 v 2.389333 z"
       style="font-style:normal;font-variant:normal;font-weight:600;font-stretch:normal;font-size:37.33333206px;font-family:FreeSans;-inkscape-font-specification:'FreeSans, Semi-Bold';font-variant-ligatures:normal;font-variant-caps:normal;font-variant-numeric:normal;font-feature-settings:normal;text-align:start;writing-mode:lr-tb;text-anchor:start;fill:#ffffff"
       id="path3809" />
    <path
       inkscape:connector-curvature="0"
       d="m -7.170405,7.5824323 h -5.226667 V 34.798431 h 5.226667 z"
       style="font-style:normal;font-variant:normal;font-weight:600;font-stretch:normal;font-size:37.33333206px;font-family:FreeSans;-inkscape-font-specification:'FreeSans, Semi-Bold';font-variant-ligatures:normal;font-variant-caps:normal;font-variant-numeric:normal;font-feature-settings:normal;text-align:start;writing-mode:lr-tb;text-anchor:start;fill:#ffffff"
       id="path3811" />
    <path
       inkscape:connector-curvature="0"
       d="M 6.7548766,15.049099 H 3.8428767 V 9.6357656 h -5.2266665 v 5.4133334 h -2.5759999 v 3.472 h 2.5759999 v 12.394666 c 0,3.173333 1.67999996,4.741333 5.1146665,4.741333 1.1573333,0 2.0906666,-0.112 3.0239999,-0.410667 v -3.658666 c -0.5226666,0.07467 -0.8213333,0.112 -1.1946666,0.112 -1.3813333,0 -1.7173333,-0.410667 -1.7173333,-2.202667 V 18.521099 h 2.9119999 z"
       style="font-style:normal;font-variant:normal;font-weight:600;font-stretch:normal;font-size:37.33333206px;font-family:FreeSans;-inkscape-font-specification:'FreeSans, Semi-Bold';font-variant-ligatures:normal;font-variant-caps:normal;font-variant-numeric:normal;font-feature-settings:normal;text-align:start;writing-mode:lr-tb;text-anchor:start;fill:#ffffff"
       id="path3813" />
    <path
       inkscape:connector-curvature="0"
       d="m 33.224183,12.249099 h 7.952 V 7.5824323 H 19.373517 v 4.6666667 h 8.250666 v 22.549332 h 5.6 z"
       style="font-style:normal;font-variant:normal;font-weight:600;font-stretch:normal;font-size:37.33333206px;font-family:FreeSans;-inkscape-font-specification:'FreeSans, Semi-Bold';font-variant-ligatures:normal;font-variant-caps:normal;font-variant-numeric:normal;font-feature-settings:normal;text-align:start;writing-mode:lr-tb;text-anchor:start;fill:#ffffff"
       id="path3815" />
    <path
       inkscape:connector-curvature="0"
       d="m 50.13615,14.638432 h -5.226667 v 20.159999 h 5.226667 z m 0,-7.0559997 h -5.226667 v 4.6666667 h 5.226667 z"
       style="font-style:normal;font-variant:normal;font-weight:600;font-stretch:normal;font-size:37.33333206px;font-family:FreeSans;-inkscape-font-specification:'FreeSans, Semi-Bold';font-variant-ligatures:normal;font-variant-caps:normal;font-variant-numeric:normal;font-feature-settings:normal;text-align:start;writing-mode:lr-tb;text-anchor:start;fill:#ffffff"
       id="path3817" />
    <path
       inkscape:connector-curvature="0"
       d="m 64.248094,15.049099 h -2.912 V 9.6357656 h -5.226666 v 5.4133334 h -2.576 v 3.472 h 2.576 v 12.394666 c 0,3.173333 1.68,4.741333 5.114666,4.741333 1.157333,0 2.090667,-0.112 3.024,-0.410667 v -3.658666 c -0.522667,0.07467 -0.821333,0.112 -1.194667,0.112 -1.381333,0 -1.717333,-0.410667 -1.717333,-2.202667 V 18.521099 h 2.912 z"
       style="font-style:normal;font-variant:normal;font-weight:600;font-stretch:normal;font-size:37.33333206px;font-family:FreeSans;-inkscape-font-specification:'FreeSans, Semi-Bold';font-variant-ligatures:normal;font-variant-caps:normal;font-variant-numeric:normal;font-feature-settings:normal;text-align:start;writing-mode:lr-tb;text-anchor:start;fill:#ffffff"
       id="path3819" />
    <path
       inkscape:connector-curvature="0"
       d="M 73.021413,7.5824323 H 67.794747 V 34.798431 h 5.226666 z"
       style="font-style:normal;font-variant:normal;font-weight:600;font-stretch:normal;font-size:37.33333206px;font-family:FreeSans;-inkscape-font-specification:'FreeSans, Semi-Bold';font-variant-ligatures:normal;font-variant-caps:normal;font-variant-numeric:normal;font-feature-settings:normal;text-align:start;writing-mode:lr-tb;text-anchor:start;fill:#ffffff"
       id="path3821" />
    <path
       inkscape:connector-curvature="0"
       d="m 86.274687,14.302432 c -5.786666,0 -9.333333,4.181333 -9.333333,10.938666 0,6.458667 3.509333,10.416 9.221333,10.416 4.517333,0 8.176,-2.576 9.333333,-6.533333 h -5.152 c -0.634666,1.605333 -2.090666,2.538667 -3.994666,2.538667 -3.509333,0 -4.069333,-2.576 -4.181333,-5.301334 h 13.514666 c 0.03733,-0.448 0.03733,-0.634666 0.03733,-0.896 0,-8.922666 -5.413333,-11.162666 -9.445333,-11.162666 z m 3.994667,8.586666 h -8.026667 c 0.336,-3.061333 1.642667,-4.591999 3.957334,-4.591999 2.426666,0 3.845333,1.642666 4.069333,4.591999 z"
       style="font-style:normal;font-variant:normal;font-weight:600;font-stretch:normal;font-size:37.33333206px;font-family:FreeSans;-inkscape-font-specification:'FreeSans, Semi-Bold';font-variant-ligatures:normal;font-variant-caps:normal;font-variant-numeric:normal;font-feature-settings:normal;text-align:start;writing-mode:lr-tb;text-anchor:start;fill:#ffffff"
       id="path3823" />
  </g>
</svg>
