<?xml version="1.0" encoding="UTF-8"?>
<svg width="240px" height="48px" viewBox="0 0 240 48" version="1.1" xmlns="http://www.w3.org/2000/svg" xmlns:xlink="http://www.w3.org/1999/xlink">
    <!-- Generator: Sketch 43.2 (39069) - http://www.bohemiancoding.com/sketch -->
    <title>logo_small@2x</title>
    <desc>Created with Sketch.</desc>
    <defs></defs>
    <g id="Symbols" stroke="none" stroke-width="1" fill="none" fill-rule="evenodd">
        <g id="logo_small" fill="#FFFFFF">
            <path d="M43.804,32.132 C42.9319956,31.9479991 42.0240047,31.6320022 41.08,31.184 L41.08,27.512 C41.9920046,28.0240026 42.9119954,28.3919989 43.84,28.616 C44.7680046,28.8400011 45.7599947,28.952 46.816,28.952 C47.8560052,28.952 48.376,28.6400031 48.376,28.016 C48.376,27.7599987 48.3040007,27.5680006 48.16,27.44 C48.0159993,27.3119994 47.7840016,27.2080004 47.464,27.128 L45.136,26.648 C43.7759932,26.3759986 42.7840031,25.9120033 42.16,25.256 C41.5359969,24.5999967 41.224,23.7040057 41.224,22.568 C41.224,21.0319923 41.6999952,19.8920037 42.652,19.148 C43.6040048,18.4039963 45.0479903,18.032 46.984,18.032 C47.784004,18.032 48.6199956,18.1119992 49.492,18.272 C50.3640044,18.4320008 51.1919961,18.6399987 51.976,18.896 L51.976,22.448 C51.367997,22.1599986 50.6280044,21.9280009 49.756,21.752 C48.8839956,21.5759991 48.0320042,21.488 47.2,21.488 C46.5439967,21.488 46.0880013,21.5519994 45.832,21.68 C45.5759987,21.8080006 45.448,22.0079986 45.448,22.28 C45.448,22.488001 45.5119994,22.6359996 45.64,22.724 C45.7680006,22.8120004 45.9839985,22.8879997 46.288,22.952 L48.616,23.432 C50.024007,23.7200014 51.0399969,24.1919967 51.664,24.848 C52.2880031,25.5040033 52.6,26.4799935 52.6,27.776 C52.6,29.3280078 52.0800052,30.4879962 51.04,31.256 C49.9999948,32.0240038 48.5920089,32.408 46.816,32.408 C45.6799943,32.408 44.6760044,32.3160009 43.804,32.132 Z M60.98,28.304 C61.5320028,28.7360022 62.3439946,28.952 63.416,28.952 C64.0400031,28.952 64.6359972,28.8760008 65.204,28.724 C65.7720028,28.5719992 66.4239963,28.3120018 67.16,27.944 L68.24,31.16 C67.4079958,31.6240023 66.5840041,31.9479991 65.768,32.132 C64.9519959,32.3160009 63.9760057,32.408 62.84,32.408 C61.2559921,32.408 59.9080056,32.108003 58.796,31.508 C57.6839944,30.907997 56.8400029,30.0640054 56.264,28.976 C55.6879971,27.8879946 55.4,26.6240072 55.4,25.184 C55.4,23.6799925 55.695997,22.3880054 56.288,21.308 C56.880003,20.2279946 57.679995,19.4120028 58.688,18.86 C59.696005,18.3079972 60.8239938,18.032 62.072,18.032 C64.07201,18.032 65.6399943,18.6119942 66.776,19.772 C67.9120057,20.9320058 68.48,22.6239889 68.48,24.848 L68.48,26.504 L59.888,26.504 C60.0640009,27.2720038 60.4279972,27.8719978 60.98,28.304 Z M60.668,21.92 C60.3079982,22.2080014 60.0560007,22.7039965 59.912,23.408 L64.088,23.408 C64.0239997,22.7359966 63.8280016,22.2480015 63.5,21.944 C63.1719984,21.6399985 62.6960031,21.488 62.072,21.488 C61.4959971,21.488 61.0280018,21.6319986 60.668,21.92 Z M83.904,19.496 C84.8000045,20.4080046 85.248,21.8559901 85.248,23.84 L85.248,32 L81.072,32 L81.072,23.84 C81.072,23.1839967 80.9080016,22.6840017 80.58,22.34 C80.2519984,21.9959983 79.6960039,21.824 78.912,21.824 C77.9839954,21.824 77.0320049,22.2079962 76.056,22.976 L76.056,32 L71.88,32 L71.88,18.416 L76.056,18.416 L76.056,19.496 C76.648003,19.0319977 77.2519969,18.6880011 77.868,18.464 C78.4840031,18.2399989 79.1439965,18.128 79.848,18.128 C81.656009,18.128 83.0079955,18.5839954 83.904,19.496 Z M89.488,12.632 L93.664,12.632 L93.664,16.256 L89.488,16.256 L89.488,12.632 Z M89.488,18.416 L93.664,18.416 L93.664,32 L89.488,32 L89.488,18.416 Z M100.472,31.46 C99.3839946,30.8279968 98.5640028,29.9680054 98.012,28.88 C97.4599972,27.7919946 97.184,26.5680068 97.184,25.208 C97.184,23.8639933 97.4599972,22.6480054 98.012,21.56 C98.5640028,20.4719946 99.3839946,19.6120032 100.472,18.98 C101.560005,18.3479968 102.887992,18.032 104.456,18.032 C106.008008,18.032 107.327995,18.3479968 108.416,18.98 C109.504005,19.6120032 110.319997,20.4719946 110.864,21.56 C111.408003,22.6480054 111.68,23.8639933 111.68,25.208 C111.68,26.5680068 111.408003,27.7919946 110.864,28.88 C110.319997,29.9680054 109.504005,30.8279968 108.416,31.46 C107.327995,32.0920032 106.008008,32.408 104.456,32.408 C102.887992,32.408 101.560005,32.0920032 100.472,31.46 Z M106.604,27.92 C107.092002,27.2959969 107.336,26.3920059 107.336,25.208 C107.336,24.0399942 107.092002,23.1440031 106.604,22.52 C106.115998,21.8959969 105.400005,21.584 104.456,21.584 C103.495995,21.584 102.768002,21.8959969 102.272,22.52 C101.775998,23.1440031 101.528,24.0399942 101.528,25.208 C101.528,26.3920059 101.775998,27.2959969 102.272,27.92 C102.768002,28.5440031 103.495995,28.856 104.456,28.856 C105.400005,28.856 106.115998,28.5440031 106.604,27.92 Z M123.624,18.128 L123.624,21.824 L123.072,21.824 C121.839994,21.824 120.608006,22.2639956 119.376,23.144 L119.376,32 L115.2,32 L115.2,18.416 L119.376,18.416 L119.376,19.616 C119.968003,19.1199975 120.563997,18.7480012 121.164,18.5 C121.764003,18.2519988 122.399997,18.128 123.072,18.128 L123.624,18.128 Z M131.764,28.304 C132.316003,28.7360022 133.127995,28.952 134.2,28.952 C134.824003,28.952 135.419997,28.8760008 135.988,28.724 C136.556003,28.5719992 137.207996,28.3120018 137.944,27.944 L139.024,31.16 C138.191996,31.6240023 137.368004,31.9479991 136.552,32.132 C135.735996,32.3160009 134.760006,32.408 133.624,32.408 C132.039992,32.408 130.692006,32.108003 129.58,31.508 C128.467994,30.907997 127.624003,30.0640054 127.048,28.976 C126.471997,27.8879946 126.184,26.6240072 126.184,25.184 C126.184,23.6799925 126.479997,22.3880054 127.072,21.308 C127.664003,20.2279946 128.463995,19.4120028 129.472,18.86 C130.480005,18.3079972 131.607994,18.032 132.856,18.032 C134.85601,18.032 136.423994,18.6119942 137.56,19.772 C138.696006,20.9320058 139.264,22.6239889 139.264,24.848 L139.264,26.504 L130.672,26.504 C130.848001,27.2720038 131.211997,27.8719978 131.764,28.304 Z M131.452,21.92 C131.091998,22.2080014 130.840001,22.7039965 130.696,23.408 L134.872,23.408 C134.808,22.7359966 134.612002,22.2480015 134.284,21.944 C133.955998,21.6399985 133.480003,21.488 132.856,21.488 C132.279997,21.488 131.812002,21.6319986 131.452,21.92 Z M154.688,19.496 C155.584004,20.4080046 156.032,21.8559901 156.032,23.84 L156.032,32 L151.856,32 L151.856,23.84 C151.856,23.1839967 151.692002,22.6840017 151.364,22.34 C151.035998,21.9959983 150.480004,21.824 149.696,21.824 C148.767995,21.824 147.816005,22.2079962 146.84,22.976 L146.84,32 L142.664,32 L142.664,18.416 L146.84,18.416 L146.84,19.496 C147.432003,19.0319977 148.035997,18.6880011 148.652,18.464 C149.268003,18.2399989 149.927996,18.128 150.632,18.128 C152.440009,18.128 153.791996,18.5839954 154.688,19.496 Z M178.576,19.496 C179.472004,20.4080046 179.92,21.8559901 179.92,23.84 L179.92,32 L175.744,32 L175.744,23.84 C175.744,23.1839967 175.580002,22.6840017 175.252,22.34 C174.923998,21.9959983 174.368004,21.824 173.584,21.824 C172.655995,21.824 171.704005,22.2079962 170.728,22.976 L170.728,32 L166.552,32 L166.552,18.416 L170.728,18.416 L170.728,19.496 C171.320003,19.0319977 171.923997,18.6880011 172.54,18.464 C173.156003,18.2399989 173.815996,18.128 174.52,18.128 C176.328009,18.128 177.679996,18.5839954 178.576,19.496 Z M188.9,28.304 C189.452003,28.7360022 190.263995,28.952 191.336,28.952 C191.960003,28.952 192.555997,28.8760008 193.124,28.724 C193.692003,28.5719992 194.343996,28.3120018 195.08,27.944 L196.16,31.16 C195.327996,31.6240023 194.504004,31.9479991 193.688,32.132 C192.871996,32.3160009 191.896006,32.408 190.76,32.408 C189.175992,32.408 187.828006,32.108003 186.716,31.508 C185.603994,30.907997 184.760003,30.0640054 184.184,28.976 C183.607997,27.8879946 183.32,26.6240072 183.32,25.184 C183.32,23.6799925 183.615997,22.3880054 184.208,21.308 C184.800003,20.2279946 185.599995,19.4120028 186.608,18.86 C187.616005,18.3079972 188.743994,18.032 189.992,18.032 C191.99201,18.032 193.559994,18.6119942 194.696,19.772 C195.832006,20.9320058 196.4,22.6239889 196.4,24.848 L196.4,26.504 L187.808,26.504 C187.984001,27.2720038 188.347997,27.8719978 188.9,28.304 Z M188.588,21.92 C188.227998,22.2080014 187.976001,22.7039965 187.832,23.408 L192.008,23.408 C191.944,22.7359966 191.748002,22.2480015 191.42,21.944 C191.091998,21.6399985 190.616003,21.488 189.992,21.488 C189.415997,21.488 188.948002,21.6319986 188.588,21.92 Z M204.888,22.592 L204.888,27.176 C204.888,27.7040026 204.975999,28.0759989 205.152,28.292 C205.328001,28.5080011 205.647998,28.616 206.112,28.616 C206.640003,28.616 207.111998,28.5520006 207.528,28.424 L207.528,31.976 C206.983997,32.0880006 206.524002,32.1719997 206.148,32.228 C205.771998,32.2840003 205.368002,32.312 204.936,32.312 C203.511993,32.312 202.452003,32.0000031 201.756,31.376 C201.059997,30.7519969 200.712,29.8560058 200.712,28.688 L200.712,22.592 L198.84,22.592 L198.84,18.896 L200.712,18.896 L200.712,14.336 L204.888,14.336 L204.888,18.896 L207.96,18.896 L207.96,22.592 L204.888,22.592 Z M222.52,28.352 L222.52,32 L211.24,32 L211.24,28.352 L217.144,22.064 L211.672,22.064 L211.672,18.416 L221.992,18.416 L221.992,22.064 L216.112,28.352 L222.52,28.352 Z" id="senioren-netz"></path>
            <g id="Page-1" transform="translate(0.000000, 8.000000)">
                <path d="M13.1962353,7.52941176 C13.1896471,7.55294118 13.1830588,7.57552941 13.1764706,7.59905882 C13.2056471,7.6 13.2357647,7.60094118 13.2649412,7.60188235 C13.2414118,7.57741176 13.2197647,7.55294118 13.1962353,7.52941176" id="Fill-1"></path>
                <path d="M9.41176471,3.40804572 C8.70351589,2.86924577 7.97582826,2.35947208 7.22701149,1.88235294 C6.32268425,2.49281147 5.48005409,3.19216291 4.70588235,3.97315071 C6.03279243,4.74053245 7.29631508,5.61676266 8.48884381,6.58823529 C8.75084517,5.50791419 9.05933063,4.44664157 9.41176471,3.40804572" id="Fill-3"></path>
                <path d="M19.8739032,28.7524083 C19.8739032,29.530227 19.8341241,30.2977065 19.7717257,31.0588235 C20.7396815,30.8186382 21.6701982,30.4861963 22.5562561,30.0678603 C22.5741956,29.631232 22.5882353,29.1938085 22.5882353,28.7524083 C22.5882353,28.0986589 22.560936,27.451272 22.520377,26.8070664 C21.5906402,26.690155 20.6694833,26.5438169 19.7647059,26.3529412 C19.8325642,27.1442802 19.8739032,27.9435724 19.8739032,28.7524083" id="Fill-5"></path>
                <path d="M20.6387607,18.8235294 C19.7348273,19.2213725 18.8191107,19.5914591 17.8823529,19.911584 C18.0843492,20.5333295 18.2661459,21.1652523 18.4336345,21.8036517 C19.4848569,22.1228514 20.5562788,22.3856129 21.6470588,22.5882353 C21.3726805,21.3058852 21.038545,20.048516 20.6387607,18.8235294" id="Fill-7"></path>
                <path d="M27.2361264,15.0588235 C26.338336,15.627538 25.4182082,16.1661882 24.4705882,16.6614124 C26.5642871,18.2715173 28.8667544,19.6335926 31.3324563,20.7058824 C31.6451795,19.7747273 31.8642575,18.805992 32,17.8096978 C30.3186834,17.03805 28.724998,16.114411 27.2361264,15.0588235" id="Fill-9"></path>
                <path d="M22.7671032,11.2941176 C21.8037197,11.5185361 20.8225705,11.7029045 19.8252706,11.8486039 C19.8042749,11.8865824 19.7857017,11.9259419 19.7647059,11.9639204 C20.1498978,12.3775409 20.5455876,12.7835657 20.9582355,13.1764706 C21.839251,12.8222347 22.6968481,12.4327824 23.5294118,12.0115662 C23.2701946,11.77679 23.0158225,11.5378706 22.7671032,11.2941176" id="Fill-11"></path>
                <path d="M1.59482682,16.3271085 C1.05893071,16.2307509 0.52732177,16.1217148 0,16 C0.037727086,17.0641591 0.171486754,18.1012705 0.40470874,19.1045722 C2.11271681,19.4443593 3.86359658,19.6666579 5.64705882,19.7647059 C4.21514442,18.7123801 2.86211393,17.5620064 1.59482682,16.3271085" id="Fill-13"></path>
                <path d="M31.0588235,11.2744926 C30.7409482,10.2956391 30.3334371,9.35715924 29.8412698,8.47058824 C26.6533873,11.519206 22.853823,13.9375015 18.6417678,15.5227827 C18.4583463,16.6482994 18.2018882,17.7490976 17.8823529,18.8235294 C22.8231144,17.2563751 27.3032472,14.6568105 31.0588235,11.2744926" id="Fill-15"></path>
                <path d="M11.2941176,28.430241 C10.793872,27.4503173 10.3418643,26.443582 9.94077449,25.4117647 C8.92420385,26.5395851 7.80222431,27.5748619 6.58823529,28.502892 C7.48153111,29.1256149 8.43735763,29.666173 9.4467819,30.1176471 C10.0881683,29.5822783 10.7045424,29.0192331 11.2941176,28.430241" id="Fill-17"></path>
                <path d="M17.8823529,3.65708538 C17.6102896,2.73036727 17.2937543,1.82389087 16.9301312,0.941176471 C16.2150928,2.18208106 15.5881263,3.48195062 15.0588235,4.83022426 C15.304727,5.71117851 15.5061585,6.6114944 15.6543981,7.52941176 C16.0485412,7.51709073 16.4400683,7.49684902 16.8307234,7.46868665 C17.2623624,6.2330625 17.6181376,4.96223539 17.8823529,3.65708538" id="Fill-19"></path>
                <path d="M17.1966232,20.7058824 C17.9486999,18.9119547 18.5036807,17.0226935 18.8235294,15.0588235 C17.7230769,16.7731685 16.4635645,18.38389 15.0588235,19.8669476 C15.7607618,20.1670409 16.4704802,20.4522124 17.1966232,20.7058824" id="Fill-21"></path>
                <path d="M27.1095858,23.586256 C22.2402558,23.586256 17.6200849,22.5495441 13.4619311,20.7058824 C13.3654026,20.8012853 13.2738242,20.9006633 13.1764706,20.9944762 C13.4182045,22.0073374 13.7168656,22.999528 14.0774039,23.9646877 C18.1167533,25.4998799 22.5108658,26.3529412 27.1095858,26.3529412 C27.4412481,26.3529412 27.7687852,26.3378357 28.0987974,26.3282954 C28.8784512,25.4474083 29.5566263,24.4830436 30.1176471,23.4479218 C29.1259604,23.5353744 28.1243733,23.586256 27.1095858,23.586256" id="Fill-23"></path>
                <path d="M7.33699697,16.9761243 C4.8687252,15.1039175 2.67803544,12.8709587 0.841420439,10.3529412 C0.441607728,11.4376132 0.156928461,12.5762371 0,13.7599549 C1.88708445,16.0307606 4.05253949,18.0495229 6.4435299,19.7647059 C6.81416496,19.4812578 7.175337,19.1865362 7.52941176,18.8845674 C7.44661032,18.2540564 7.38273491,17.6179088 7.33699697,16.9761243" id="Fill-25"></path>
                <path d="M12.2352941,12.5939177 C11.328314,12.5164685 10.4322145,12.3977691 9.54855006,12.2352941 C9.46150483,13.2328738 9.41176471,14.2413975 9.41176471,15.2625487 C9.41176471,16.466379 9.48015738,17.6533726 9.60062175,18.8235294 C10.5068247,17.9252868 11.353184,16.9580133 12.1327051,15.9292855 C12.128042,15.7070399 12.1171613,15.4856361 12.1171613,15.2625487 C12.1171613,14.3626223 12.1606839,13.4727981 12.2352941,12.5939177" id="Fill-27"></path>
                <path d="M12.7983268,21.6470588 C12.0177778,22.3628747 11.2020915,23.042405 10.3529412,23.6815264 C11.2489412,26.6049911 12.5699346,29.3478526 14.2439739,31.8424875 C14.9542484,31.9348509 15.6737255,32 16.409098,32 C16.9068758,32 17.3962876,31.9694871 17.8823529,31.9266041 C15.5298301,28.9181981 13.7738039,25.4356052 12.7983268,21.6470588" id="Fill-32"></path>
                <path d="M16,0 C14.6748521,0.0161120423 13.3907802,0.180624474 12.1531421,0.463857218 C10.9878335,2.57962277 10.0591584,4.83022068 9.41176471,7.18936287 C10.438665,7.3538753 11.4816386,7.46920361 12.5406853,7.52941176 C13.3211296,4.84548472 14.4926889,2.31504608 16,0" id="Fill-29"></path>
                <path d="M20.7058824,0.712769146 C19.893292,0.397370751 19.0488789,0.157699198 18.1748633,0 C18.0261104,2.28741906 17.6035338,4.49442713 16.9411765,6.58823529 C17.9077001,6.47269331 18.8564623,6.29547688 19.7859827,6.06361222 C20.2433423,4.33750863 20.5549093,2.54973059 20.7058824,0.712769146" id="Fill-34"></path>
                <path d="M17.8823529,12.2352941 C16.793567,12.3880223 15.687064,12.4794866 14.5668708,12.5096871 C11.6661258,17.9069448 7.22239723,22.2325168 1.88235294,24.7909291 C2.35748884,25.6788233 2.9002712,26.5175338 3.51392129,27.2941176 C9.74625469,24.1636219 14.8277928,18.8319424 17.8823529,12.2352941" id="Fill-36"></path>
                <path d="M29.1764706,7.09939682 C28.6538155,6.24345523 28.0581186,5.44561708 27.4031767,4.70588235 C23.4694671,6.98145553 18.9684657,8.27534089 14.1899053,8.27534089 C10.3771205,8.27534089 6.74125938,7.45061905 3.42921709,5.96247745 C2.84488226,6.7655189 2.32547352,7.62146048 1.88235294,8.53030221 C5.65212418,10.3028905 9.8138867,11.2941176 14.1899053,11.2941176 C19.6307119,11.2941176 24.7412069,9.76521692 29.1764706,7.09939682" id="Fill-38"></path>
            </g>
        </g>
    </g>
</svg>