<?xml version="1.0" encoding="UTF-8"?>
<svg width="310px" height="72px" viewBox="0 0 310 72" version="1.1" xmlns="http://www.w3.org/2000/svg" xmlns:xlink="http://www.w3.org/1999/xlink">
    <!-- Generator: Sketch 43.2 (39069) - http://www.bohemiancoding.com/sketch -->
    <title>logo_large@2x</title>
    <desc>Created with Sketch.</desc>
    <defs></defs>
    <g id="Symbols" stroke="none" stroke-width="1" fill="none" fill-rule="evenodd">
        <g id="logo_large" fill="#FFFFFF">
            <path d="M78.755,31.165 C77.6649946,30.9349988 76.5300059,30.5400028 75.35,29.98 L75.35,25.39 C76.4900057,26.0300032 77.6399942,26.4899986 78.8,26.77 C79.9600058,27.0500014 81.1999934,27.19 82.52,27.19 C83.8200065,27.19 84.47,26.8000039 84.47,26.02 C84.47,25.6999984 84.3800009,25.4600008 84.2,25.3 C84.0199991,25.1399992 83.730002,25.0100005 83.33,24.91 L80.42,24.31 C78.7199915,23.9699983 77.4800039,23.3900041 76.7,22.57 C75.9199961,21.7499959 75.53,20.6300071 75.53,19.21 C75.53,17.2899904 76.124994,15.8650046 77.315,14.935 C78.5050059,14.0049954 80.3099879,13.54 82.73,13.54 C83.730005,13.54 84.7749946,13.639999 85.865,13.84 C86.9550055,14.040001 87.9899951,14.2999984 88.97,14.62 L88.97,19.06 C88.2099962,18.6999982 87.2850054,18.4100011 86.195,18.19 C85.1049946,17.9699989 84.0400052,17.86 83,17.86 C82.1799959,17.86 81.6100016,17.9399992 81.29,18.1 C80.9699984,18.2600008 80.81,18.5099983 80.81,18.85 C80.81,19.1100013 80.8899992,19.2949995 81.05,19.405 C81.2100008,19.5150005 81.4799981,19.6099996 81.86,19.69 L84.77,20.29 C86.5300088,20.6500018 87.7999961,21.2399959 88.58,22.06 C89.3600039,22.8800041 89.75,24.0999919 89.75,25.72 C89.75,27.6600097 89.1000065,29.1099952 87.8,30.07 C86.4999935,31.0300048 84.7400111,31.51 82.52,31.51 C81.0999929,31.51 79.8450055,31.3950011 78.755,31.165 Z M99.975,26.38 C100.665003,26.9200027 101.679993,27.19 103.02,27.19 C103.800004,27.19 104.544996,27.0950009 105.255,26.905 C105.965004,26.7149991 106.779995,26.3900023 107.7,25.93 L109.05,29.95 C108.009995,30.5300029 106.980005,30.9349988 105.96,31.165 C104.939995,31.3950011 103.720007,31.51 102.3,31.51 C100.31999,31.51 98.6350069,31.1350037 97.245,30.385 C95.854993,29.6349963 94.8000036,28.5800068 94.08,27.22 C93.3599964,25.8599932 93,24.280009 93,22.48 C93,20.5999906 93.3699963,18.9850067 94.11,17.635 C94.8500037,16.2849932 95.8499937,15.2650035 97.11,14.575 C98.3700063,13.8849966 99.7799922,13.54 101.34,13.54 C103.840013,13.54 105.799993,14.2649928 107.22,15.715 C108.640007,17.1650073 109.35,19.2799861 109.35,22.06 L109.35,24.13 L98.61,24.13 C98.8300011,25.0900048 99.2849966,25.8399973 99.975,26.38 Z M99.585,18.4 C99.1349977,18.7600018 98.8200009,19.3799956 98.64,20.26 L103.86,20.26 C103.78,19.4199958 103.535002,18.8100019 103.125,18.43 C102.714998,18.0499981 102.120004,17.86 101.34,17.86 C100.619996,17.86 100.035002,18.0399982 99.585,18.4 Z M128.38,15.37 C129.500006,16.5100057 130.06,18.3199876 130.06,20.8 L130.06,31 L124.84,31 L124.84,20.8 C124.84,19.9799959 124.635002,19.3550021 124.225,18.925 C123.814998,18.4949978 123.120005,18.28 122.14,18.28 C120.979994,18.28 119.790006,18.7599952 118.57,19.72 L118.57,31 L113.35,31 L113.35,14.02 L118.57,14.02 L118.57,15.37 C119.310004,14.7899971 120.064996,14.3600014 120.835,14.08 C121.605004,13.7999986 122.429996,13.66 123.31,13.66 C125.570011,13.66 127.259994,14.2299943 128.38,15.37 Z M135.11,6.79 L140.33,6.79 L140.33,11.32 L135.11,11.32 L135.11,6.79 Z M135.11,14.02 L140.33,14.02 L140.33,31 L135.11,31 L135.11,14.02 Z M148.59,30.325 C147.229993,29.5349961 146.205003,28.4600068 145.515,27.1 C144.824997,25.7399932 144.48,24.2100085 144.48,22.51 C144.48,20.8299916 144.824997,19.3100068 145.515,17.95 C146.205003,16.5899932 147.229993,15.515004 148.59,14.725 C149.950007,13.9349961 151.60999,13.54 153.57,13.54 C155.51001,13.54 157.159993,13.9349961 158.52,14.725 C159.880007,15.515004 160.899997,16.5899932 161.58,17.95 C162.260003,19.3100068 162.6,20.8299916 162.6,22.51 C162.6,24.2100085 162.260003,25.7399932 161.58,27.1 C160.899997,28.4600068 159.880007,29.5349961 158.52,30.325 C157.159993,31.115004 155.51001,31.51 153.57,31.51 C151.60999,31.51 149.950007,31.115004 148.59,30.325 Z M156.255,25.9 C156.865003,25.1199961 157.17,23.9900074 157.17,22.51 C157.17,21.0499927 156.865003,19.9300039 156.255,19.15 C155.644997,18.3699961 154.750006,17.98 153.57,17.98 C152.369994,17.98 151.460003,18.3699961 150.84,19.15 C150.219997,19.9300039 149.91,21.0499927 149.91,22.51 C149.91,23.9900074 150.219997,25.1199961 150.84,25.9 C151.460003,26.6800039 152.369994,27.07 153.57,27.07 C154.750006,27.07 155.644997,26.6800039 156.255,25.9 Z M177.28,13.66 L177.28,18.28 L176.59,18.28 C175.049992,18.28 173.510008,18.8299945 171.97,19.93 L171.97,31 L166.75,31 L166.75,14.02 L171.97,14.02 L171.97,15.52 C172.710004,14.8999969 173.454996,14.4350016 174.205,14.125 C174.955004,13.8149984 175.749996,13.66 176.59,13.66 L177.28,13.66 Z M187.205,26.38 C187.895003,26.9200027 188.909993,27.19 190.25,27.19 C191.030004,27.19 191.774996,27.0950009 192.485,26.905 C193.195004,26.7149991 194.009995,26.3900023 194.93,25.93 L196.28,29.95 C195.239995,30.5300029 194.210005,30.9349988 193.19,31.165 C192.169995,31.3950011 190.950007,31.51 189.53,31.51 C187.54999,31.51 185.865007,31.1350037 184.475,30.385 C183.084993,29.6349963 182.030004,28.5800068 181.31,27.22 C180.589996,25.8599932 180.23,24.280009 180.23,22.48 C180.23,20.5999906 180.599996,18.9850067 181.34,17.635 C182.080004,16.2849932 183.079994,15.2650035 184.34,14.575 C185.600006,13.8849966 187.009992,13.54 188.57,13.54 C191.070012,13.54 193.029993,14.2649928 194.45,15.715 C195.870007,17.1650073 196.58,19.2799861 196.58,22.06 L196.58,24.13 L185.84,24.13 C186.060001,25.0900048 186.514997,25.8399973 187.205,26.38 Z M186.815,18.4 C186.364998,18.7600018 186.050001,19.3799956 185.87,20.26 L191.09,20.26 C191.01,19.4199958 190.765002,18.8100019 190.355,18.43 C189.944998,18.0499981 189.350004,17.86 188.57,17.86 C187.849996,17.86 187.265002,18.0399982 186.815,18.4 Z M215.61,15.37 C216.730006,16.5100057 217.29,18.3199876 217.29,20.8 L217.29,31 L212.07,31 L212.07,20.8 C212.07,19.9799959 211.865002,19.3550021 211.455,18.925 C211.044998,18.4949978 210.350005,18.28 209.37,18.28 C208.209994,18.28 207.020006,18.7599952 205.8,19.72 L205.8,31 L200.58,31 L200.58,14.02 L205.8,14.02 L205.8,15.37 C206.540004,14.7899971 207.294996,14.3600014 208.065,14.08 C208.835004,13.7999986 209.659996,13.66 210.54,13.66 C212.800011,13.66 214.489994,14.2299943 215.61,15.37 Z M244.97,15.37 C246.090006,16.5100057 246.65,18.3199876 246.65,20.8 L246.65,31 L241.43,31 L241.43,20.8 C241.43,19.9799959 241.225002,19.3550021 240.815,18.925 C240.404998,18.4949978 239.710005,18.28 238.73,18.28 C237.569994,18.28 236.380006,18.7599952 235.16,19.72 L235.16,31 L229.94,31 L229.94,14.02 L235.16,14.02 L235.16,15.37 C235.900004,14.7899971 236.654996,14.3600014 237.425,14.08 C238.195004,13.7999986 239.019996,13.66 239.9,13.66 C242.160011,13.66 243.849994,14.2299943 244.97,15.37 Z M257.625,26.38 C258.315003,26.9200027 259.329993,27.19 260.67,27.19 C261.450004,27.19 262.194996,27.0950009 262.905,26.905 C263.615004,26.7149991 264.429995,26.3900023 265.35,25.93 L266.7,29.95 C265.659995,30.5300029 264.630005,30.9349988 263.61,31.165 C262.589995,31.3950011 261.370007,31.51 259.95,31.51 C257.96999,31.51 256.285007,31.1350037 254.895,30.385 C253.504993,29.6349963 252.450004,28.5800068 251.73,27.22 C251.009996,25.8599932 250.65,24.280009 250.65,22.48 C250.65,20.5999906 251.019996,18.9850067 251.76,17.635 C252.500004,16.2849932 253.499994,15.2650035 254.76,14.575 C256.020006,13.8849966 257.429992,13.54 258.99,13.54 C261.490012,13.54 263.449993,14.2649928 264.87,15.715 C266.290007,17.1650073 267,19.2799861 267,22.06 L267,24.13 L256.26,24.13 C256.480001,25.0900048 256.934997,25.8399973 257.625,26.38 Z M257.235,18.4 C256.784998,18.7600018 256.470001,19.3799956 256.29,20.26 L261.51,20.26 C261.43,19.4199958 261.185002,18.8100019 260.775,18.43 C260.364998,18.0499981 259.770004,17.86 258.99,17.86 C258.269996,17.86 257.685002,18.0399982 257.235,18.4 Z M277.36,19.24 L277.36,24.97 C277.36,25.6300033 277.469999,26.0949987 277.69,26.365 C277.910001,26.6350014 278.309997,26.77 278.89,26.77 C279.550003,26.77 280.139997,26.6900008 280.66,26.53 L280.66,30.97 C279.979997,31.1100007 279.405002,31.2149996 278.935,31.285 C278.464998,31.3550003 277.960003,31.39 277.42,31.39 C275.639991,31.39 274.315004,31.0000039 273.445,30.22 C272.574996,29.4399961 272.14,28.3200073 272.14,26.86 L272.14,19.24 L269.8,19.24 L269.8,14.62 L272.14,14.62 L272.14,8.92 L277.36,8.92 L277.36,14.62 L281.2,14.62 L281.2,19.24 L277.36,19.24 Z M299.15,26.44 L299.15,31 L285.05,31 L285.05,26.44 L292.43,18.58 L285.59,18.58 L285.59,14.02 L298.49,14.02 L298.49,18.58 L291.14,26.44 L299.15,26.44 Z M94.352,50.796 C95.1040038,51.6360042 95.48,53.0479901 95.48,55.032 L95.48,63 L93.704,63 L93.704,55.032 C93.704,53.639993 93.4800022,52.6560029 93.032,52.08 C92.5839978,51.5039971 91.8000056,51.216 90.68,51.216 C89.3039931,51.216 87.9600066,51.8879933 86.648,53.232 C86.7280004,53.824003 86.768,54.423997 86.768,55.032 L86.768,63 L84.992,63 L84.992,55.032 C84.992,53.639993 84.7680022,52.6560029 84.32,52.08 C83.8719978,51.5039971 83.0880056,51.216 81.968,51.216 C80.6399934,51.216 79.3360064,51.7999942 78.056,52.968 L78.056,63 L76.28,63 L76.28,49.824 L78.056,49.824 L78.056,51.312 C78.664003,50.7679973 79.3199965,50.3360016 80.024,50.016 C80.7280035,49.6959984 81.4319965,49.536 82.136,49.536 C83.1920053,49.536 84.0599966,49.7159982 84.74,50.076 C85.4200034,50.4360018 85.9279983,51.015996 86.264,51.816 C86.9360034,51.1119965 87.6639961,50.556002 88.448,50.148 C89.2320039,49.739998 90.0319959,49.536 90.848,49.536 C92.4320079,49.536 93.5999962,49.9559958 94.352,50.796 Z M107.196,50.532 C107.876003,51.0040024 108.331999,51.635996 108.564,52.428 C108.796001,53.220004 108.912,54.215994 108.912,55.416 L108.912,63 L107.136,63 L107.136,61.632 C106.495997,62.224003 105.868003,62.6519987 105.252,62.916 C104.635997,63.1800013 103.976004,63.312 103.272,63.312 C102.487996,63.312 101.768003,63.1320018 101.112,62.772 C100.455997,62.4119982 99.932002,61.8960034 99.54,61.224 C99.147998,60.5519966 98.952,59.7520046 98.952,58.824 C98.952,57.3839928 99.3999955,56.268004 100.296,55.476 C101.192004,54.683996 102.391992,54.288 103.896,54.288 C104.440003,54.288 104.995997,54.3559993 105.564,54.492 C106.132003,54.6280007 106.655998,54.8239987 107.136,55.08 C107.12,54.2159957 107.032001,53.5280026 106.872,53.016 C106.711999,52.5039974 106.400002,52.1080014 105.936,51.828 C105.471998,51.5479986 104.776005,51.408 103.848,51.408 L102.312,51.408 L102.312,49.824 L104.208,49.824 C105.520007,49.824 106.515997,50.0599976 107.196,50.532 Z M107.136,60.048 L107.136,56.592 C106.223995,56.1119976 105.200006,55.872 104.064,55.872 C103.135995,55.872 102.356003,56.0999977 101.724,56.556 C101.091997,57.0120023 100.776,57.7679947 100.776,58.824 C100.776,59.832005 101.043997,60.5639977 101.58,61.02 C102.116003,61.4760023 102.727997,61.704 103.416,61.704 C104.680006,61.704 105.919994,61.1520055 107.136,60.048 Z M106.128,44.016 L107.832,44.016 L107.832,46.824 L106.128,46.824 L106.128,44.016 Z M101.352,44.016 L103.032,44.016 L103.032,46.824 L101.352,46.824 L101.352,44.016 Z M120.184,49.536 L120.184,51.216 L119.632,51.216 C118.223993,51.216 116.856007,51.8079941 115.528,52.992 L115.528,63 L113.752,63 L113.752,49.824 L115.528,49.824 L115.528,51.36 C116.152003,50.7839971 116.815996,50.3360016 117.52,50.016 C118.224004,49.6959984 118.927996,49.536 119.632,49.536 L120.184,49.536 Z M127.496,56.472 L125.96,58.032 L125.96,63 L124.184,63 L124.184,42.696 L125.96,42.696 L125.96,55.728 L131.696,49.896 L133.952,49.896 L128.72,55.224 L134.84,63 L132.632,63 L127.496,56.472 Z M138.744,43.608 L140.52,43.608 L140.52,47.232 L138.744,47.232 L138.744,43.608 Z M138.744,49.824 L140.52,49.824 L140.52,63 L138.744,63 L138.744,49.824 Z M147.364,63.168 C146.635996,63.0079992 145.880004,62.7440018 145.096,62.376 L145.096,60.504 C146.552007,61.3360042 148.135991,61.752 149.848,61.752 C150.808005,61.752 151.507998,61.5440021 151.948,61.128 C152.388002,60.7119979 152.608,60.1760033 152.608,59.52 C152.608,58.8639967 152.428002,58.3840015 152.068,58.08 C151.707998,57.7759985 151.136004,57.5120011 150.352,57.288 L148.96,56.928 C147.887995,56.6559986 147.036003,56.2360028 146.404,55.668 C145.771997,55.0999972 145.456,54.2320058 145.456,53.064 C145.456,51.9439944 145.823996,51.0600032 146.56,50.412 C147.296004,49.7639968 148.375993,49.44 149.8,49.44 C150.584004,49.44 151.287997,49.5119993 151.912,49.656 C152.536003,49.8000007 153.167997,50.0159986 153.808,50.304 L153.808,52.056 C153.167997,51.7519985 152.552003,51.5160008 151.96,51.348 C151.367997,51.1799992 150.664004,51.096 149.848,51.096 C148.935995,51.096 148.280002,51.2839981 147.88,51.66 C147.479998,52.0360019 147.28,52.4959973 147.28,53.04 C147.28,53.6800032 147.463998,54.1559984 147.832,54.468 C148.200002,54.7800016 148.743996,55.031999 149.464,55.224 L150.856,55.584 C151.624004,55.792001 152.259997,56.0279987 152.764,56.292 C153.268003,56.5560013 153.671998,56.9439974 153.976,57.456 C154.280002,57.9680026 154.432,58.6479958 154.432,59.496 C154.432,60.7440062 154.016004,61.7079966 153.184,62.388 C152.351996,63.0680034 151.240007,63.408 149.848,63.408 C148.919995,63.408 148.092004,63.3280008 147.364,63.168 Z M159.944,61.488 C158.855995,60.2239937 158.312,58.5200107 158.312,56.376 C158.312,54.2479894 158.855995,52.5600062 159.944,51.312 C161.032005,50.0639938 162.59199,49.44 164.624,49.44 C165.312003,49.44 165.911997,49.4879995 166.424,49.584 C166.936003,49.6800005 167.479997,49.8479988 168.056,50.088 L168.056,51.864 C167.463997,51.5919986 166.908003,51.4000006 166.388,51.288 C165.867997,51.1759994 165.304003,51.12 164.696,51.12 C163.111992,51.1360001 161.960004,51.6159953 161.24,52.56 C160.519996,53.5040047 160.16,54.7679921 160.16,56.352 C160.16,57.9680081 160.515996,59.2599952 161.228,60.228 C161.940004,61.1960048 163.087992,61.6879999 164.672,61.704 C165.856006,61.704 167.127993,61.3760033 168.488,60.72 L169.088,62.28 C167.663993,63.0320038 166.176008,63.408 164.624,63.408 C162.59199,63.3919999 161.032005,62.7520063 159.944,61.488 Z M182.628,50.796 C183.388004,51.6360042 183.768,53.0479901 183.768,55.032 L183.768,63 L181.992,63 L181.992,55.032 C181.992,53.639993 181.768002,52.6560029 181.32,52.08 C180.871998,51.5039971 180.080006,51.216 178.944,51.216 C177.599993,51.216 176.280006,51.7999942 174.984,52.968 L174.984,63 L173.208,63 L173.208,42.696 L174.984,42.696 L174.984,51.312 C175.608003,50.7519972 176.271996,50.3160016 176.976,50.004 C177.680004,49.6919984 178.383996,49.536 179.088,49.536 C180.688008,49.536 181.867996,49.9559958 182.628,50.796 Z M190.264,56.352 C190.264,57.9680081 190.631996,59.271995 191.368,60.264 C192.104004,61.256005 193.279992,61.752 194.896,61.752 C196.064006,61.752 197.359993,61.4240033 198.784,60.768 L199.36,62.304 C197.951993,63.0400037 196.432008,63.408 194.8,63.408 C192.76799,63.408 191.196006,62.7680064 190.084,61.488 C188.971994,60.2079936 188.416,58.5040106 188.416,56.376 C188.416,54.9039926 188.671997,53.6480052 189.184,52.608 C189.696003,51.5679948 190.395996,50.7800027 191.284,50.244 C192.172004,49.7079973 193.167994,49.44 194.272,49.44 C195.952008,49.44 197.271995,49.9679947 198.232,51.024 C199.192005,52.0800053 199.68,53.60799 199.696,55.608 L199.696,56.304 L190.264,56.304 L190.264,56.352 Z M191.692,51.996 C191.011997,52.596003 190.576001,53.495994 190.384,54.696 L197.824,54.696 C197.728,53.4639938 197.392003,52.5560029 196.816,51.972 C196.239997,51.3879971 195.392006,51.096 194.272,51.096 C193.231995,51.096 192.372003,51.395997 191.692,51.996 Z M205.364,63.168 C204.635996,63.0079992 203.880004,62.7440018 203.096,62.376 L203.096,60.504 C204.552007,61.3360042 206.135991,61.752 207.848,61.752 C208.808005,61.752 209.507998,61.5440021 209.948,61.128 C210.388002,60.7119979 210.608,60.1760033 210.608,59.52 C210.608,58.8639967 210.428002,58.3840015 210.068,58.08 C209.707998,57.7759985 209.136004,57.5120011 208.352,57.288 L206.96,56.928 C205.887995,56.6559986 205.036003,56.2360028 204.404,55.668 C203.771997,55.0999972 203.456,54.2320058 203.456,53.064 C203.456,51.9439944 203.823996,51.0600032 204.56,50.412 C205.296004,49.7639968 206.375993,49.44 207.8,49.44 C208.584004,49.44 209.287997,49.5119993 209.912,49.656 C210.536003,49.8000007 211.167997,50.0159986 211.808,50.304 L211.808,52.056 C211.167997,51.7519985 210.552003,51.5160008 209.96,51.348 C209.367997,51.1799992 208.664004,51.096 207.848,51.096 C206.935995,51.096 206.280002,51.2839981 205.88,51.66 C205.479998,52.0360019 205.28,52.4959973 205.28,53.04 C205.28,53.6800032 205.463998,54.1559984 205.832,54.468 C206.200002,54.7800016 206.743996,55.031999 207.464,55.224 L208.856,55.584 C209.624004,55.792001 210.259997,56.0279987 210.764,56.292 C211.268003,56.5560013 211.671998,56.9439974 211.976,57.456 C212.280002,57.9680026 212.432,58.6479958 212.432,59.496 C212.432,60.7440062 212.016004,61.7079966 211.184,62.388 C210.351996,63.0680034 209.240007,63.408 207.848,63.408 C206.919995,63.408 206.092004,63.3280008 205.364,63.168 Z M233.872,49.824 L228.664,63.216 L226.792,63.216 L221.584,49.824 L223.456,49.824 L227.728,60.96 L232,49.824 L233.872,49.824 Z M237.632,43.608 L239.408,43.608 L239.408,47.232 L237.632,47.232 L237.632,43.608 Z M237.632,49.824 L239.408,49.824 L239.408,63 L237.632,63 L237.632,49.824 Z M246.024,56.352 C246.024,57.9680081 246.391996,59.271995 247.128,60.264 C247.864004,61.256005 249.039992,61.752 250.656,61.752 C251.824006,61.752 253.119993,61.4240033 254.544,60.768 L255.12,62.304 C253.711993,63.0400037 252.192008,63.408 250.56,63.408 C248.52799,63.408 246.956006,62.7680064 245.844,61.488 C244.731994,60.2079936 244.176,58.5040106 244.176,56.376 C244.176,54.9039926 244.431997,53.6480052 244.944,52.608 C245.456003,51.5679948 246.155996,50.7800027 247.044,50.244 C247.932004,49.7079973 248.927994,49.44 250.032,49.44 C251.712008,49.44 253.031995,49.9679947 253.992,51.024 C254.952005,52.0800053 255.44,53.60799 255.456,55.608 L255.456,56.304 L246.024,56.304 L246.024,56.352 Z M247.452,51.996 C246.771997,52.596003 246.336001,53.495994 246.144,54.696 L253.584,54.696 C253.488,53.4639938 253.152003,52.5560029 252.576,51.972 C251.999997,51.3879971 251.152006,51.096 250.032,51.096 C248.991995,51.096 248.132003,51.395997 247.452,51.996 Z M266.272,49.536 L266.272,51.216 L265.72,51.216 C264.311993,51.216 262.944007,51.8079941 261.616,52.992 L261.616,63 L259.84,63 L259.84,49.824 L261.616,49.824 L261.616,51.36 C262.240003,50.7839971 262.903996,50.3360016 263.608,50.016 C264.312004,49.6959984 265.015996,49.536 265.72,49.536 L266.272,49.536 Z M272.384,51.6 L272.384,59.904 C272.384,60.5600033 272.487999,61.0079988 272.696,61.248 C272.904001,61.4880012 273.295997,61.608 273.872,61.608 C274.352002,61.608 274.871997,61.5440006 275.432,61.416 L275.432,63.096 C274.839997,63.2400007 274.256003,63.312 273.68,63.312 C272.879996,63.312 272.260002,63.208001 271.82,63 C271.379998,62.791999 271.068001,62.4640022 270.884,62.016 C270.699999,61.5679978 270.608,60.9520039 270.608,60.168 L270.608,51.6 L268.928,51.6 L268.928,49.896 L270.608,49.896 L270.608,45.336 L272.384,45.336 L272.384,49.896 L275.456,49.896 L275.456,51.6 L272.384,51.6 Z M280.872,56.352 C280.872,57.9680081 281.239996,59.271995 281.976,60.264 C282.712004,61.256005 283.887992,61.752 285.504,61.752 C286.672006,61.752 287.967993,61.4240033 289.392,60.768 L289.968,62.304 C288.559993,63.0400037 287.040008,63.408 285.408,63.408 C283.37599,63.408 281.804006,62.7680064 280.692,61.488 C279.579994,60.2079936 279.024,58.5040106 279.024,56.376 C279.024,54.9039926 279.279997,53.6480052 279.792,52.608 C280.304003,51.5679948 281.003996,50.7800027 281.892,50.244 C282.780004,49.7079973 283.775994,49.44 284.88,49.44 C286.560008,49.44 287.879995,49.9679947 288.84,51.024 C289.800005,52.0800053 290.288,53.60799 290.304,55.608 L290.304,56.304 L280.872,56.304 L280.872,56.352 Z M282.3,51.996 C281.619997,52.596003 281.184001,53.495994 280.992,54.696 L288.432,54.696 C288.336,53.4639938 288.000003,52.5560029 287.424,51.972 C286.847997,51.3879971 286.000006,51.096 284.88,51.096 C283.839995,51.096 282.980003,51.395997 282.3,51.996 Z M295.408,62.64 C294.927998,62.1919978 294.688,61.4080056 294.688,60.288 L294.688,42.696 L296.464,42.696 L296.464,59.904 C296.464,60.5600033 296.567999,61.0079988 296.776,61.248 C296.984001,61.4880012 297.375997,61.608 297.952,61.608 C298.400002,61.608 298.783998,61.5760003 299.104,61.512 L299.104,63.168 C298.639998,63.2640005 298.224002,63.312 297.856,63.312 C296.703994,63.312 295.888002,63.0880022 295.408,62.64 Z" id="senioren-netz-märkis"></path>
            <g id="Page-1" transform="translate(9.000000, 8.000000)">
                <path d="M24.021,13 C24.014,13.025 24.007,13.049 24,13.074 C24.031,13.075 24.063,13.076 24.094,13.077 C24.069,13.051 24.046,13.025 24.021,13" id="Fill-1"></path>
                <path d="M17,6.59367772 C15.795977,5.67771781 14.558908,4.81110254 13.2859195,4 C11.7485632,5.03777949 10.316092,6.22667695 9,7.55435621 C11.2557471,8.85890517 13.4037356,10.3484965 15.4310345,12 C15.8764368,10.1634541 16.4008621,8.35929067 17,6.59367772" id="Fill-3"></path>
                <path d="M35.1933702,51.5889809 C35.1933702,53.0765591 35.1229282,54.5443637 35.0124309,56 C36.7265193,55.5406456 38.3743094,54.9048504 39.9433702,54.1047828 C39.9751381,53.2697313 40,52.4331587 40,51.5889809 C40,50.3386851 39.9516575,49.1005577 39.8798343,47.8685144 C38.2334254,47.6449214 36.6022099,47.3650499 35,47 C35.1201657,48.5134359 35.1933702,50.0420821 35.1933702,51.5889809" id="Fill-5"></path>
                <path d="M37.1251956,33 C35.4444444,33.6340624 33.741784,34.2238879 32,34.734087 C32.3755869,35.7249939 32.713615,36.7321209 33.0250391,37.7495699 C34.9796557,38.2582944 36.971831,38.6770705 39,39 C38.4898279,36.9562546 37.8685446,34.9523224 37.1251956,33" id="Fill-7"></path>
                <path d="M48.7748745,27 C47.2247832,28.0070985 45.6361251,28.9609583 44,29.8379178 C47.6149019,32.6891452 51.5902556,35.1011535 55.8474441,37 C56.3873802,35.3510796 56.7656321,33.6356108 57,31.8713398 C54.0971018,30.5048802 51.3455043,28.8692694 48.7748745,27" id="Fill-9"></path>
                <path d="M40.5825826,20 C38.7912913,20.4768892 36.966967,20.868672 35.1126126,21.1782832 C35.0735736,21.2589875 35.039039,21.3426266 35,21.4233309 C35.7162162,22.3022744 36.451952,23.165077 37.2192192,24 C38.8573574,23.2472487 40.451952,22.4196625 42,21.5245781 C41.518018,21.0256787 41.045045,20.5179751 40.5825826,20" id="Fill-11"></path>
                <path d="M2.82417249,29.6082173 C1.8751898,29.4290525 0.933798968,29.2263134 0,29 C0.0668083814,30.9786709 0.303674461,32.9070498 0.716671728,34.772564 C3.74126936,35.4043556 6.84178561,35.817692 10,36 C7.46431825,34.0433318 5.06832675,31.9043556 2.82417249,29.6082173" id="Fill-13"></path>
                <path d="M55,19.8749702 C54.4451373,18.1730999 53.733812,16.5414246 52.8747166,15 C47.3101537,20.3004377 40.6778786,24.5049741 33.3255858,27.2612018 C33.005417,29.2180661 32.5577601,31.1319538 32,33 C40.6242756,30.2752885 48.4445074,25.7555909 55,19.8749702" id="Fill-15"></path>
                <path d="M20,51.1314097 C19.1495824,49.4655394 18.3811693,47.7540893 17.6993166,46 C15.9711465,47.9172946 14.0637813,49.6772652 12,51.2549164 C13.5186029,52.3135453 15.143508,53.232494 16.8595292,54 C17.9498861,53.0898732 18.9977221,52.1326962 20,51.1314097" id="Fill-17"></path>
                <path d="M31,6.53459792 C30.5182211,4.98730964 29.9576899,3.47381779 29.3137739,2 C28.0475602,4.07186749 26.937307,6.24218541 26,8.49332087 C26.435454,9.96419984 26.7921557,11.4674058 27.0546634,13 C27.7526251,12.9794283 28.4459543,12.9456318 29.1377393,12.8986107 C29.9021001,10.8355597 30.5321186,8.7137323 31,6.53459792" id="Fill-19"></path>
                <path d="M29.4071183,37 C30.6057405,33.8232531 31.4902411,30.4776864 32,27 C30.2461538,30.0358191 28.238806,32.8881386 26,35.5143864 C27.1187141,36.0458015 28.2498278,36.5507927 29.4071183,37" id="Fill-21"></path>
                <path d="M48.6732249,42.1006617 C40.0504529,42.1006617 31.8689004,40.2648177 24.5055031,37 C24.3345671,37.1689427 24.172397,37.3449247 24,37.5110517 C24.4280705,39.30466 24.9569494,41.0616641 25.5954027,42.7708011 C32.7484173,45.4893707 40.5296581,47 48.6732249,47 C49.2605435,47 49.8405571,46.9732507 50.4249537,46.9563565 C51.8055907,45.3964522 53.0065258,43.6887231 54,41.8556948 C52.2438882,42.0105589 50.4702445,42.1006617 48.6732249,42.1006617" id="Fill-23"></path>
                <path d="M13.6422287,29.9631246 C9.05278592,26.5814511 4.97947214,22.5481691 1.56451613,18 C0.82111437,19.9591889 0.291788856,22.0158282 0,24.1539185 C3.50879765,28.2555613 7.53519062,31.9019507 11.9809384,35 C12.670088,34.4880219 13.3416422,33.955681 14,33.4102498 C13.8460411,32.2713895 13.7272727,31.1223477 13.6422287,29.9631246" id="Fill-25"></path>
                <path d="M21,21.5987733 C19.3938893,21.4694608 17.8070465,21.2712752 16.2422241,21 C16.0880815,22.6656018 16,24.3494761 16,26.0544339 C16,28.0644007 16.121112,30.0462561 16.3344344,32 C17.9391687,30.5002556 19.4379301,28.8852543 20.818332,27.1676463 C20.8100743,26.7965755 20.7908065,26.4269103 20.7908065,26.0544339 C20.7908065,24.5518784 20.8678778,23.0661896 21,21.5987733" id="Fill-27"></path>
                <path d="M22.2221111,39 C20.8744444,40.2445436 19.4661111,41.4259997 18,42.5371993 C19.547,47.6200414 21.8277778,52.38888 24.7181111,56.7261431 C25.9444444,56.8867293 27.1866667,57 28.4563333,57 C29.3157778,57 30.1607778,56.9469492 31,56.8723913 C26.9382222,51.6418671 23.9063333,45.5869046 22.2221111,39" id="Fill-32"></path>
                <path d="M28,0 C25.7874763,0.027818448 23.6435348,0.311859444 21.5771212,0.800878477 C19.6314719,4.45387994 18.0809162,8.33967789 17,12.4128843 C18.7145568,12.6969253 20.4559501,12.8960469 22.22418,13 C23.5272432,8.36603221 25.4833288,3.99707174 28,0" id="Fill-29"></path>
                <path d="M38,1.29825809 C36.4890898,0.723782439 34.9190092,0.287237824 33.2938864,0 C33.017299,4.16637042 32.2315707,8.186278 31,12 C32.7971299,11.7895485 34.5612345,11.4667615 36.2895616,11.0444365 C37.1399646,7.90046214 37.7192845,4.64415215 38,1.29825809" id="Fill-34"></path>
                <path d="M33,21 C31.0265754,21.2636947 29.0210389,21.4216136 26.9906885,21.4737566 C21.7330884,30.7924593 13.6788303,38.2608297 4,42.6780885 C4.86118381,44.2110933 5.84497685,45.6591795 6.95721764,47 C18.2533219,41.5950034 27.4636098,32.3895256 33,21" id="Fill-36"></path>
                <path d="M52,12.9963143 C51.061699,11.5671976 49.992269,10.2350928 48.8164788,9 C41.7544527,12.7993945 33.6739913,14.9597209 25.0952395,14.9597209 C18.2503048,14.9597209 11.7229937,13.58273 5.7770212,11.098065 C4.72798906,12.4388574 3.79551604,13.8679742 3,15.3854153 C9.76771431,18.3450046 17.2391544,20 25.0952395,20 C34.8628944,20 44.0375546,17.4472818 52,12.9963143" id="Fill-38"></path>
            </g>
        </g>
    </g>
</svg>