<svg xmlns="http://www.w3.org/2000/svg" width="158" height="36" viewBox="0 0 158 36" xmlns:xlink="http://www.w3.org/1999/xlink">
  <defs>
    <polygon id="a" points="112.494 11.743 112.494 .77 .529 .77 .529 11.743 112.494 11.743"/>
  </defs>
  <g fill="none" fill-rule="evenodd" transform="translate(0 2)">
    <g transform="translate(41 19.321)">
      <mask id="b" fill="white">
        <use xlink:href="#a"/>
      </mask>
      <path fill="#1D1C1B" d="M111.6932,11.692 C111.8882,11.692 112.1552,11.662 112.4942,11.603 L112.4942,10.509 C112.3072,10.56 112.0952,10.586 111.8582,10.586 C111.5612,10.586 111.3602,10.524 111.2542,10.401 C111.1482,10.278 111.0952,10.047 111.0952,9.708 L111.0952,0.77 L109.9002,0.77 L109.9002,10.026 C109.9002,10.628 110.0402,11.056 110.3202,11.31 C110.5992,11.565 111.0572,11.692 111.6932,11.692 L111.6932,11.692 Z M105.2342,5.36 C105.7682,5.36 106.1752,5.502 106.4542,5.786 C106.7342,6.07 106.8952,6.509 106.9382,7.102 L103.3522,7.102 C103.5552,5.941 104.1832,5.36 105.2342,5.36 L105.2342,5.36 Z M103.2762,8.106 L108.1962,8.106 L108.1962,7.636 C108.1962,6.559 107.9332,5.733 107.4082,5.156 C106.8822,4.58 106.1582,4.292 105.2342,4.292 C104.6322,4.292 104.0892,4.436 103.6062,4.724 C103.1232,5.012 102.7392,5.434 102.4562,5.989 C102.1712,6.545 102.0302,7.216 102.0302,8.005 C102.0302,8.751 102.1652,9.403 102.4372,9.963 C102.7082,10.522 103.1062,10.959 103.6322,11.272 C104.1572,11.586 104.7932,11.743 105.5392,11.743 C106.4372,11.743 107.2722,11.543 108.0442,11.145 L107.6752,10.153 C106.9382,10.501 106.2592,10.675 105.6412,10.675 C104.8272,10.675 104.2332,10.442 103.8612,9.975 C103.4872,9.509 103.2932,8.886 103.2762,8.106 L103.2762,8.106 Z M100.7842,5.69 L100.7842,4.584 L99.1562,4.584 L99.1562,2.168 L97.9612,2.168 L97.9612,4.584 L97.0462,4.584 L97.0462,5.69 L97.9612,5.69 L97.9612,9.975 C97.9612,10.594 98.0902,11.035 98.3492,11.298 C98.6072,11.56 99.0592,11.692 99.7032,11.692 C100.0002,11.692 100.3392,11.649 100.7202,11.565 L100.7202,10.484 C100.4322,10.552 100.1612,10.586 99.9062,10.586 C99.6182,10.586 99.4212,10.524 99.3152,10.401 C99.2092,10.278 99.1562,10.047 99.1562,9.708 L99.1562,5.69 L100.7842,5.69 Z M95.9012,4.343 C95.1812,4.343 94.4732,4.656 93.7782,5.284 L93.7782,4.495 L92.5832,4.495 L92.5832,11.527 L93.7782,11.527 L93.7782,6.339 C94.4652,5.754 95.1722,5.462 95.9012,5.462 L96.1942,5.462 L96.1942,4.343 L95.9012,4.343 Z M87.9172,5.36 C88.4512,5.36 88.8572,5.502 89.1372,5.786 C89.4172,6.07 89.5782,6.509 89.6202,7.102 L86.0352,7.102 C86.2382,5.941 86.8652,5.36 87.9172,5.36 L87.9172,5.36 Z M85.9582,8.106 L90.8792,8.106 L90.8792,7.636 C90.8792,6.559 90.6162,5.733 90.0912,5.156 C89.5652,4.58 88.8402,4.292 87.9172,4.292 C87.3152,4.292 86.7722,4.436 86.2892,4.724 C85.8062,5.012 85.4222,5.434 85.1382,5.989 C84.8542,6.545 84.7122,7.216 84.7122,8.005 C84.7122,8.751 84.8482,9.403 85.1192,9.963 C85.3902,10.522 85.7892,10.959 86.3142,11.272 C86.8402,11.586 87.4762,11.743 88.2222,11.743 C89.1202,11.743 89.9552,11.543 90.7272,11.145 L90.3582,10.153 C89.6202,10.501 88.9422,10.675 88.3232,10.675 C87.5102,10.675 86.9162,10.442 86.5432,9.975 C86.1702,9.509 85.9752,8.886 85.9582,8.106 L85.9582,8.106 Z M81.6612,11.527 L82.8562,11.527 L82.8562,4.495 L81.6612,4.495 L81.6612,11.527 Z M81.6612,3.173 L82.8562,3.173 L82.8562,1.253 L81.6612,1.253 L81.6612,3.173 Z M79.0162,4.495 L76.9182,10.319 L74.7952,4.495 L73.5492,4.495 L76.2322,11.641 L77.6052,11.641 L80.2622,4.495 L79.0162,4.495 Z M67.2432,11.743 C68.0232,11.743 68.6432,11.556 69.1052,11.183 C69.5672,10.81 69.7982,10.281 69.7982,9.594 C69.7982,9.136 69.7202,8.77 69.5632,8.494 C69.4062,8.219 69.1902,8.005 68.9152,7.852 C68.6392,7.699 68.2902,7.572 67.8662,7.471 L67.0272,7.28 C66.6962,7.195 66.4442,7.079 66.2702,6.93 C66.0962,6.782 66.0092,6.564 66.0092,6.275 C66.0092,6.013 66.1092,5.794 66.3082,5.621 C66.5072,5.447 66.8322,5.36 67.2812,5.36 C67.7132,5.36 68.0992,5.404 68.4382,5.493 C68.7772,5.582 69.1202,5.708 69.4682,5.868 L69.4682,4.75 C69.1122,4.606 68.7562,4.493 68.4002,4.413 C68.0442,4.332 67.6582,4.292 67.2432,4.292 C66.4372,4.292 65.8272,4.47 65.4122,4.826 C64.9962,5.182 64.7892,5.678 64.7892,6.313 C64.7892,6.924 64.9582,7.386 65.2972,7.699 C65.6362,8.013 66.1032,8.242 66.6962,8.386 L67.5222,8.589 C67.8952,8.691 68.1652,8.814 68.3302,8.958 C68.4952,9.102 68.5782,9.327 68.5782,9.632 C68.5782,9.946 68.4742,10.198 68.2662,10.389 C68.0582,10.579 67.7172,10.675 67.2432,10.675 C66.3022,10.675 65.4292,10.45 64.6232,10.001 L64.6232,11.183 C65.0562,11.387 65.4712,11.531 65.8702,11.616 C66.2682,11.7 66.7262,11.743 67.2432,11.743 L67.2432,11.743 Z M59.9322,5.36 C60.4662,5.36 60.8732,5.502 61.1522,5.786 C61.4322,6.07 61.5932,6.509 61.6362,7.102 L58.0502,7.102 C58.2532,5.941 58.8812,5.36 59.9322,5.36 L59.9322,5.36 Z M57.9742,8.106 L62.8942,8.106 L62.8942,7.636 C62.8942,6.559 62.6322,5.733 62.1062,5.156 C61.5802,4.58 60.8562,4.292 59.9322,4.292 C59.3302,4.292 58.7872,4.436 58.3042,4.724 C57.8212,5.012 57.4382,5.434 57.1542,5.989 C56.8702,6.545 56.7282,7.216 56.7282,8.005 C56.7282,8.751 56.8632,9.403 57.1352,9.963 C57.4062,10.522 57.8042,10.959 58.3302,11.272 C58.8552,11.586 59.4912,11.743 60.2372,11.743 C61.1352,11.743 61.9702,11.543 62.7422,11.145 L62.3732,10.153 C61.6362,10.501 60.9572,10.675 60.3392,10.675 C59.5252,10.675 58.9322,10.442 58.5592,9.975 C58.1862,9.509 57.9912,8.886 57.9742,8.106 L57.9742,8.106 Z M52.6342,4.343 C51.8882,4.343 51.1712,4.644 50.4852,5.245 L50.4852,0.77 L49.2902,0.77 L49.2902,11.527 L50.4852,11.527 L50.4852,6.326 C51.1462,5.75 51.8072,5.462 52.4682,5.462 C53.0362,5.462 53.4322,5.601 53.6572,5.881 C53.8822,6.161 53.9942,6.631 53.9942,7.293 L53.9942,11.527 L55.1892,11.527 L55.1892,7.293 C55.1892,6.242 54.9802,5.487 54.5602,5.029 C54.1402,4.572 53.4982,4.343 52.6342,4.343 L52.6342,4.343 Z M45.3232,11.743 C46.1622,11.743 46.9672,11.539 47.7392,11.132 L47.3572,10.09 C46.6452,10.454 45.9882,10.637 45.3862,10.637 C44.6152,10.628 44.0512,10.387 43.6952,9.912 C43.3392,9.437 43.1612,8.797 43.1612,7.992 C43.1612,7.203 43.3392,6.578 43.6952,6.116 C44.0512,5.654 44.6232,5.419 45.4122,5.411 C45.7422,5.411 46.0452,5.441 46.3212,5.5 C46.5962,5.559 46.8872,5.661 47.1922,5.805 L47.1922,4.648 C46.8782,4.521 46.5832,4.43 46.3082,4.374 C46.0332,4.319 45.7042,4.292 45.3232,4.292 C44.2292,4.3 43.3882,4.635 42.7992,5.296 C42.2102,5.957 41.9152,6.86 41.9152,8.005 C41.9152,9.149 42.2102,10.056 42.7992,10.726 C43.3882,11.395 44.2292,11.734 45.3232,11.743 L45.3232,11.743 Z M37.9482,11.743 C38.7282,11.743 39.3492,11.556 39.8112,11.183 C40.2732,10.81 40.5042,10.281 40.5042,9.594 C40.5042,9.136 40.4252,8.77 40.2692,8.494 C40.1122,8.219 39.8962,8.005 39.6202,7.852 C39.3452,7.699 38.9952,7.572 38.5712,7.471 L37.7322,7.28 C37.4012,7.195 37.1492,7.079 36.9762,6.93 C36.8022,6.782 36.7152,6.564 36.7152,6.275 C36.7152,6.013 36.8142,5.794 37.0142,5.621 C37.2132,5.447 37.5372,5.36 37.9862,5.36 C38.4192,5.36 38.8042,5.404 39.1432,5.493 C39.4822,5.582 39.8262,5.708 40.1732,5.868 L40.1732,4.75 C39.8172,4.606 39.4612,4.493 39.1052,4.413 C38.7492,4.332 38.3632,4.292 37.9482,4.292 C37.1432,4.292 36.5322,4.47 36.1172,4.826 C35.7022,5.182 35.4942,5.678 35.4942,6.313 C35.4942,6.924 35.6642,7.386 36.0032,7.699 C36.3422,8.013 36.8082,8.242 37.4012,8.386 L38.2282,8.589 C38.6012,8.691 38.8702,8.814 39.0352,8.958 C39.2012,9.102 39.2832,9.327 39.2832,9.632 C39.2832,9.946 39.1792,10.198 38.9722,10.389 C38.7642,10.579 38.4232,10.675 37.9482,10.675 C37.0072,10.675 36.1342,10.45 35.3292,10.001 L35.3292,11.183 C35.7612,11.387 36.1762,11.531 36.5752,11.616 C36.9732,11.7 37.4312,11.743 37.9482,11.743 L37.9482,11.743 Z M32.3282,11.527 L33.5242,11.527 L33.5242,4.495 L32.3282,4.495 L32.3282,11.527 Z M32.3282,3.173 L33.5242,3.173 L33.5242,1.253 L32.3282,1.253 L32.3282,3.173 Z M29.4292,11.527 L30.8792,11.527 L27.6752,7.458 L30.4722,4.584 L28.9722,4.584 L26.0982,7.547 L26.0982,0.77 L24.9032,0.77 L24.9032,11.527 L26.0982,11.527 L26.0982,9.06 L26.8612,8.284 L29.4292,11.527 Z M23.0852,4.343 C22.3642,4.343 21.6562,4.656 20.9612,5.284 L20.9612,4.495 L19.7662,4.495 L19.7662,11.527 L20.9612,11.527 L20.9612,6.339 C21.6482,5.754 22.3562,5.462 23.0852,5.462 L23.3772,5.462 L23.3772,4.343 L23.0852,4.343 Z M13.4602,3.008 L14.5792,3.008 L14.5792,1.431 L13.4602,1.431 L13.4602,3.008 Z M16.0542,3.008 L17.1602,3.008 L17.1602,1.431 L16.0542,1.431 L16.0542,3.008 Z M14.7572,10.662 C14.4092,10.662 14.1062,10.554 13.8482,10.338 C13.5892,10.122 13.4602,9.776 13.4602,9.301 C13.4602,8.793 13.6122,8.43 13.9182,8.214 C14.2232,7.998 14.6002,7.89 15.0492,7.89 C15.6092,7.89 16.1262,8.009 16.6002,8.246 L16.6002,9.848 C16.2952,10.12 15.9842,10.323 15.6662,10.458 C15.3482,10.594 15.0452,10.662 14.7572,10.662 L14.7572,10.662 Z M15.1262,4.495 L13.9942,4.495 L13.9942,5.563 L14.9352,5.563 C15.4012,5.563 15.7532,5.629 15.9902,5.76 C16.2272,5.892 16.3842,6.08 16.4612,6.326 C16.5372,6.572 16.5792,6.903 16.5882,7.318 C16.0792,7.038 15.5072,6.898 14.8712,6.898 C14.0662,6.898 13.4262,7.108 12.9512,7.528 C12.4762,7.947 12.2392,8.539 12.2392,9.301 C12.2392,9.793 12.3432,10.219 12.5512,10.579 C12.7582,10.94 13.0402,11.215 13.3962,11.406 C13.7522,11.596 14.1512,11.692 14.5912,11.692 C14.9642,11.692 15.3122,11.624 15.6342,11.488 C15.9562,11.353 16.2782,11.132 16.6002,10.827 L16.6002,11.527 L17.7962,11.527 L17.7962,7.458 C17.7962,6.822 17.7322,6.294 17.6052,5.875 C17.4782,5.455 17.2192,5.12 16.8292,4.87 C16.4392,4.62 15.8712,4.495 15.1262,4.495 L15.1262,4.495 Z M8.4382,4.343 C7.6152,4.343 6.8182,4.741 6.0472,5.538 C5.8612,5.123 5.5852,4.819 5.2212,4.629 C4.8562,4.438 4.3902,4.343 3.8222,4.343 C3.1102,4.343 2.4112,4.644 1.7242,5.245 L1.7242,4.495 L0.5292,4.495 L0.5292,11.527 L1.7242,11.527 L1.7242,6.326 C2.3682,5.75 3.0122,5.462 3.6572,5.462 C4.2162,5.462 4.6042,5.599 4.8202,5.875 C5.0362,6.15 5.1442,6.623 5.1442,7.293 L5.1442,11.527 L6.3402,11.527 L6.3402,7.293 C6.3402,6.945 6.3232,6.653 6.2892,6.415 C6.9502,5.779 7.6112,5.462 8.2722,5.462 C8.8322,5.462 9.2202,5.599 9.4362,5.875 C9.6522,6.15 9.7602,6.623 9.7602,7.293 L9.7602,11.527 L10.9552,11.527 L10.9552,7.293 C10.9552,6.242 10.7492,5.487 10.3382,5.029 C9.9272,4.572 9.2942,4.343 8.4382,4.343 L8.4382,4.343 Z" mask="url(#b)"/>
    </g>
    <path fill="#1D1C1B" d="M148.7452 10.681L152.8612 6.04 152.8612 3.878 146.2332 3.878 146.2332 6.04 150.0802 6.04 145.9472 10.681 145.9472 12.827 153.2112 12.827 153.2112 10.681 148.7452 10.681zM144.2312 6.326L144.2312 4.149 142.1972 4.149 142.1972 1.129 139.7492 1.129 139.7492 4.149 138.5412 4.149 138.5412 6.326 139.7492 6.326 139.7492 10.697C139.7492 11.47 139.9642 12.053 140.3932 12.445 140.8222 12.837 141.4922 13.033 142.4032 13.033 142.8592 13.033 143.3942 12.964 144.0092 12.827L144.0092 10.729C143.7012 10.813 143.3782 10.856 143.0392 10.856 142.7212 10.856 142.5012 10.782 142.3792 10.633 142.2572 10.485 142.1972 10.225 142.1972 9.854L142.1972 6.326 144.2312 6.326zM133.2332 5.674C133.6992 5.674 134.0592 5.794 134.3142 6.032 134.5682 6.27 134.7212 6.649 134.7752 7.168L131.5642 7.168C131.6702 6.639 131.8632 6.257 132.1442 6.024 132.4252 5.791 132.7882 5.674 133.2332 5.674L133.2332 5.674zM131.5162 9.028L137.3332 9.028 137.3332 8.058C137.3332 6.607 136.9702 5.505 136.2452 4.753 135.5192 4 134.5152 3.624 133.2332 3.624 132.4272 3.624 131.6962 3.807 131.0402 4.172 130.3822 4.538 129.8632 5.076 129.4822 5.786 129.1012 6.496 128.9102 7.349 128.9102 8.345 128.9102 9.288 129.0952 10.117 129.4662 10.832 129.8372 11.547 130.3822 12.103 131.1032 12.501 131.8242 12.898 132.6922 13.097 133.7102 13.097 134.4092 13.097 135.0262 13.036 135.5612 12.914 136.0962 12.792 136.6342 12.583 137.1742 12.286L136.5232 10.379C136.0352 10.612 135.5982 10.782 135.2122 10.888 134.8252 10.994 134.4302 11.046 134.0282 11.046 132.5442 11.046 131.7072 10.374 131.5162 9.028L131.5162 9.028zM123.5222 3.688C122.6002 3.688 121.7472 4.011 120.9632 4.657L120.9632 3.878 118.5162 3.878 118.5162 12.827 120.9632 12.827 120.9632 6.723C121.6412 6.162 122.3192 5.881 122.9982 5.881 123.5702 5.881 123.9722 6.011 124.2062 6.27 124.4392 6.53 124.5552 6.925 124.5552 7.454L124.5552 12.827 127.0032 12.827 127.0032 7.454C127.0032 6.141 126.7142 5.184 126.1372 4.586 125.5592 3.987 124.6882 3.688 123.5222 3.688L123.5222 3.688zM108.9162 3.688C107.9952 3.688 107.1422 4.011 106.3582 4.657L106.3582 3.878 103.9102 3.878 103.9102 12.827 106.3582 12.827 106.3582 6.723C107.0362 6.162 107.7142 5.881 108.3922 5.881 108.9642 5.881 109.3672 6.011 109.6002 6.27 109.8332 6.53 109.9492 6.925 109.9492 7.454L109.9492 12.827 112.3972 12.827 112.3972 7.454C112.3972 6.141 112.1082 5.184 111.5312 4.586 110.9532 3.987 110.0822 3.688 108.9162 3.688L108.9162 3.688zM97.9182 5.674C98.3842 5.674 98.7452 5.794 98.9992 6.032 99.2532 6.27 99.4072 6.649 99.4602 7.168L96.2492 7.168C96.3552 6.639 96.5492 6.257 96.8302 6.024 97.1102 5.791 97.4732 5.674 97.9182 5.674L97.9182 5.674zM96.2022 9.028L102.0192 9.028 102.0192 8.058C102.0192 6.607 101.6562 5.505 100.9302 4.753 100.2042 4 99.2002 3.624 97.9182 3.624 97.1132 3.624 96.3822 3.807 95.7252 4.172 95.0682 4.538 94.5492 5.076 94.1672 5.786 93.7862 6.496 93.5952 7.349 93.5952 8.345 93.5952 9.288 93.7802 10.117 94.1512 10.832 94.5222 11.547 95.0682 12.103 95.7892 12.501 96.5092 12.898 97.3782 13.097 98.3952 13.097 99.0942 13.097 99.7112 13.036 100.2472 12.914 100.7822 12.792 101.3192 12.583 101.8602 12.286L101.2082 10.379C100.7212 10.612 100.2842 10.782 99.8972 10.888 99.5102 10.994 99.1152 11.046 98.7132 11.046 97.2292 11.046 96.3922 10.374 96.2022 9.028L96.2022 9.028zM91.9582 3.688C91.1102 3.688 90.2792 4.037 89.4632 4.737L89.4632 3.878 87.0152 3.878 87.0152 12.827 89.4632 12.827 89.4632 6.803C90.2892 6.188 91.1212 5.881 91.9582 5.881L92.3242 5.881 92.3242 3.688 91.9582 3.688zM80.3562 10.999C79.6572 10.999 79.1242 10.766 78.7592 10.299 78.3932 9.833 78.2102 9.187 78.2102 8.36 78.2102 7.534 78.3932 6.89 78.7592 6.429 79.1242 5.968 79.6572 5.738 80.3562 5.738 81.0452 5.738 81.5692 5.968 81.9292 6.429 82.2902 6.89 82.4702 7.534 82.4702 8.36 82.4702 9.198 82.2902 9.847 81.9292 10.307 81.5692 10.768 81.0452 10.999 80.3562 10.999L80.3562 10.999zM80.3562 13.097C81.3632 13.097 82.2162 12.89 82.9152 12.477 83.6142 12.064 84.1412 11.499 84.4962 10.784 84.8512 10.069 85.0292 9.261 85.0292 8.36 85.0292 7.47 84.8512 6.668 84.4962 5.953 84.1412 5.237 83.6142 4.671 82.9152 4.252 82.2162 3.834 81.3632 3.624 80.3562 3.624 79.3492 3.624 78.4912 3.834 77.7812 4.252 77.0712 4.671 76.5392 5.237 76.1842 5.953 75.8292 6.668 75.6512 7.47 75.6512 8.36 75.6512 9.261 75.8292 10.069 76.1842 10.784 76.5392 11.499 77.0712 12.064 77.7812 12.477 78.4912 12.89 79.3492 13.097 80.3562 13.097L80.3562 13.097zM71.2172 12.827L73.6652 12.827 73.6652 3.878 71.2172 3.878 71.2172 12.827zM71.2172 2.4L73.6652 2.4 73.6652 0 71.2172 0 71.2172 2.4zM65.2732 3.688C64.3522 3.688 63.4992 4.011 62.7152 4.657L62.7152 3.878 60.2672 3.878 60.2672 12.827 62.7152 12.827 62.7152 6.723C63.3932 6.162 64.0712 5.881 64.7492 5.881 65.3212 5.881 65.7242 6.011 65.9572 6.27 66.1902 6.53 66.3072 6.925 66.3072 7.454L66.3072 12.827 68.7542 12.827 68.7542 7.454C68.7542 6.141 68.4652 5.184 67.8882 4.586 67.3102 3.987 66.4392 3.688 65.2732 3.688L65.2732 3.688zM54.2752 5.674C54.7412 5.674 55.1022 5.794 55.3562 6.032 55.6102 6.27 55.7642 6.649 55.8172 7.168L52.6072 7.168C52.7122 6.639 52.9062 6.257 53.1872 6.024 53.4672 5.791 53.8302 5.674 54.2752 5.674L54.2752 5.674zM52.5592 9.028L58.3762 9.028 58.3762 8.058C58.3762 6.607 58.0132 5.505 57.2872 4.753 56.5612 4 55.5572 3.624 54.2752 3.624 53.4702 3.624 52.7392 3.807 52.0822 4.172 51.4252 4.538 50.9062 5.076 50.5242 5.786 50.1432 6.496 49.9522 7.349 49.9522 8.345 49.9522 9.288 50.1382 10.117 50.5092 10.832 50.8792 11.547 51.4252 12.103 52.1462 12.501 52.8662 12.898 53.7352 13.097 54.7522 13.097 55.4512 13.097 56.0692 13.036 56.6042 12.914 57.1392 12.792 57.6772 12.583 58.2172 12.286L57.5652 10.379C57.0782 10.612 56.6412 10.782 56.2542 10.888 55.8672 10.994 55.4732 11.046 55.0702 11.046 53.5862 11.046 52.7502 10.374 52.5592 9.028L52.5592 9.028zM44.8032 13.097C45.9262 13.097 46.8192 12.848 47.4812 12.35 48.1432 11.852 48.4742 11.11 48.4742 10.125 48.4742 9.277 48.2682 8.641 47.8552 8.217 47.4412 7.794 46.7842 7.492 45.8842 7.311L44.4692 7.009C44.2152 6.946 44.0292 6.869 43.9132 6.779 43.7962 6.689 43.7382 6.549 43.7382 6.358 43.7382 6.135 43.8312 5.966 44.0162 5.849 44.2022 5.733 44.5272 5.674 44.9942 5.674 45.5342 5.674 46.0772 5.733 46.6232 5.849 47.1682 5.966 47.6482 6.119 48.0612 6.31L48.0612 4.196C46.9382 3.815 45.8782 3.624 44.8822 3.624 42.4672 3.624 41.2592 4.588 41.2592 6.517 41.2592 7.269 41.4652 7.857 41.8792 8.281 42.2922 8.705 42.9272 9.007 43.7862 9.187L45.2002 9.489C45.4762 9.552 45.6772 9.643 45.8042 9.759 45.9312 9.876 45.9952 10.04 45.9952 10.252 45.9952 10.782 45.5982 11.046 44.8032 11.046 44.1352 11.046 43.5022 10.975 42.9042 10.832 42.3052 10.689 41.7142 10.453 41.1322 10.125L41.1322 12.318C41.7352 12.604 42.3162 12.805 42.8722 12.922 43.4282 13.038 44.0722 13.097 44.8032 13.097L44.8032 13.097zM11.2641 4.6499C10.6991 4.0789 10.1131 3.5289 9.5011 3.0039 8.5871 3.3769 7.7141 3.8349 6.8921 4.3739 7.9861 5.2379 9.0061 6.1849 9.9471 7.2019 10.3471 6.3259 10.7881 5.4749 11.2641 4.6499M16.7158 30.105C16.5828 30.858 16.4128 31.595 16.2208 32.321 17.2178 32.257 18.1928 32.097 19.1388 31.846 19.2318 31.426 19.3208 31.005 19.3958 30.578 19.5078 29.945 19.5908 29.313 19.6608 28.683 18.7628 28.407 17.8788 28.105 17.0168 27.763 16.9488 28.541 16.8538 29.322 16.7158 30.105M19.4224 20.4819C18.5374 20.6669 17.6444 20.8269 16.7404 20.9419 16.8344 21.4919 16.9074 22.0479 16.9674 22.6059 17.8824 23.0419 18.8244 23.4339 19.7924 23.7779 19.7294 22.6659 19.6084 21.5649 19.4224 20.4819M25.9355 18.434C25.0385 18.817 24.1255 19.167 23.1955 19.474 24.8115 21.29 26.6535 22.911 28.6895 24.289 29.1205 23.48 29.4755 22.621 29.7585 21.724 28.3765 20.746 27.0985 19.643 25.9355 18.434M22.2857 13.674C21.3237 13.762 20.3507 13.803 19.3717 13.798L19.2907 13.916C19.5767 14.442 19.8737 14.962 20.1907 15.469 21.1007 15.222 21.9947 14.932 22.8717 14.602 22.6707 14.297 22.4747 13.987 22.2857 13.674M1.5336 15.554C1.0676 15.381.6076 15.197.1536 15.003.0166 15.979-.0294 16.945.0186 17.896 1.4976 18.476 3.0346 18.956 4.6206 19.327 3.5036 18.142 2.4736 16.88 1.5336 15.554M30.3385 15.022C30.2045 14.056 29.9815 13.112 29.6705 12.203 26.2105 14.53 22.2865 16.169 18.1165 16.962 17.7605 17.984 17.3415 18.971 16.8675 19.923 21.7105 19.266 26.2965 17.569 30.3385 15.022M8.4047 28.411C8.1277 27.462 7.8957 26.497 7.7117 25.518 6.6577 26.367 5.5287 27.118 4.3357 27.761 5.0087 28.451 5.7477 29.077 6.5467 29.633 7.1847 29.253 7.8037 28.846 8.4047 28.411M18.3906 5.789C18.2936 4.936 18.1536 4.093 17.9686 3.263 17.1456 4.239 16.3916 5.278 15.7156 6.376 15.7976 7.185 15.8366 8.004 15.8256 8.83 16.1756 8.881 16.5246 8.924 16.8736 8.96 17.4456 7.946 17.9556 6.889 18.3906 5.789M14.853 21.502C15.817 19.954 16.621 18.286 17.228 16.511 15.966 17.931 14.58 19.23 13.086 20.387 13.662 20.776 14.248 21.152 14.853 21.502"/>
    <path fill="#1D1C1B" d="M24.4905 26.045C19.9455 25.244 15.8095 23.48 12.2435 21.009 12.1365 21.086 12.0345 21.166 11.9275 21.242 11.9805 22.263 12.0895 23.273 12.2615 24.267 15.7695 26.419 19.7245 27.968 24.0175 28.725 24.3275 28.78 24.6365 28.819 24.9455 28.865 25.8235 28.139 26.6215 27.316 27.3225 26.406 26.3815 26.328 25.4375 26.212 24.4905 26.045M7.3509 16.8139C5.2559 14.5979 3.4939 12.0859 2.1249 9.3609 1.5509 10.3299 1.0809 11.3699.7279 12.4749 2.1879 14.9709 3.9629 17.2749 6.0079 19.3269 6.4179 19.1199 6.8199 18.8999 7.2179 18.6719 7.2429 18.0549 7.2879 17.4349 7.3509 16.8139M11.8525 12.818C10.9655 12.589 10.0975 12.324 9.2475 12.021 9.0005 12.918 8.7895 13.832 8.6245 14.766 8.4305 15.868 8.3065 16.965 8.2375 18.057 9.2805 17.394 10.2745 16.656 11.2135 15.851 11.2445 15.647 11.2695 15.443 11.3055 15.239 11.4505 14.415 11.6365 13.609 11.8525 12.818M17.6855 2.076C16.5405 1.889 15.4065 1.843 14.2935 1.912 12.9505 3.656 11.7885 5.559 10.8525 7.603 11.7115 7.908 12.5925 8.172 13.4965 8.388 14.5985 6.069 16.0145 3.949 17.6855 2.076M10.97 21.881C10.133 22.423 9.271 22.925 8.384 23.384 8.727 26.26 9.491 29.035 10.622 31.636 11.261 31.838 11.912 32.016 12.59 32.135 13.047 32.216 13.503 32.267 13.957 32.306 12.287 29.114 11.244 25.577 10.97 21.881M22.8916 3.946C22.1006 3.486 21.2636 3.094 20.3816 2.778 19.8296 5.007 19.0056 7.107 17.9516 9.051 18.9776 9.114 19.9966 9.113 21.0036 9.055 21.7796 7.436 22.4156 5.73 22.8916 3.946"/>
    <path fill="#1D1C1B" d="M18.1748 13.767C17.1088 13.72 16.0368 13.615 14.9608 13.452 11.3378 17.781 6.4078 20.892.8978 22.275 1.2128 23.147 1.6008 23.988 2.0648 24.784 8.5168 23.041 14.2158 19.139 18.1748 13.767M29.2601 11.148C28.8981 10.3 28.4581 9.492 27.9521 8.726 23.8631 10.088 19.3891 10.484 14.8551 9.685 11.2371 9.047 7.9161 7.706 5.0061 5.83 4.3261 6.445 3.6991 7.118 3.1361 7.852 6.4361 10.056 10.2301 11.633 14.3821 12.365 19.5451 13.275 24.6341 12.773 29.2601 11.148"/>
  </g>
</svg>
